<?xml version="1.0" encoding="UTF-8"?><svg id="Layer_2" xmlns="http://www.w3.org/2000/svg" viewBox="0 0 441.69 108.94"><defs><style>.cls-1{fill:#ffcbae;}.cls-2{opacity:.5;}</style></defs><g id="main"><g class="cls-2"><g><path class="cls-1" d="M14.85,25.32H0V2.34H41.89V106.59H14.85V25.32Z"/><path class="cls-1" d="M134.1,97.06c-8.13,7.97-18.6,11.88-28.76,11.88s-20.63-3.91-28.76-11.88c-9.38-9.22-15.47-24.23-15.47-42.51s6.1-33.45,15.47-42.67C84.71,3.91,95.19,0,105.34,0s20.63,3.91,28.76,11.88c9.38,9.22,15.47,24.23,15.47,42.67s-6.1,33.29-15.47,42.51ZM97.06,27.51c-5.63,4.84-9.07,17.5-9.07,27.2,0,8.28,2.97,21.88,9.07,27.2,2.03,1.88,5.16,3.28,8.28,3.28s6.25-1.41,8.28-3.28c5.78-5,9.07-18.13,9.07-27.04s-3.59-22.51-9.07-27.35c-2.03-1.88-5.16-3.28-8.28-3.28s-6.25,1.41-8.28,3.28Z"/><path class="cls-1" d="M227.88,97.06c-8.13,7.97-18.6,11.88-28.76,11.88s-20.63-3.91-28.76-11.88c-9.38-9.22-15.47-24.23-15.47-42.51s6.1-33.45,15.47-42.67c8.13-7.97,18.6-11.88,28.76-11.88s20.63,3.91,28.76,11.88c9.38,9.22,15.47,24.23,15.47,42.67s-6.1,33.29-15.47,42.51ZM190.84,27.51c-5.63,4.84-9.07,17.5-9.07,27.2,0,8.28,2.97,21.88,9.07,27.2,2.03,1.88,5.16,3.28,8.28,3.28s6.25-1.41,8.28-3.28c5.78-5,9.07-18.13,9.07-27.04s-3.59-22.51-9.07-27.35c-2.03-1.88-5.16-3.28-8.28-3.28s-6.25,1.41-8.28,3.28Z"/><path class="cls-1" d="M321.66,97.06c-8.13,7.97-18.6,11.88-28.76,11.88s-20.63-3.91-28.76-11.88c-9.38-9.22-15.47-24.23-15.47-42.51s6.1-33.45,15.47-42.67c8.13-7.97,18.6-11.88,28.76-11.88s20.63,3.91,28.76,11.88c9.38,9.22,15.47,24.23,15.47,42.67s-6.1,33.29-15.47,42.51Zm-37.04-69.55c-5.63,4.84-9.07,17.5-9.07,27.2,0,8.28,2.97,21.88,9.07,27.2,2.03,1.88,5.16,3.28,8.28,3.28s6.25-1.41,8.28-3.28c5.78-5,9.07-18.13,9.07-27.04s-3.59-22.51-9.07-27.35c-2.03-1.88-5.16-3.28-8.28-3.28s-6.25,1.41-8.28,3.28Z"/><path class="cls-1" d="M374.64,68.61l-28.29-31.88h32.51l12.03,14.38,12.35-14.38h32.35l-28.91,31.88,35.01,37.98h-33.13l-17.82-20.79-17.82,20.79h-33.13l34.85-37.98Z"/></g></g></g></svg>