<?xml version="1.0" encoding="UTF-8"?><svg id="Capa_2" xmlns="http://www.w3.org/2000/svg" viewBox="0 0 57.05 60.26"><defs><style>.cls-1{fill:none;stroke:#1a1a1a;stroke-miterlimit:10;stroke-width:4px;}</style></defs><g id="main"><g><path class="cls-1" d="M35.3,48.39c0,5.45,4.42,9.87,9.87,9.87s9.87-4.42,9.87-9.87-4.42-9.87-9.87-9.87-9.87,4.42-9.87,9.87"/><path class="cls-1" d="M2,30.13c0,5.45,4.42,9.87,9.87,9.87s9.87-4.42,9.87-9.87-4.42-9.87-9.87-9.87S2,24.68,2,30.13"/><path class="cls-1" d="M35.3,11.87c0,5.45,4.42,9.87,9.87,9.87s9.87-4.42,9.87-9.87-4.42-9.87-9.87-9.87-9.87,4.42-9.87,9.87"/></g></g></svg>