<?xml version="1.0" encoding="UTF-8"?><svg id="Capa_2" xmlns="http://www.w3.org/2000/svg" viewBox="0 0 66.05 73"><defs><style>.cls-1{fill:#1a1a1a;}</style></defs><g id="main"><g><path class="cls-1" d="M33.94,51.39c3.59,4.2,6.7,8.88,6.7,10.91,0,3.68-3,6.69-6.68,6.7h0s-.05,0-.08,0c-3.66-.03-6.64-3.04-6.64-6.7,0-2.02,3.11-6.7,6.7-10.91m0-5.93s-10.7,10.93-10.7,16.84,4.74,10.65,10.61,10.7h.13c5.89-.02,10.67-4.8,10.67-10.7s-10.7-16.84-10.7-16.84h0Z"/><path class="cls-1" d="M33.94,5.93c3.59,4.2,6.7,8.88,6.7,10.9,0,3.68-3,6.69-6.68,6.7h0s-.05,0-.08,0c-3.66-.03-6.64-3.04-6.64-6.7,0-2.02,3.11-6.7,6.7-10.9m0-5.93s-10.7,10.93-10.7,16.84,4.74,10.65,10.61,10.7h.13c5.89-.02,10.67-4.8,10.67-10.7S33.94,0,33.94,0h0Z"/><path class="cls-1" d="M10.7,29.17c3.59,4.2,6.7,8.88,6.7,10.9,0,3.68-3,6.69-6.68,6.7h0s-.05,0-.08,0c-3.66-.03-6.64-3.04-6.64-6.7,0-2.02,3.11-6.7,6.7-10.9m0-5.93S0,34.17,0,40.08s4.74,10.65,10.61,10.7h.13c5.89-.02,10.67-4.8,10.67-10.7S10.7,23.24,10.7,23.24h0Z"/><path class="cls-1" d="M55.35,29.17c3.59,4.2,6.7,8.88,6.7,10.9,0,3.68-3,6.69-6.68,6.7h0s-.05,0-.08,0c-3.66-.03-6.64-3.04-6.64-6.7,0-2.02,3.11-6.7,6.7-10.9m0-5.93s-10.7,10.93-10.7,16.84,4.74,10.65,10.61,10.7h.13c5.89-.02,10.67-4.8,10.67-10.7s-10.7-16.84-10.7-16.84h0Z"/></g></g></svg>