<?xml version="1.0" encoding="UTF-8"?><svg id="Capa_2" xmlns="http://www.w3.org/2000/svg" viewBox="0 0 78.28 78.29"><defs><style>.cls-1{fill:#fff;}.cls-2{fill:#1a1a1a;}</style></defs><g id="main"><g><path class="cls-2" d="M39.14,0C17.56,0,0,17.56,0,39.14c0,10.08,3.83,19.28,10.12,26.23,.02,.03,.03,.07,.07,.1,.01,.01,.03,.02,.04,.03,7.17,7.86,17.47,12.79,28.92,12.79,21.58,0,39.14-17.56,39.14-39.15S60.73,0,39.14,0"/><path class="cls-1" d="M39.14,2.93c19.97,0,36.22,16.25,36.22,36.21s-16.25,36.21-36.22,36.21c-5.17,0-10.17-1.07-14.86-3.19-4.52-2.04-8.53-4.95-11.89-8.64l-.05-.06s-.04-.04-.05-.07c-6.03-6.67-9.35-15.28-9.35-24.26C2.93,19.17,19.17,2.93,39.14,2.93"/><path class="cls-2" d="M49.67,19.75c-2.22-1.21-4.67-2.03-7.17-2.41-2.51-.38-5.08-.33-7.57,.15-2.49,.48-4.89,1.4-7.06,2.7-2.19,1.29-4.13,2.97-5.74,4.92-.78,.94-1.48,1.94-2.08,3-.66,1.14-1.22,2.33-1.66,3.58-.85,2.38-1.29,4.92-1.29,7.45s.44,5.07,1.29,7.46c.44,1.23,1.01,2.43,1.66,3.57,.61,1.05,1.31,2.06,2.08,3,1.61,1.96,3.56,3.63,5.74,4.93,2.17,1.29,4.58,2.21,7.06,2.69,2.49,.49,5.06,.54,7.57,.15,2.5-.39,4.94-1.21,7.17-2.41,2.23-1.21,4.24-2.81,5.94-4.7,1.01-1.13,1.9-2.35,2.64-3.67,.51-.88,.97-1.81,1.35-2.76l-10.23-4.14c-1.63,4.04-5.6,6.89-10.23,6.89-6.09,0-11.03-4.94-11.03-11.03s4.94-11.03,11.03-11.03c4.63,0,8.6,2.85,10.23,6.89l10.23-4.14c-.38-.95-.84-1.87-1.35-2.76-.75-1.31-1.64-2.54-2.64-3.67-1.69-1.88-3.71-3.49-5.94-4.69"/><path class="cls-2" d="M21.6,62.83l2.65,1.97c-.75,1.02-1.5,1.59-2.54,1.7-.91,.1-1.64-.21-2.3-.69-.92-.69-1.31-1.5-1.41-2.23-.1-.67,0-1.56,.63-2.41,.61-.82,1.43-1.26,2.2-1.36,.74-.11,1.66,.05,2.57,.72,.48,.36,.92,.85,1.14,1.38,.22,.55,.25,1.2,.13,1.74l-1.66-.42c.08-.31,.07-.59,.01-.79-.09-.36-.27-.6-.53-.79-.32-.23-.73-.36-1.15-.29-.52,.08-1.02,.45-1.32,.85-.36,.47-.46,.98-.42,1.41,.05,.45,.26,.8,.65,1.09,.23,.17,.54,.33,.92,.31,.2-.01,.48-.09,.74-.34l-1.1-.81,.78-1.04Z"/><path class="cls-2" d="M30.06,64.25c.45,.17,1,.45,1.27,1.08,.21,.48,.19,1.06,.01,1.54-.19,.51-.54,.9-.95,1.08-.32,.14-.68,.15-.98,.11l.97,3.16-1.93-.72-.64-2.86-.86,2.31-1.56-.58,2.23-6.01,2.44,.91Zm-1.88,2.37l.3,.11c.23,.09,.59,.14,.85,.03,.16-.07,.32-.24,.38-.43,.07-.17,.07-.4-.02-.58-.09-.2-.32-.39-.66-.51l-.3-.11-.56,1.49Z"/><path class="cls-2" d="M39.48,71.53c-.69,.58-1.64,.85-2.58,.79-.95-.07-1.85-.45-2.47-1.13-.63-.69-.9-1.61-.85-2.45,.06-.85,.45-1.74,1.17-2.33,.7-.58,1.64-.85,2.59-.78,.95,.06,1.85,.45,2.46,1.12,.64,.68,.91,1.61,.85,2.46-.06,.85-.44,1.72-1.17,2.32m-3.58-3.87c-.37,.32-.56,.78-.59,1.22-.04,.57,.2,.98,.43,1.22,.28,.32,.71,.56,1.26,.6,.57,.04,1.01-.13,1.32-.42,.32-.27,.57-.7,.61-1.19,.03-.5-.16-.96-.44-1.26-.33-.36-.81-.57-1.26-.6-.46-.03-.96,.1-1.33,.42"/><polygon class="cls-2" points="43.63 65.64 45.86 69.31 46 64.95 47.28 64.57 49.65 68.2 49.65 63.89 51.33 63.39 51.15 70.13 49.52 70.61 47.36 67.37 47.22 71.28 45.59 71.75 41.96 66.13 43.63 65.64"/><polygon class="cls-2" points="56.22 67.69 52.42 62.53 53.76 61.54 58.56 62.88 56.24 59.72 57.57 58.73 61.38 63.9 60.04 64.89 55.24 63.55 57.56 66.71 56.22 67.69"/><path class="cls-2" d="M20.27,19.76c-.25,.66-.43,.99-.69,1.31-.73,.85-1.61,1.2-2.34,1.26-.88,.07-1.77-.23-2.41-.78-.69-.59-1.1-1.45-1.17-2.27-.07-.81,.16-1.73,.81-2.5,.2-.23,.56-.58,1.22-.93l1.51,1.29c-.85-.02-1.29,.44-1.47,.65-.32,.37-.44,.74-.43,1.16,.03,.54,.3,.98,.64,1.28,.34,.28,.82,.46,1.28,.42,.38-.04,.81-.26,1.11-.62,.17-.19,.55-.68,.44-1.54l1.5,1.28Z"/><path class="cls-2" d="M25.27,15.16c-.17,.89-.74,1.69-1.51,2.24-.78,.55-1.72,.82-2.62,.69-.94-.14-1.72-.68-2.21-1.37-.5-.7-.75-1.62-.57-2.55,.17-.89,.74-1.69,1.51-2.25,.77-.55,1.72-.82,2.61-.69,.93,.13,1.73,.68,2.22,1.38,.49,.69,.74,1.61,.56,2.54m-5.22-.74c-.09,.48,.05,.96,.32,1.32,.33,.46,.78,.63,1.1,.68,.43,.07,.9-.02,1.35-.34,.46-.33,.69-.74,.76-1.15,.07-.42,0-.91-.29-1.31-.29-.41-.73-.64-1.14-.7-.49-.07-.99,.07-1.34,.33-.38,.27-.68,.69-.76,1.17"/><polygon class="cls-2" points="26.6 8.39 28.51 13.02 30.35 12.26 30.89 13.56 27.51 14.96 25.06 9.03 26.6 8.39"/><path class="cls-2" d="M36.82,11.53c-.54,.73-1.39,1.21-2.33,1.38-.93,.16-1.91,0-2.65-.5-.79-.52-1.27-1.35-1.41-2.19-.15-.84,.02-1.79,.57-2.54,.54-.73,1.39-1.22,2.33-1.38s1.91,0,2.66,.5c.79,.51,1.27,1.35,1.41,2.19,.15,.84-.02,1.77-.57,2.53m-4.41-2.91c-.28,.39-.36,.89-.28,1.33,.1,.56,.44,.9,.71,1.09,.36,.24,.82,.38,1.37,.28,.56-.1,.94-.37,1.19-.72,.24-.34,.38-.82,.3-1.3-.09-.49-.38-.89-.73-1.13-.4-.27-.92-.35-1.35-.27-.46,.08-.91,.32-1.2,.73"/><path class="cls-2" d="M41.97,6.05c.48,.04,1.09,.16,1.52,.69,.34,.4,.48,.97,.44,1.48-.04,.55-.27,1.01-.61,1.29-.27,.22-.61,.34-.91,.37l1.8,2.78-2.07-.16-1.4-2.58-.19,2.46-1.66-.13,.5-6.4,2.59,.2Zm-1.15,2.8l.32,.02c.25,.02,.61-.02,.82-.2,.13-.11,.23-.32,.25-.52,.02-.19-.05-.41-.18-.56-.14-.16-.42-.28-.78-.31l-.32-.02-.12,1.58Z"/><path class="cls-2" d="M48.84,12.98l-2.21-.72-.75,.89-1.68-.54,4.33-5.35,1.73,.56,.31,6.85-1.69-.55-.04-1.15Zm-.03-1.34l-.04-2.2-1.31,1.76,1.35,.44Z"/><path class="cls-2" d="M51.09,15.02l3.41-5.43,1.85,1.16c.55,.34,1.41,.99,1.69,2.11,.25,1.01-.13,1.87-.49,2.46-.45,.72-1.03,1.23-1.9,1.44-.7,.16-1.67,.09-2.59-.49l-1.97-1.24Zm2.16-.31l.28,.18c.34,.21,.84,.49,1.43,.36,.29-.06,.74-.25,1.12-.85,.32-.5,.44-1.04,.32-1.46-.14-.51-.55-.82-.91-1.05l-.34-.21-1.91,3.04Z"/><path class="cls-2" d="M61.09,22.27c-.9-.05-1.76-.51-2.41-1.21-.64-.7-1.04-1.6-1.02-2.51,.02-.95,.45-1.79,1.08-2.37,.63-.58,1.52-.95,2.45-.89,.91,.06,1.77,.52,2.41,1.22,.64,.7,1.03,1.6,1.02,2.51-.01,.94-.45,1.79-1.08,2.37-.63,.57-1.51,.94-2.45,.88m.08-5.27c-.48-.03-.94,.17-1.27,.48-.42,.38-.52,.85-.53,1.18-.01,.43,.13,.89,.5,1.3,.39,.42,.82,.6,1.24,.61,.42,.02,.9-.12,1.26-.45,.37-.34,.54-.8,.55-1.21,0-.49-.2-.97-.5-1.29-.31-.34-.76-.59-1.25-.61"/><rect class="cls-2" x="3.27" y="25.27" width="19.39" height="2.93"/><rect class="cls-2" x="56.06" y="25.27" width="18.13" height="2.93"/><rect class="cls-2" x="3.27" y="50.17" width="19.6" height="2.93"/><rect class="cls-2" x="56.06" y="50.17" width="18.13" height="2.93"/></g></g></svg>