<?xml version="1.0" encoding="UTF-8"?><svg id="Capa_2" xmlns="http://www.w3.org/2000/svg" viewBox="0 0 78.28 78.28"><defs><style>.cls-1{fill:#fff;}.cls-2{fill:#1a1a1a;}</style></defs><g id="main"><g><path class="cls-2" d="M39.14,0C17.56,0,0,17.56,0,39.14c0,10.08,3.83,19.28,10.11,26.23,.03,.03,.04,.07,.07,.1,.01,.01,.03,.02,.04,.03,7.16,7.86,17.47,12.79,28.92,12.79,21.58,0,39.14-17.56,39.14-39.14S60.73,0,39.14,0"/><path class="cls-1" d="M39.14,2.93c19.97,0,36.21,16.25,36.21,36.21s-16.25,36.21-36.21,36.21c-5.17,0-10.17-1.07-14.86-3.19-4.53-2.04-8.53-4.95-11.89-8.64l-.05-.07s-.04-.04-.05-.06c-6.03-6.66-9.35-15.28-9.35-24.26C2.93,19.17,19.17,2.93,39.14,2.93"/><path class="cls-2" d="M8.97,52.3c-.45-.55-.64-.86-.78-1.25-.37-1.06-.23-1.99,.08-2.67,.38-.8,1.09-1.41,1.88-1.69,.86-.31,1.81-.22,2.56,.13,.73,.34,1.41,1.01,1.75,1.95,.1,.29,.22,.78,.19,1.52l-1.88,.67c.45-.73,.27-1.34,.19-1.61-.16-.45-.42-.75-.79-.95-.48-.25-1.01-.23-1.43-.09-.42,.15-.81,.48-1,.91-.16,.34-.19,.82-.02,1.27,.08,.23,.31,.8,1.12,1.15l-1.86,.66Z"/><path class="cls-2" d="M17.18,54.09c.27,.39,.55,.95,.4,1.62-.11,.51-.46,.97-.9,1.26-.45,.31-.96,.42-1.39,.33-.34-.08-.64-.27-.86-.49l-1.06,3.14-1.15-1.72,1.15-2.7-2.04,1.38-.93-1.38,5.33-3.58,1.45,2.16Zm-2.91,.82l.17,.27c.14,.21,.39,.46,.67,.52,.17,.03,.4-.01,.57-.13,.16-.1,.3-.29,.32-.49,.04-.21-.03-.5-.24-.8l-.17-.27-1.32,.88Z"/><path class="cls-2" d="M21.01,58.57l-2.46,2.89c-.17,.2-.44,.52-.39,.97,.02,.26,.18,.56,.4,.75,.22,.19,.52,.29,.76,.28,.51,0,.81-.37,1.05-.64l2.37-2.78,1.27,1.08-2.4,2.8c-.44,.51-.91,1.03-1.89,1.11-.77,.07-1.45-.18-2.13-.76-.77-.66-1.09-1.39-1.12-1.97-.03-.82,.45-1.49,.89-2.02l2.4-2.8,1.26,1.08Z"/><polygon class="cls-2" points="28.58 65.1 26.8 64.22 26.33 65.18 28.01 66.01 27.39 67.28 25.71 66.45 25.22 67.44 27 68.32 26.38 69.58 23.1 67.97 25.93 62.22 29.2 63.83 28.58 65.1"/><polygon class="cls-2" points="33.34 66.49 32.17 71.36 30.55 70.96 31.73 66.1 30.4 65.78 30.73 64.4 35 65.44 34.67 66.82 33.34 66.49"/><polygon class="cls-2" points="38.37 65.65 38.22 70.65 40.21 70.72 40.17 72.13 36.51 72.02 36.7 65.6 38.37 65.65"/><polygon class="cls-2" points="43.56 68.69 40.7 65.81 42.65 65.46 44.15 66.98 45 65.04 46.98 64.69 45.21 68.4 45.74 71.43 44.11 71.72 43.56 68.69"/><rect class="cls-2" x="49.21" y="66.7" width="2.43" height="1.28" transform="translate(-21.35 23.46) rotate(-21.73)"/><polygon class="cls-2" points="55.93 61.58 54.24 62.67 54.82 63.56 56.35 62.58 57.12 63.77 55.58 64.76 56.94 66.89 55.54 67.78 52.07 62.38 55.17 60.39 55.93 61.58"/><path class="cls-2" d="M58.46,57.35c.33-.35,.82-.74,1.5-.74,.52,0,1.05,.26,1.41,.61,.4,.39,.61,.86,.61,1.3,0,.34-.13,.69-.3,.94l3.29,.38-1.44,1.49-2.88-.56,1.78,1.7-1.16,1.2-4.62-4.46,1.81-1.87Zm1.42,2.67l.22-.22c.17-.18,.37-.49,.38-.76,0-.17-.09-.39-.24-.52-.14-.14-.34-.22-.54-.21-.22,0-.48,.14-.74,.4l-.22,.23,1.14,1.1Z"/><polygon class="cls-2" points="64.29 51.59 63.28 53.29 64.2 53.84 65.15 52.22 66.38 52.94 65.42 54.55 66.37 55.12 67.38 53.41 68.6 54.13 66.74 57.27 61.22 54.01 63.07 50.87 64.29 51.59"/><polygon class="cls-2" points="66.37 46.01 65.74 47.89 66.75 48.23 67.35 46.45 68.69 46.89 68.1 48.67 69.15 49.02 69.77 47.14 71.12 47.59 69.97 51.05 63.87 49.03 65.03 45.57 66.37 46.01"/><path class="cls-2" d="M35.11,15.91c.04,.72-.04,1.51-.25,2.42-.49,2.17-1.42,4.32-2.84,6.55-1.39,2.18-.67,4.01-.12,4.91,.08,.14,.18,.31,.27,.48,.19,.34,.41,.73,.68,1.13,1.65,2.38,3.82,3.58,6.45,3.58,.55,0,1.13-.06,1.72-.17,.63-.11,1.26-.17,1.87-.17,1.68,0,3.28,.43,4.75,1.28,1.99,1.14,3.22,3,3.89,5.86,.29,1.22,.42,2.34,.4,3.41-.02,1.05,.3,1.92,.93,2.57,.6,.6,1.38,.93,2.24,.93,.36,0,.7-.05,1.07-.17-.08,.71-.23,1.33-.49,1.9-.44,.96-1.23,1.48-2.23,1.48-.1,0-.2,0-.3-.02-.19-.02-.37-.02-.55-.02-1.04,0-1.98,.31-2.86,.93-1,.72-2.17,1.1-3.49,1.13-.84,.02-1.74,.03-2.81,.03-.85,0-1.73,0-2.58-.01-.33,0-.67,0-1.01,0,.34-1.96-.73-3.57-2.72-4.05l-.07-.02c-.58-.14-1.08-.26-1.66-.26-1.91,0-2.83,1.25-3.51,2.15-.6,.8-1.34,1.4-2.13,1.75,.04-.04,.08-.09,.11-.13,.52-.62,1.6-1.93,1.35-3.69-.25-1.76-1.64-2.71-2.31-3.16-1.66-1.12-2.39-3-1.78-4.57,.07-.16,.2-.41,.34-.67,.06-.1,.11-.2,.16-.3,.33-.61,1.02-1.87,.39-3.35-.63-1.46-2-1.84-2.66-2.02-1.3-.36-2.13-.86-2.7-1.66-.38-.52-.32-.67-.09-1.05,1.31-2.16,2.94-4.16,5.02-6.1,1.12-1.05,1.61-2.26,1.54-3.82-.11-2.1,.29-4.05,1.2-5.93,.53,.34,1.12,.52,1.76,.52,.1,0,.2,0,.3-.02,1.4-.13,2.19-1.08,2.52-1.47,.02-.02,.03-.04,.04-.05,.04-.03,.08-.07,.12-.1m1.24-3.9c-.2,0-.42,.05-.69,.17-.99,.4-1.88,.99-2.68,1.7-.28,.25-.53,.72-.82,.75h-.03c-.37,0-.51-.56-.83-.79-.18-.12-.34-.28-.52-.39-.38-.22-.68-.34-.94-.34-.38,0-.68,.25-1.04,.79-1.84,2.8-2.73,5.87-2.56,9.21,.03,.67-.1,1.08-.61,1.54-2.13,1.99-4.02,4.22-5.53,6.74-.89,1.48-.78,2.88,.22,4.28,1.08,1.49,2.58,2.3,4.32,2.76,.89,.24,.91,.31,.45,1.14-.22,.44-.48,.86-.66,1.32-1.1,2.86,.08,6.16,2.87,8.05,1.32,.89,1.38,1.32,.36,2.56-.21,.25-.44,.49-.68,.7-.72,.67-1.51,1.24-2.32,1.81-.8,.57-.78,1.31,.08,1.81,.46,.28,.97,.51,1.49,.66,.64,.2,1.3,.29,1.95,.29,2.28,0,4.52-1.17,6.09-3.28,.54-.72,.73-.97,1.16-.97,.24,0,.56,.08,1.05,.2,.51,.12,.62,.28,.49,.81-.43,1.79,.77,3.31,2.58,3.32,1.31,0,2.62,.02,3.92,.02,.97,0,1.92,0,2.88-.03,1.86-.04,3.61-.58,5.13-1.68,.38-.28,.73-.39,1.15-.39,.08,0,.17,0,.26,.02,.2,.02,.39,.02,.58,.02,2.15,0,3.98-1.2,4.89-3.2,.64-1.42,.84-2.93,.79-4.46,0-.49,0-.98,0-1.47-.02-.79-.34-1.21-.89-1.21-.21,0-.45,.06-.73,.18-.69,.32-1.39,.64-2.07,.99-.15,.08-.27,.11-.36,.11-.19,0-.25-.17-.24-.51,.03-1.4-.16-2.78-.48-4.14-.76-3.26-2.29-6.01-5.28-7.72-1.95-1.12-4.06-1.67-6.21-1.67-.79,0-1.6,.08-2.4,.22-.42,.08-.82,.11-1.2,.11-1.73,0-2.99-.81-4.04-2.32-.33-.46-.57-.99-.87-1.48-.39-.63-.3-1.19,.1-1.81,1.46-2.32,2.61-4.78,3.21-7.46,.48-2.08,.54-4.16-.41-6.16-.26-.55-.54-.8-.95-.8"/></g></g></svg>