<?xml version="1.0" encoding="UTF-8"?><svg id="Capa_2" xmlns="http://www.w3.org/2000/svg" viewBox="0 0 26.7 29.84"><defs><style>.cls-1{fill:#1a1a1a;}</style></defs><g id="main"><g><path class="cls-1" d="M14.49,3.02c.91,1.14,1.58,2.22,1.62,2.67,0,.89-.72,1.62-1.61,1.62h-.03c-.89,0-1.61-.74-1.61-1.61,.04-.46,.72-1.55,1.62-2.69m0-3.02s-3.62,3.7-3.62,5.7,1.6,3.61,3.59,3.62h.04c2,0,3.61-1.63,3.61-3.62S14.49,0,14.49,0h0Z"/><path class="cls-1" d="M22.41,9.69c1.29,1.57,2.29,3.16,2.3,3.76,0,1.25-1,2.26-2.28,2.29h-.03c-1.25-.01-2.27-1.04-2.27-2.29,0-.61,.99-2.18,2.29-3.76m0-3s-4.29,4.38-4.29,6.76,1.9,4.27,4.26,4.29h.05c2.36,0,4.28-1.93,4.28-4.29s-4.29-6.76-4.29-6.76h0Z"/><path class="cls-1" d="M15.65,20.73c1.53,1.83,2.7,3.7,2.7,4.41,0,1.47-1.18,2.67-2.68,2.7h-.05c-1.48-.01-2.68-1.23-2.68-2.7,0-.72,1.17-2.58,2.7-4.41m0-2.98s-4.7,4.8-4.7,7.4,2.08,4.68,4.66,4.7h.06c2.59,0,4.69-2.11,4.69-4.7s-4.7-7.4-4.7-7.4h0Z"/><path class="cls-1" d="M5.47,9.55c1.86,2.17,3.47,4.59,3.47,5.65,0,1.89-1.53,3.44-3.46,3.47h-.04c-1.9-.02-3.44-1.57-3.44-3.47,0-1.05,1.62-3.48,3.47-5.65m0-2.96S0,12.18,0,15.2s2.42,5.45,5.42,5.47h.07c3.01-.01,5.45-2.46,5.45-5.47S5.47,6.59,5.47,6.59h0Z"/></g></g></svg>