<?xml version="1.0" encoding="UTF-8"?><svg id="Capa_2" xmlns="http://www.w3.org/2000/svg" viewBox="0 0 78.28 78.28"><defs><style>.cls-1{fill:#fff;}.cls-2{fill:#1a1a1a;}</style></defs><g id="main"><g><path class="cls-2" d="M39.14,0C17.56,0,0,17.56,0,39.14c0,10.08,3.83,19.28,10.11,26.23,.03,.03,.04,.07,.07,.1,.01,.01,.03,.02,.04,.03,7.16,7.86,17.47,12.79,28.92,12.79,21.58,0,39.14-17.56,39.14-39.14S60.73,0,39.14,0"/><path class="cls-1" d="M39.14,2.93c19.97,0,36.21,16.25,36.21,36.21s-16.25,36.21-36.21,36.21c-5.17,0-10.17-1.07-14.86-3.19-4.53-2.04-8.53-4.95-11.89-8.64l-.06-.07s-.03-.04-.05-.06c-6.03-6.66-9.35-15.28-9.35-24.26C2.93,19.17,19.17,2.93,39.14,2.93"/><polygon class="cls-2" points="19.78 59.58 18.42 58.1 17.63 58.81 18.87 60.16 17.83 61.12 16.59 59.78 14.73 61.49 13.61 60.26 18.33 55.91 20.82 58.62 19.78 59.58"/><path class="cls-2" d="M24.38,61.34c.4,.27,.87,.68,.98,1.35,.1,.52-.07,1.08-.35,1.51-.31,.45-.74,.74-1.17,.82-.34,.06-.7-.01-.98-.13l.19,3.3-1.71-1.16,.06-2.93-1.38,2.04-1.38-.93,3.59-5.31,2.15,1.45Zm-2.39,1.86l.27,.18c.2,.14,.54,.28,.81,.23,.17-.03,.37-.16,.48-.32,.11-.16,.16-.38,.12-.57-.04-.21-.22-.45-.52-.66l-.26-.17-.89,1.31Z"/><rect class="cls-2" x="24.56" y="65.93" width="6.42" height="1.67" transform="translate(-44.53 67.09) rotate(-67.67)"/><polygon class="cls-2" points="35.27 67.01 33.33 66.6 33.11 67.64 34.95 68.03 34.66 69.41 32.83 69.03 32.6 70.11 34.54 70.52 34.25 71.9 30.68 71.16 31.99 64.87 35.56 65.62 35.27 67.01"/><polygon class="cls-2" points="37.81 72.32 37.46 65.92 39.12 65.83 42.4 69.58 42.18 65.65 43.84 65.57 44.2 71.97 42.54 72.06 39.26 68.31 39.47 72.23 37.81 72.32"/><path class="cls-2" d="M48.13,71.08l-2.23-6.03,2.05-.76c.61-.22,1.64-.51,2.7-.05,.95,.42,1.4,1.23,1.64,1.88,.3,.8,.36,1.57-.02,2.38-.3,.65-.94,1.38-1.97,1.76l-2.18,.81Zm1.07-1.91l.32-.11c.38-.14,.9-.38,1.16-.92,.13-.27,.25-.74,0-1.41-.21-.56-.56-.98-.96-1.15-.5-.2-1-.06-1.39,.08l-.38,.14,1.25,3.37Z"/><polygon class="cls-2" points="54.21 61.13 57.03 65.27 58.68 64.15 59.48 65.32 56.44 67.38 52.84 62.07 54.21 61.13"/><polygon class="cls-2" points="60.2 60.53 56.19 59.89 57.57 58.45 59.67 58.8 59.21 56.74 60.61 55.28 61.36 59.33 63.58 61.46 62.42 62.67 60.2 60.53"/><polygon class="cls-2" points="8.21 31.78 7.88 33.74 8.94 33.92 9.24 32.06 10.64 32.3 10.33 34.15 11.42 34.34 11.75 32.38 13.14 32.62 12.54 36.22 6.21 35.14 6.82 31.54 8.21 31.78"/><polygon class="cls-2" points="13.61 30.57 7.81 27.83 8.51 26.33 13.37 25.23 9.83 23.55 10.54 22.04 16.34 24.78 15.63 26.29 10.77 27.39 14.32 29.07 13.61 30.57"/><polygon class="cls-2" points="13.79 17.69 17.7 19.21 15.89 15.42 17.12 14.09 19.97 20.45 19.09 21.41 12.55 19.02 13.79 17.69"/><rect class="cls-2" x="21.39" y="11.17" width="1.66" height="6.42" transform="translate(-4.24 15.11) rotate(-34.49)"/><path class="cls-2" d="M26.78,8.32c.44-.19,1.04-.35,1.67-.07,.48,.21,.86,.65,1.05,1.13,.21,.5,.21,1.02,.04,1.43-.14,.32-.39,.58-.65,.75l2.86,1.67-1.91,.79-2.42-1.67,.94,2.28-1.54,.63-2.45-5.93,2.4-.99Zm.23,3.02l.29-.12c.23-.1,.54-.29,.65-.55,.07-.16,.07-.39-.01-.58-.08-.17-.22-.34-.41-.41-.2-.09-.5-.07-.84,.07l-.29,.12,.6,1.47Z"/><path class="cls-2" d="M39.08,11.43c-.6,.69-1.49,1.1-2.44,1.19-.95,.09-1.9-.15-2.61-.72-.74-.59-1.15-1.45-1.23-2.29-.08-.86,.17-1.79,.79-2.49,.59-.68,1.48-1.1,2.43-1.19,.95-.09,1.9,.15,2.61,.72,.73,.58,1.15,1.45,1.22,2.31,.08,.84-.16,1.76-.78,2.47m-4.15-3.26c-.32,.37-.43,.85-.39,1.3,.05,.57,.36,.93,.62,1.14,.33,.27,.79,.44,1.34,.39,.57-.05,.97-.29,1.24-.62,.27-.32,.45-.79,.4-1.27-.05-.5-.31-.92-.63-1.18-.39-.3-.89-.43-1.33-.39-.46,.04-.93,.25-1.25,.63"/><polygon class="cls-2" points="42.19 12.33 43.67 6.08 45.28 6.47 47.37 10.99 48.27 7.17 49.89 7.56 48.42 13.8 46.8 13.42 44.71 8.9 43.81 12.71 42.19 12.33"/><polygon class="cls-2" points="50.32 14.47 54.74 9.68 56.11 10.58 55.33 14.16 58.35 12.04 59.75 12.95 57.05 18.85 55.66 17.94 57.28 14.59 53.97 16.84 53.41 16.48 54.19 12.57 51.71 15.37 50.32 14.47"/><polygon class="cls-2" points="64.57 20.01 63.28 18.5 62.46 19.19 63.68 20.62 62.61 21.54 61.39 20.11 60.55 20.82 61.83 22.33 60.76 23.25 58.39 20.47 63.28 16.32 65.64 19.09 64.57 20.01"/><polygon class="cls-2" points="62.03 24.92 67.85 22.22 68.55 23.73 66.28 28.17 69.84 26.51 70.54 28.02 64.72 30.73 64.02 29.21 66.28 24.78 62.73 26.43 62.03 24.92"/><polygon class="cls-2" points="70.55 34.64 65.62 35.46 65.34 33.82 70.28 32.99 70.05 31.65 71.45 31.42 72.17 35.75 70.78 35.99 70.55 34.64"/><path class="cls-2" d="M51.04,37.21h0m6.05-12.97h-.02c-9.07,.04-16.98,6.29-19.03,15.1-.32,1.34-.43,2.72-.5,4.19-.58-.45-.81-.91-.81-1.58,0-8.28-6.69-14.52-14.5-14.52-1.26,0-2.56,.16-3.86,.5-.45,.13-.6,.32-.63,.79-.34,4.91,1.21,9.11,4.91,12.37,2.71,2.39,5.84,3.56,9.29,3.56,.75,0,1.52-.05,2.3-.16,.15-.02,.27-.03,.4-.03,.45,0,.77,.16,1.1,.63,2.5,3.57,4.05,7.4,4.8,11.44,.68,3.99,1.37,4.68,1.86,4.68,.22,0,.4-.13,.53-.18,.38-.13,1.02-.1-.26-5.4-.13-.65-.27-1.29-.4-1.93-.16-.78-.33-1.57-.34-2.38,0-.5,.11-.72,.66-.79,2.25-.28,4.39-.95,6.39-2.02,5.45-2.94,8.86-7.44,10.12-13.52,.67-3.24,.38-6.45-.5-9.62-.23-.86-.61-1.13-1.5-1.13m-16.77,23.39c-.69-3-.61-5.84,.22-8.68,2.01-6.91,8.19-11.89,15.34-12.34,.09,0,.17-.01,.25-.01,.25,0,.43,.07,.52,.48,1.43,6.57-.23,12.2-5.09,16.84-2.28,2.19-5.04,3.5-8.12,4.15-.13,.03-.27,.09-.4,.09-.09,0-.17-.03-.22-.1-.17-.2,.04-.41,.14-.6,.49-1.07,1.11-2.05,1.81-2.98,1.9-2.53,3.82-5.04,5.73-7.58,.51-.68,.45-1.36-.1-1.77-.21-.15-.43-.23-.67-.23-.37,0-.75,.21-1.05,.62-2.84,3.97-6.26,7.52-8.35,12.12m-8.06-5.26c-.4,0-.79-.04-1.17-.08-6.04-.51-10.79-5.47-11.11-11.55-.04-.71,.2-.88,.83-.96,.49-.05,.98-.09,1.47-.09,5.77,0,10.96,4.23,11.93,10.06-.44-.22-.73-.6-1.07-.92-1.68-1.6-3.55-2.94-5.52-4.14-.26-.16-.52-.23-.77-.23-.38,0-.7,.17-.91,.51-.34,.52-.19,1.17,.38,1.59,.43,.31,.87,.59,1.31,.88,2.05,1.38,3.96,2.93,5.73,4.8-.39,.1-.76,.14-1.1,.14"/></g></g></svg>