<?xml version="1.0" encoding="UTF-8"?><svg id="Capa_2" xmlns="http://www.w3.org/2000/svg" viewBox="0 0 75.5 75.49"><defs><style>.cls-1{fill:#27a8e0;}.cls-2{fill:none;stroke:#27a8e0;stroke-miterlimit:10;stroke-width:2px;}</style></defs><g id="main"><g><path class="cls-2" d="M74.5,37.75C74.5,17.45,58.04,1,37.75,1S1,17.45,1,37.75s16.45,36.75,36.75,36.75,36.75-16.45,36.75-36.75Z"/><path class="cls-1" d="M25.5,38.78c2.58,2.28,5.66,3.14,9.08,2.66,.53-.08,.85,0,1.17,.47,1.96,2.8,3.17,5.8,3.76,8.96,.77,4.51,1.55,3.64,1.87,3.53,.3-.11,.8-.07-.2-4.23-.11-.51-.21-1.01-.32-1.51-.13-.62-.25-1.23-.26-1.87,0-.39,.09-.56,.52-.61,1.76-.22,3.44-.74,5-1.58,4.27-2.31,6.94-5.83,7.93-10.59,.53-2.54,.3-5.05-.39-7.54-.19-.67-.48-.88-1.2-.88-7.11,.03-13.31,4.93-14.91,11.83-.25,1.05-.34,2.13-.39,3.28-.45-.35-.63-.71-.63-1.24,0-7.53-7.08-12.92-14.38-10.97-.35,.09-.47,.24-.49,.61-.27,3.85,.95,7.13,3.85,9.68m14-1.67c1.57-5.41,6.41-9.31,12.02-9.67,.29-.02,.51-.05,.6,.36,1.12,5.14-.18,9.55-3.98,13.19-1.79,1.71-3.95,2.74-6.36,3.25-.16,.04-.37,.14-.5-.01-.13-.16,.04-.32,.11-.47,.38-.83,.88-1.6,1.42-2.33,1.48-1.98,2.99-3.95,4.48-5.93,.4-.53,.35-1.07-.07-1.39-.42-.32-.97-.22-1.35,.31-2.22,3.1-4.9,5.89-6.54,9.49-.54-2.35-.47-4.58,.17-6.8m-15.46-7.18c4.96-.62,9.67,2.86,10.5,7.8-.35-.17-.58-.47-.84-.72-1.31-1.25-2.78-2.3-4.32-3.24-.52-.32-1.04-.22-1.32,.21-.27,.41-.15,.92,.3,1.25,.34,.24,.68,.46,1.03,.69,1.61,1.08,3.1,2.3,4.49,3.76-.66,.18-1.22,.1-1.79,.05-4.73-.4-8.45-4.29-8.7-9.05-.03-.56,.16-.69,.65-.75"/></g></g></svg>