<?xml version="1.0" encoding="UTF-8"?><svg id="Capa_2" xmlns="http://www.w3.org/2000/svg" viewBox="0 0 75.5 75.49"><defs><style>.cls-1{fill:#27a8e0;}.cls-2{fill:none;stroke:#27a8e0;stroke-miterlimit:10;stroke-width:2px;}</style></defs><g id="main"><g><path class="cls-2" d="M74.5,37.75C74.5,17.45,58.04,1,37.75,1S1,17.45,1,37.75s16.45,36.75,36.75,36.75,36.75-16.45,36.75-36.75Z"/><path class="cls-1" d="M52.41,25.51c-.32-.5-.67-.65-1.23-.64-4.78,.02-9.55,.01-14.33,.01s-9.65,0-14.48,0c-.51,0-.82,.14-1.11,.58-1.68,2.58-3.39,5.14-5.12,7.69-.38,.57-.39,.98,.04,1.55,6.62,8.64,13.21,17.3,19.81,25.95,.67,.89,.98,.88,1.66,0,6.62-8.67,13.23-17.35,19.86-26.01,.39-.52,.37-.9,.02-1.41-1.73-2.55-3.44-5.11-5.12-7.69m-2.44,.74c-1.42,1.71-2.77,3.35-4.13,4.99-.37,.45-.75,.89-1.11,1.34-.15,.19-.26,.28-.47,.05-1.91-2.1-3.83-4.2-5.82-6.38h11.53Zm-12.87,.65c1.87,2.08,3.76,4.14,5.76,6.32h-12.17c.68-.74,1.29-1.4,1.89-2.06,1.28-1.39,2.56-2.78,3.84-4.18,.21-.23,.33-.47,.68-.09m-1.95-.65c-2.06,2.25-4.05,4.44-6.05,6.63-1.83-2.19-3.65-4.37-5.53-6.63h11.59Zm-13.07,.45c1.8,2.17,3.57,4.29,5.42,6.51h-9.74c1.46-2.2,2.87-4.32,4.32-6.51m12.8,30.29c-5.7-7.47-11.33-14.85-16.98-22.25,.28-.17,.54-.09,.77-.09,3.08,0,6.16,0,9.25-.01,.39,0,.62,.04,.75,.49,2.06,7.2,4.15,14.4,6.23,21.59,.01,.04,0,.1-.02,.26m1.91,1.08c-2.29-7.92-4.53-15.64-6.78-23.4h13.56c-2.25,7.76-4.48,15.47-6.78,23.4m2.01-1.28c-.05-.04-.1-.08-.16-.12,1.34-4.64,2.68-9.28,4.02-13.91,.73-2.52,1.46-5.04,2.18-7.56,.1-.33,.17-.56,.62-.55,3.36,.02,6.71,.01,10.27,.01-5.7,7.45-11.32,14.8-16.94,22.14m7.4-23.57c-.08-.27,.14-.36,.26-.5,1.54-1.87,3.09-3.73,4.65-5.59,.15-.17,.27-.58,.58-.11,1.34,2.03,2.7,4.06,4.12,6.2h-9.61Z"/><path class="cls-1" d="M44.48,22.63c.26,.18,.56,.2,.76-.03,.73-.86,1.19-1.9,1.67-2.75,.07-.48-.05-.75-.36-.88-.31-.13-.63-.08-.8,.2-.52,.85-1.03,1.72-1.51,2.6-.17,.31-.07,.64,.24,.86"/><path class="cls-1" d="M29.11,22.61c.25-.19,.36-.45,.24-.73-.43-.96-.98-1.86-1.57-2.73-.17-.25-.46-.3-.74-.18-.28,.12-.42,.34-.46,.76,.57,.93,.98,2.08,1.84,2.94,.18,.18,.47,.12,.7-.06"/><path class="cls-1" d="M36.79,20.6c.43-.01,.68-.3,.7-.74,.01-.45,0-.91,0-1.36h0c0-.48,.03-.96,0-1.43-.03-.43-.3-.7-.75-.68-.41,.02-.64,.29-.64,.69-.01,.93-.02,1.86,0,2.79,0,.44,.26,.73,.7,.72"/></g></g></svg>