<?xml version="1.0" encoding="utf-8"?>
<!-- Generator: Adobe Illustrator 26.3.1, SVG Export Plug-In . SVG Version: 6.00 Build 0)  -->
<svg version="1.1" id="Layer_1" xmlns="http://www.w3.org/2000/svg" xmlns:xlink="http://www.w3.org/1999/xlink" x="0px" y="0px"
	 viewBox="0 0 48 48" style="enable-background:new 0 0 48 48;" xml:space="preserve">
<style type="text/css">
	.st0{fill:#FFFFFF;}
</style>
<path class="st0" d="M24,29.1c-1.7,0-3.2-0.6-4.4-1.8c-1.2-1.2-1.8-2.6-1.8-4.4s0.6-3.2,1.8-4.4c1.2-1.2,2.6-1.8,4.4-1.8
	s3.2,0.6,4.4,1.8c1.2,1.2,1.8,2.6,1.8,4.4s-0.6,3.2-1.8,4.4C27.2,28.6,25.7,29.1,24,29.1z"/>
<polygon class="st0" points="24,23 24,23 24,23 24,23 24,23 24,23 24,23 "/>
<path class="st0" d="M24,37.5c-4.9,0-9.3-1.3-13.2-4S3.9,27.3,2,23c1.9-4.3,4.9-7.8,8.8-10.5s8.3-4,13.2-4s9.3,1.3,13.2,4
	S44.1,18.7,46,23c-1.9,4.3-4.9,7.8-8.8,10.5S28.9,37.5,24,37.5z M24,33.6c3.7,0,7.1-1,10.2-2.9s5.5-4.5,7.1-7.7
	c-1.6-3.2-4-5.8-7.1-7.7s-6.5-2.9-10.2-2.9s-7.1,1-10.2,2.9S8.3,19.8,6.7,23c1.6,3.2,4,5.8,7.1,7.7C16.9,32.7,20.3,33.6,24,33.6z"/>
</svg>
