<?xml version="1.0" encoding="UTF-8"?><svg id="Capa_2" xmlns="http://www.w3.org/2000/svg" viewBox="0 0 24.93 32.3"><defs><style>.cls-1{fill:#f15a24;}</style></defs><g id="main"><g><path class="cls-1" d="M18.81,29.84c.48-1.26,.68-2.64,.61-4.18-.17-3.82-4.92-6.5-5.12-6.61l-2.54-1.41,1.14,2.68c.05,.13,1.15,2.99-1.74,6.23-.18-1.11-.67-2.45-1.84-3.7l-.67-.72-.73,.67c-.09,.08-2.23,2.06-2.3,4.88-.02,.63,.07,1.25,.26,1.86C2.76,27.15-.19,23.41,1.49,18.23c.81-2.51,2.43-4.15,4.14-5.89,2.35-2.39,4.98-5.06,5.84-10.34,3.24,2.89,11.04,10.38,12.23,16.48,.9,4.64-.69,8.38-4.88,11.37Z"/><path class="cls-1" d="M12.09,3.9c3.97,3.72,9.68,9.94,10.62,14.76,.64,3.28-.12,6.08-2.3,8.46,.03-.49,.04-.99,.01-1.51-.19-4.3-5.08-7.13-5.64-7.44l-5.1-2.86,2.28,5.36c.09,.23,.57,1.7-.46,3.65-.34-.73-.81-1.47-1.46-2.17l-1.35-1.45-1.46,1.33c-.25,.22-2.29,2.16-2.59,5.05-2-2.11-3.36-4.96-2.2-8.55,.74-2.29,2.2-3.77,3.9-5.5,2.19-2.22,4.61-4.69,5.75-9.13m-1.4-3.9C9.94,10.47,2.72,11.17,.53,17.92c-2.5,7.72,4.4,12.5,7.65,14.27,.04,.02,.08,.03,.12,.03,.2,0,.34-.26,.17-.43-4.28-4.29,.1-8.28,.1-8.28,2.33,2.5,1.53,5.34,1.53,5.34,5.65-4.38,3.71-8.93,3.71-8.93,0,0,4.46,2.48,4.61,5.78,.12,2.59-.59,4.55-1.97,6.18-.15,.18,0,.41,.19,.41,.04,0,.08,0,.12-.03,7.64-4.05,8.82-9.33,7.91-13.99C23.09,10.14,10.69,0,10.69,0h0Z"/></g></g></svg>