<?xml version="1.0" encoding="UTF-8"?><svg id="Capa_2" xmlns="http://www.w3.org/2000/svg" xmlns:xlink="http://www.w3.org/1999/xlink" viewBox="0 0 24.93 32.3"><defs><style>.cls-1{filter:url(#drop-shadow-1);}.cls-2{fill:#1a1a1a;}</style><filter id="drop-shadow-1" filterUnits="userSpaceOnUse"><feOffset dx="0" dy="10"/><feGaussianBlur result="blur" stdDeviation="20"/><feFlood flood-color="#000" flood-opacity=".12"/><feComposite in2="blur" operator="in"/><feComposite in="SourceGraphic"/></filter></defs><g id="main"><g class="cls-1"><path class="cls-2" d="M12.09,3.9c3.97,3.72,9.68,9.94,10.62,14.76,.64,3.28-.12,6.08-2.3,8.46,.03-.49,.04-.99,.01-1.51-.19-4.3-5.08-7.13-5.64-7.44-.31-.17-.65-.26-.99-.26-.48,0-.95,.17-1.32,.5-.63,.57-.84,1.47-.51,2.25,.09,.23,.57,1.7-.46,3.65-.34-.73-.81-1.47-1.46-2.17-.39-.42-.93-.64-1.46-.64-.48,0-.96,.17-1.35,.52-.25,.22-2.29,2.16-2.59,5.04-2-2.11-3.36-4.96-2.2-8.55,.74-2.29,2.2-3.77,3.9-5.5,2.19-2.22,4.61-4.69,5.75-9.13m-1.4-3.9C9.94,10.47,2.72,11.17,.53,17.92c-2.5,7.72,4.4,12.5,7.65,14.27,.04,.02,.08,.03,.12,.03,.2,0,.34-.26,.17-.43-4.28-4.29,.1-8.28,.1-8.28,2.33,2.5,1.53,5.34,1.53,5.34,5.65-4.38,3.71-8.93,3.71-8.93,0,0,4.46,2.48,4.61,5.78,.12,2.59-.59,4.55-1.97,6.18-.15,.18,0,.41,.19,.41,.04,0,.08,0,.12-.03,7.64-4.05,8.82-9.33,7.91-13.99C23.09,10.14,10.69,0,10.69,0h0Z"/></g></g></svg>