<?xml version="1.0" encoding="UTF-8"?><svg id="Capa_2" xmlns="http://www.w3.org/2000/svg" viewBox="0 0 79.73 79.73"><defs><style>.cls-1{fill:#fff;}.cls-2{fill:#1a1a1a;}</style></defs><g id="main"><g><path class="cls-2" d="M39.86,0C17.89,0,0,17.88,0,39.86c0,10.26,3.9,19.63,10.3,26.71,.03,.03,.04,.07,.08,.1,.01,.01,.02,.02,.04,.02,7.29,8,17.79,13.03,29.45,13.03,21.98,0,39.86-17.89,39.86-39.86S61.84,0,39.86,0"/><path class="cls-1" d="M39.86,2.98c20.34,0,36.88,16.55,36.88,36.88s-16.54,36.88-36.88,36.88c-5.27,0-10.36-1.09-15.13-3.25-4.61-2.08-8.69-5.04-12.11-8.8l-.06-.07s-.03-.04-.05-.06c-6.14-6.8-9.52-15.56-9.52-24.7C2.98,19.53,19.52,2.98,39.86,2.98"/><path class="cls-2" d="M29.39,39h12.99v.27c0,3.18-1.14,8.01-4.04,11.03-2.91,3.02-6.24,3.57-9.34,3.57s-6.52-.51-9.57-3.65c-1.53-1.57-3.85-4.75-3.85-9.96,0-4.28,1.57-7.69,3.76-9.93,3.22-3.34,7.18-3.81,10.28-3.81,2.16,0,4.9,.36,7.34,1.96,1.76,1.18,3.29,3.02,4.23,4.67l-5.45,2.94c-.51-1.02-1.29-2.08-2.32-2.83-1.18-.86-2.51-1.25-4-1.25-2.39,0-4.16,.78-5.41,2.11-1.45,1.54-2.24,3.77-2.24,6.2,0,2.98,1.1,4.91,2.2,6,1.53,1.57,3.29,2.04,5.3,2.04,2.58,0,3.96-.9,4.55-1.41,.2-.15,1.37-1.17,1.88-3.1h-6.32v-4.87Z"/><polygon class="cls-2" points="61.92 32.21 52.14 32.21 52.14 37.28 61.82 37.28 61.82 42.37 52.14 42.37 52.14 53.28 46.1 53.28 46.1 27.11 61.92 27.11 61.92 32.21"/></g></g></svg>