<?xml version="1.0" encoding="UTF-8"?><svg id="Layer_2" xmlns="http://www.w3.org/2000/svg" viewBox="0 0 75.49 75.49"><defs><style>.cls-1{fill:#1a1a1a;}.cls-2{fill:none;stroke:#1a1a1a;stroke-miterlimit:10;stroke-width:2px;}</style></defs><g id="main"><g><path class="cls-2" d="M74.49,37.75C74.49,17.45,58.04,1,37.75,1S1,17.45,1,37.75s16.45,36.75,36.75,36.75,36.75-16.45,36.75-36.75Z"/><g><path class="cls-1" d="M54.33,22.34v30.36c0,.34,0,.68-.03,1.01-.06,.73-.41,1.09-1.19,1.07-1.41-.03-2.82,0-4.23-.02-.53,0-.73,.04-.47,.65,.91,2.17,1.77,4.36,2.65,6.55,.2,.48,.45,1-.02,1.43-.52,.49-1.02,.15-1.5-.14-.5-.3-1.03-.54-1.5-.88-.67-.5-.99-.24-1.25,.43-.21,.54-.48,1.06-.73,1.58-.19,.38-.47,.66-.94,.59-.43-.07-.65-.33-.78-.78-.53-1.88-1.11-3.75-1.67-5.62-.12-.41-.24-.76-.8-.65-.49,.1-1.05-.22-1.26,.64-.44,1.81-1.03,3.58-1.56,5.37-.15,.48-.28,.99-.89,1.04-.6,.06-.84-.4-1.06-.85-.17-.36-.32-.73-.5-1.08-.67-1.29-.35-1.16-1.69-.48-.38,.2-.73,.45-1.1,.66-.47,.26-.95,.69-1.5,.21-.58-.49-.24-1.07-.03-1.6,.77-1.93,1.56-3.85,2.35-5.77,.52-1.29,.53-1.29-.84-1.29-4.08,0-8.16,0-12.24,0-1.17,0-1.32-.15-1.32-1.33V18.67c0-1.21,.17-1.41,1.36-1.41,10.43,0,20.85,0,31.28,0,1.15,0,1.41,.25,1.44,1.4,.04,1.23,.02,2.46,.02,3.68Zm-1.68,29.9c-.02-10.8-.02-21.6,0-32.39,0-.75-.25-.94-.96-.94-9.62,.02-19.25,.02-28.88,0-.65,0-.91,.14-.91,.87,.03,10.82,.03,21.65,0,32.47,0,.74,.26,.84,.91,.83,3.8-.03,7.6,0,11.4,0h1.48c-2.18-1.95-2.24-3.48-.33-5.32,.29-.27,.21-.53,.21-.82-.01-1.81,1.33-3.17,3.12-3.11,.38,0,.62-.08,.89-.32,1.32-1.13,2.89-1.14,4.13,0,.31,.29,.59,.37,.98,.37,1.92,.02,3.08,1.23,3.01,3.13-.02,.42,.02,.69,.41,.99,1.54,1.17,1.61,3.19,.23,4.56-.13,.13-.46,.16-.26,.51,1.23,0,2.49-.03,3.74,0,.67,.03,.83-.22,.83-.84Zm-4.02,8.3c-.51-1.28-1.03-2.48-1.46-3.7-.24-.65-.48-.8-1.09-.38-.42,.29-.97,.39-1.49,.34-.46-.04-.65,.06-.5,.54,.42,1.39,.83,2.79,1.26,4.24,.58-.51,.57-1.36,1.24-1.64,.75-.31,1.21,.55,2.04,.6Zm-2.29-8.92c.77-.15,1.26-.54,1.26-1.32s-.61-1.03-1.28-1.2c-.91-.22-1.11-.66-.63-1.44,.34-.54,.47-1.1,.08-1.62-.4-.52-.97-.6-1.58-.34-.66,.28-1.08,.04-1.42-.57-.56-1-1.59-1.08-2.16-.13-.42,.71-.86,.95-1.64,.63-.47-.19-.98-.11-1.34,.32-.38,.45-.35,.94-.11,1.45,.48,1.06,.38,1.28-.76,1.61-.64,.19-1.03,.56-1.03,1.23s.42,1.03,1.05,1.21c1.24,.37,1.29,.53,.71,1.69-.25,.49-.3,1.03,.09,1.46,.36,.4,.83,.62,1.4,.35,.69-.34,1.16-.18,1.56,.55,.56,1.03,1.62,1.01,2.22-.02,.37-.65,.81-.86,1.5-.53,.16,.08,.34,.11,.45,.14,1.03-.02,1.5-.98,1.04-1.97-.42-.89-.27-1.34,.59-1.5Zm-7.09,5.61c.14-.48-.17-.52-.5-.48-.57,.07-1.12-.04-1.58-.34-.65-.43-.87-.14-1.05,.45-.12,.41-.34,.79-.47,1.19-.26,.85-.81,1.6-.89,2.57q1.91-.88,3.17,1.04c.47-1.57,.89-3,1.32-4.43Z"/><path class="cls-1" d="M47.5,23.13c-.27-.03-.55-.02-.83-.02-3.13,0-6.25,0-9.38,0s-6.38,0-9.56,0c-.27,0-.55,0-.82,.03-.47,.04-.71,.35-.74,.79-.02,.41,.21,.71,.61,.82,.26,.07,.54,.08,.82,.08,6.22,0,12.45,0,18.67-.02,.43,0,.86,.04,1.28-.03,.47-.07,.76-.38,.73-.9-.03-.48-.32-.71-.77-.75"/><path class="cls-1" d="M43.68,33.48c-5.43,0-10.86,0-16.28,0-.64,0-1.26,.11-1.24,.88,.02,.75,.65,.87,1.27,.87,2.7,0,13.49,0,16.19,0,.62,0,1.24-.1,1.23-.89,0-.74-.58-.84-1.17-.84"/><path class="cls-1" d="M27.61,30.07h6.25c2.17,0,4.35,0,6.52,0,.6,0,1.07-.24,1.07-.86,0-.58-.42-.83-1-.83-4.44,0-8.88,0-13.32,0-.59,0-.97,.26-.97,.85,0,.61,.43,.83,.99,.84,.15,0,.31,0,.46,0"/><path class="cls-1" d="M41.63,47.34c-1.65,0-2.97,1.33-2.97,2.96,0,1.63,1.35,2.96,2.99,2.96,1.64,0,2.95-1.31,2.95-2.97,0-1.66-1.3-2.95-2.97-2.95m0,4.23c-.67,0-1.29-.62-1.29-1.28,0-.67,.62-1.27,1.3-1.26,.72,0,1.26,.55,1.26,1.27,0,.71-.57,1.28-1.27,1.28"/></g></g></g></svg>