<?xml version="1.0" encoding="UTF-8"?><svg id="Layer_2" xmlns="http://www.w3.org/2000/svg" viewBox="0 0 23 16.33"><defs><style>.cls-1{fill:#fff;}.cls-2{isolation:isolate;}</style></defs><g id="main"><g id="Icons-2" class="cls-2"><g id="Black-2"><g id="Line-3-2"><path id="Youtube-2" class="cls-1" d="M9.12,11.19V4.68l6.21,3.26-6.21,3.24ZM22.77,3.52c-.11-.83-.42-1.62-.91-2.3-.61-.62-1.44-.98-2.31-.98-3.19-.24-8.04-.24-8.04-.24h0S6.68,0,3.46,.24c-.87,0-1.7,.36-2.31,.98C.67,1.9,.35,2.69,.24,3.52c-.15,1.26-.23,2.52-.24,3.78v1.76c0,1.25,.09,2.51,.23,3.75,.11,.83,.42,1.62,.91,2.3,.7,.63,1.61,.98,2.56,.99,1.84,.18,7.82,.23,7.82,.23,0,0,4.83,0,8.05-.24,.87,0,1.7-.36,2.31-.98,.49-.68,.81-1.47,.91-2.3,.14-1.24,.21-2.49,.21-3.74v-1.76c-.01-1.25-.09-2.51-.23-3.75v-.03Z"/></g></g></g></g></svg>