<?xml version="1.0" encoding="UTF-8"?><svg id="Layer_2" xmlns="http://www.w3.org/2000/svg" xmlns:xlink="http://www.w3.org/1999/xlink" viewBox="0 0 84.89 68.45"><defs><style>.cls-1{stroke:url(#linear-gradient);stroke-miterlimit:10;}.cls-1,.cls-2,.cls-3{fill:none;opacity:.8;stroke-width:2px;}.cls-2{stroke-linecap:round;}.cls-2,.cls-3{stroke:#1a1a1a;stroke-linejoin:round;}</style><linearGradient id="linear-gradient" x1="0" y1="47.23" x2="84.89" y2="47.23" gradientTransform="matrix(1, 0, 0, 1, 0, 0)" gradientUnits="userSpaceOnUse"><stop offset="0" stop-color="#21b575"/><stop offset="1" stop-color="#27aae1"/></linearGradient></defs><g id="main"><g><path class="cls-1" d="M83.89,26.01c0,22.89-18.56,41.44-41.44,41.44S1,48.9,1,26.01"/><g><path class="cls-3" d="M68.61,36.24c-4.03,9.85-13.71,16.79-25.01,16.79-14.92,0-27.01-12.1-27.01-27.02,0-11.3,6.93-20.98,16.78-25.01-.65,1.58-7.67,19.01,3.58,30.26s30.09,5.63,31.66,4.98Z"/><polyline class="cls-2" points="39.03 8.37 48.13 8.37 39.52 18.75 48.78 18.75"/><polyline class="cls-2" points="57.31 21.29 64.19 21.29 57.68 29.13 64.68 29.13"/><polyline class="cls-2" points="53.31 2.02 59.01 2.02 53.62 8.52 59.42 8.52"/></g></g></g></svg>