<?xml version="1.0" encoding="UTF-8"?><svg id="Layer_2" xmlns="http://www.w3.org/2000/svg" viewBox="0 0 23 23.05"><defs><style>.cls-1{fill:#fff;}</style></defs><g id="main"><g id="Layer_2-2"><g id="main-2"><path class="cls-1" d="M11.52,2.08c3.08,0,3.44,0,4.67,.07,.73,0,1.45,.14,2.14,.39,.5,.18,.96,.48,1.33,.86,.38,.37,.68,.83,.86,1.33,.25,.68,.39,1.41,.39,2.14,.05,1.21,.07,1.58,.07,4.67s0,3.44-.07,4.67c0,.73-.14,1.45-.39,2.14-.39,1.01-1.18,1.8-2.19,2.19-.68,.25-1.41,.39-2.14,.39-1.21,.05-1.58,.07-4.67,.07s-3.44,0-4.67-.07c-.73,0-1.45-.14-2.14-.39-.5-.18-.96-.48-1.33-.86-.38-.37-.68-.83-.86-1.33-.25-.68-.39-1.41-.39-2.14-.05-1.21-.07-1.58-.07-4.67s0-3.44,.07-4.67c0-.73,.14-1.45,.39-2.14,.18-.5,.48-.96,.86-1.33,.37-.38,.83-.68,1.33-.86,.68-.25,1.41-.39,2.14-.39,1.21-.05,1.58-.07,4.67-.07m0-2.08c-3.14,0-3.52,0-4.76,.07-.94,.02-1.88,.21-2.76,.54-.77,.29-1.47,.75-2.04,1.33-.6,.58-1.06,1.28-1.35,2.06C.27,4.91,.09,5.85,.07,6.81c-.07,1.21-.07,1.59-.07,4.72s0,3.52,.07,4.75c.02,.96,.2,1.9,.53,2.8,.29,.77,.75,1.47,1.33,2.04,.58,.59,1.27,1.04,2.04,1.33,.9,.33,1.84,.52,2.8,.53,1.23,.05,1.62,.07,4.75,.07s3.52,0,4.75-.07c.96-.02,1.9-.2,2.8-.53,1.53-.6,2.74-1.81,3.34-3.34,.33-.9,.52-1.84,.53-2.8,.05-1.23,.07-1.62,.07-4.75s0-3.52-.07-4.75c0-.96-.18-1.91-.5-2.81-.29-.77-.75-1.47-1.33-2.04-.58-.59-1.27-1.04-2.04-1.33-.89-.34-1.83-.53-2.79-.56C15.04,0,14.64,0,11.52,0h0Zm0,5.61c-3.27,0-5.92,2.65-5.92,5.92s2.65,5.92,5.92,5.92,5.92-2.65,5.92-5.92-2.65-5.92-5.92-5.92Zm0,9.76c-2.12,.01-3.85-1.7-3.86-3.82-.01-2.12,1.7-3.85,3.82-3.86,2.12-.01,3.85,1.7,3.86,3.82,0,.01,0,.02,0,.03-.02,2.1-1.71,3.79-3.81,3.81v.02Zm7.48-10.03c.02,.76-.58,1.38-1.33,1.4s-1.38-.58-1.4-1.33,.58-1.38,1.33-1.4h.03c.75,0,1.36,.59,1.37,1.33Z"/></g></g></g></svg>