<?xml version="1.0" encoding="UTF-8"?><svg id="Layer_2" xmlns="http://www.w3.org/2000/svg" viewBox="0 0 75.49 75.49"><defs><style>.cls-1,.cls-2{fill:none;}.cls-3{fill:#1a1a1a;}.cls-2{stroke:#1a1a1a;stroke-miterlimit:10;stroke-width:2px;}</style></defs><g id="main"><g><g><path class="cls-3" d="M7.19,59.16l-1.08-1.77h63.33l-1.03,1.77H7.19Z"/><path class="cls-3" d="M37.9,38.05c-.25,.24-.1,.45,.1,.64,.55,.55,1.11,1.1,1.65,1.66,.29,.31,.53,.32,.83,.01,.62-.64,1.26-1.27,1.89-1.9,.17-.18,.43-.4,.21-.64-.66-.72-1.36-1.4-2.05-2.09-.03-.03-.1-.02-.18-.04-.06,.03-.14,.06-.2,.11-.75,.75-1.51,1.49-2.25,2.25Zm-4.09-6.22c-.05-2.68-2.14-4.81-4.72-4.79-2.55,.02-4.7,2.21-4.68,4.75,.02,2.51,2.21,4.64,4.73,4.61,2.54-.04,4.7-2.15,4.67-4.57Zm14.53,19.44c1.5,.17,2.29-.49,2.85-1.71,.03-.05,.05-.1,.09-.15,.29-.44,.14-.57-.35-.57-1.48,.02-2.97,0-4.45,0-.23,0-.45,0-.62,.18-.69,.74-1.46,1.38-2.27,1.98,.03,.07,.05,.14,.08,.22,1.56,0,3.13-.14,4.67,.04Zm-26.58,6.12h31.61c1.34,0,1.62-.35,1.32-1.67-.42-1.82-1.97-2.97-4.05-2.98-3.78,0-7.57,0-11.35,0h-14.46c-2.37,.01-3.91,1.25-4.2,3.36-.14,1.07,.05,1.29,1.13,1.29Zm17.77-10.1c4.7,0,9.41,0,14.12,0,.6,0,1.09-.14,1.11-.83,.02-.76-.57-.71-1.08-.71-2.32-.01-4.65-.01-6.97-.01h-7.15c-.53,0-1.04,.06-1.06,.77-.02,.73,.49,.78,1.03,.78Zm3.94-7.71c-.65,.66-1.3,1.32-1.96,1.96-.47,.46-.95,.69-1.44,.69-.45,0-.92-.21-1.38-.63-.62-.57-1.21-1.17-1.79-1.78-.3-.31-.54-.45-1.01-.27-.81,.3-1.68,.08-2.13-.59-1.11-1.64-2.52-1.65-4.15-1.09-.3,.11-.46,.23-.58,.52-.36,.83-.53,1.71-.66,2.59-.07,.56-.35,.9-.95,.79-.61-.12-.69-.56-.59-1.09,.16-.82,.24-1.66,.58-2.44,.11-.25,.18-.51-.15-.62-.73-.23-1.39-.58-2-1.04-.57-.44-1.01-1.01-1.52-1.63-1.23,2.45-1.7,4.94-1.58,7.55,.13,2.95,1,5.65,2.69,8.08,.21,.31,.39,.59,.84,.59,1.87-.02,3.75-.01,5.63-.02,.1,0,.2-.06,.28-.09,0-.29-.21-.35-.36-.46-1-.73-1.85-1.62-2.55-2.65-.29-.44-.56-.89-.02-1.32,.55-.43,.93-.07,1.25,.37,.61,.8,1.27,1.54,2.06,2.18,3.12,2.55,8.06,2.64,11.23,.15,.11-.1,.3-.15,.3-.48-1.14,0-2.27,.01-3.4,0-.45,0-.89,.02-1.34-.09-1.27-.34-1.93-1.25-1.8-2.54,.12-1.19,1.08-2.03,2.45-2.07,.23-.01,.45-.01,.68-.01,.98-.02,1.96,0,2.94,0,3.53,0,7.06,0,10.59,.01,1.64,0,2.7,.95,2.69,2.35,0,1.28-.87,2.25-2.27,2.31-.71,.04-.96,.36-1.2,.9-.22,.51-.75,1.03-.68,1.47s.9,.38,1.35,.66c1.78,1.13,2.85,2.65,2.8,4.83-.02,1.22-.91,2.14-2.15,2.26-.28,.02-.56,.03-.84,.03H21.98c-.61,0-1.23,0-1.79-.33-1.05-.65-1.47-1.87-1.01-3.42,.52-1.76,1.62-3.06,3.39-3.67,.6-.2,.82-.36,.41-.99-1.67-2.62-2.41-5.53-2.43-8.59,0-2.94,.65-5.76,2.15-8.34,.23-.4,.31-.78,.25-1.26-.12-.92-.04-1.84,.35-2.71,.24-.52,.27-.95-.26-1.38-.89-.71-1.37-1.62-.9-2.8,.13-.33-.11-.52-.31-.71-.67-.68-1.36-1.34-2.01-2.02-1-1.05-.99-2.06,.01-3.08,.66-.68,1.33-1.36,2.02-2.02,.86-.82,1.78-.89,2.7-.11,.78,.67,1.5,1.42,2.23,2.16,.29,.3,.53,.45,1,.29,.88-.3,1.66,.06,2.29,.69,3.65,3.64,7.29,7.28,10.92,10.93,.62,.63,.97,1.39,.59,2.29-.17,.39,.03,.63,.28,.88,.56,.54,1.13,1.09,1.66,1.66,1.01,1.09,.99,2.1-.05,3.15ZM25.66,21.59c.11-.12,.28-.21,.23-.48-.03-.04-.08-.14-.16-.21l-2.13-2.13c-.34-.33-.59-.15-.85,.11-.59,.6-1.17,1.21-1.78,1.78-.41,.38-.37,.67,.02,1.04,.63,.59,1.24,1.2,1.83,1.83,.32,.33,.56,.38,.89,.02,.64-.67,1.3-1.3,1.95-1.96Zm14.08,12.45c.51-.51,.56-.99,.01-1.51-.91-.86-1.81-1.74-2.71-2.63-.99-.99-1.98-1.99-2.98-2.98l-4.98-4.98c-.69-.69-.87-.68-1.58,0-.5,.49-1,.99-1.49,1.49-.73,.73-1.47,1.46-2.19,2.2-.58,.59-.22,1,.21,1.49,.47,.53,.71,.21,1.05-.11,1.14-1.07,2.55-1.45,4.16-1.54,.24,.04,.57,.09,.9,.14,1.38,.21,2.55,.87,3.44,1.79,1.94,2.04,2.48,5.36,.7,7.86q-.9,1.26,.27,2.35l.06,.06c.5,.57,1,.5,1.51-.01,1.2-1.21,2.41-2.42,3.62-3.62Z"/><path class="cls-1" d="M45.76,42.05c.41,.14,.81,.27,1.2,.37,1.58,.42,3.03,.45,4.41,.09,.91-.23,1.74-.62,2.39-1.12,.02,0,.06-.04,.07-.04,1.35-.93,2.02-2.55,1.73-4.1-4.38,2.57-7.69,3.03-7.86,3.05-.07,.01-.13,.01-.2,0-.35-.04-.64-.32-.69-.68-.05-.44,.26-.83,.69-.89,.04,0,3.24-.46,7.45-2.96-.53-.84-1.35-1.46-2.34-1.73-.93-.24-1.92-.15-2.79,.25-.23,.11-.48,.27-.84,.54-1.66,1.24-3.62,2.65-5.85,3.75-.52,.25-1.05,.48-1.58,.71-.11,.11-.22,.22-.33,.33,1.49,1.05,2.99,1.85,4.55,2.43Z"/><path class="cls-3" d="M59.55,33.47c-.27-.34-.77-.39-1.11-.12-.72,.58-1.44,1.1-2.13,1.57-.74-1.18-1.91-2.04-3.3-2.41-.47-.12-.96-.18-1.44-.18-.83,0-1.66,.18-2.42,.53-.33,.16-.67,.37-1.12,.7-1.6,1.2-3.49,2.56-5.6,3.6-.11,.05-.23,.1-.34,.15,.16,.17,.33,.33,.49,.51,.22,.24-.04,.46-.21,.64-.27,.27-.55,.55-.82,.83,.53-.23,1.07-.46,1.58-.71,2.23-1.1,4.19-2.51,5.85-3.75,.36-.27,.61-.43,.84-.54,.87-.4,1.86-.49,2.79-.25,.99,.27,1.81,.89,2.34,1.73-4.21,2.5-7.41,2.96-7.45,2.96-.43,.06-.74,.45-.69,.89,.05,.36,.34,.64,.69,.68,.07,.01,.13,.01,.2,0,.17-.02,3.48-.48,7.86-3.05,.29,1.55-.38,3.17-1.73,4.1-.01,0-.05,.04-.07,.04-.65,.5-1.48,.89-2.39,1.12-1.38,.36-2.83,.33-4.41-.09-.39-.1-.79-.23-1.2-.37-1.55-.58-3.06-1.38-4.55-2.43-.25,.25-.49,.49-.73,.74-.3,.31-.54,.3-.83,0-.33-.34-.66-.67-1-1,.02,.21,.12,.41,.3,.54,2.05,1.66,4.1,2.85,6.27,3.64,.45,.16,.9,.31,1.34,.42,.55,.15,1.09,.25,1.61,.32,1.25,.15,2.44,.07,3.6-.22,1.11-.29,2.13-.77,2.99-1.42,1.86-1.28,2.8-3.6,2.33-5.79-.03-.14-.04-.29-.03-.42,0-.03-.01-.06-.01-.09,.77-.52,1.57-1.09,2.38-1.75,.34-.27,.39-.77,.12-1.11Z"/><path class="cls-3" d="M27.89,43.39c-.52-.02-.83,.29-.83,.82,0,.49,.27,.78,.77,.79,.5,0,.76-.27,.77-.52,.01-.73-.2-1.07-.7-1.08"/><path class="cls-3" d="M29.14,28.6c-1.66-.04-3.08,1.35-3.12,3.06-.04,1.69,1.34,3.17,2.99,3.2,1.69,.03,3.19-1.35,3.23-2.98,.04-1.76-1.35-3.23-3.1-3.28m-.09,4.65c-.84-.01-1.49-.66-1.49-1.49,0-.89,.72-1.6,1.61-1.58,.86,.02,1.53,.72,1.49,1.59-.03,.85-.73,1.5-1.61,1.49"/></g><path class="cls-2" d="M74.49,37.75C74.49,17.45,58.04,1,37.75,1S1,17.45,1,37.75s16.45,36.75,36.75,36.75,36.75-16.45,36.75-36.75Z"/></g></g></svg>