<?xml version="1.0" encoding="UTF-8"?><svg id="Layer_2" xmlns="http://www.w3.org/2000/svg" viewBox="0 0 74 74"><defs><style>.cls-1{fill:#1a1a1a;}.cls-2{fill:none;stroke:#1a1a1a;stroke-miterlimit:10;stroke-width:2px;}</style></defs><g id="main"><g><path class="cls-1" d="M72.06,36.95c.5,0,1.13-.25,1.09,.73-.03,.7-.22,.86-.89,.85-2.65-.04-14.31,.03-16.96-.04-.96-.03-1.26,.16-1.26,1.21,.06,8.2-.06,21.22-.05,29.41,0,.57,.03,.98-.79,.94-.64-.03-.81-.18-.8-.83,.03-2.96,.1-10.75,.1-13.71,0-5.34,.01-10.68-.01-16.01,0-.39,.32-1.14-.57-.97-.67,.13-1.67-.61-1.87,.85-1.03,7.85-2.76,19.98-3.84,27.82-.07,.56-.76,4.59-.79,5.14-.03,.48-.19,.65-.69,.66-.7,.01-1.01,0-.88-.94,.86-5.93,2.84-19.64,3.64-25.58,.31-2.31,.61-4.62,.98-6.92,.12-.78,.05-1.08-.87-1.08-.97-.01-1.41,.21-1.68,1.24-2.13,8.09-6.69,24.81-8.82,32.89-.3,1.13-.74,1.52-1.9,1.14,.91-3.39,4.14-15.45,5.05-18.84,1.39-5.18,2.77-10.37,4.19-15.54,.19-.7,.09-.83-.65-.89-1.08-.09-1.55,.32-1.96,1.29-3.44,8.08-10.13,23.33-13.56,31.41-.43,1-.89,1.5-2.12,1.12,3.76-8.82,10.7-24.85,14.47-33.67-1.46-.41-2.3,.03-3.1,1.31-5.02,8.03-12.63,19.2-17.68,27.21-.6,.96-1.19,1.59-2.54,1.15,5.6-8.81,13.65-20.81,19.25-29.64-.34-.27-.73-.14-1.08-.14-9-.01-25-.03-34,.02-1,0-1.03-.41-.98-1.15,.03-.39,.21-.46,.53-.45,.21,0,.42,0,.63,0H11.41c.05-2.11-.01-6.13,.03-8.19,.08-4.5,3.56-8.2,8.05-8.47,1.87-.11,3.76-.02,5.64-.02v-.06c1.57,0,3.14,.01,4.71,0,4.89-.04,8.85,3.6,9.02,8.78,.06,1.99-.01,5.86,.03,7.96,12.38,0,24.57,0,33.17,0Zm-34.75-6.3c.01-.61-.12-.85-.8-.84-2.26,.05-4.53,.04-6.8,0-.56,0-.7,.18-.69,.71,.03,1.46-.02,4.93,.02,6.39v.02h8.24c.05-1.58-.01-4.85,.03-6.29Zm-7.85-2.39h7.78c-.6-3.2-2.3-5.36-5.39-6.22-2.12-.59-4.3-.17-6.71-.3,2.16,1.69,3.37,3.61,3.7,6.03,.06,.43,.26,.49,.62,.49Zm-2.03,8.68c.03-2.06,.06-6.1-.02-8.15-.16-3.61-2.58-6.3-6.11-6.91-4.18-.73-8.26,2.63-8.34,6.89-.03,2.06-.02,6.06,0,8.17h3.35c.04-1.69,.02-5.04,0-6.58-.01-.47,.09-.69,.62-.68,2.17,.02,4.33,.03,6.49,0,.54,0,.62,.19,.62,.66-.03,1.55-.03,4.92,0,6.6h3.38Zm-4.89-.38c0-1.01,0-3.84,.01-4.68,0-.39-.02-.68-.54-.67-.88,.03-1.77,0-2.89,0,1.23,1.2,2.26,4.21,3.42,5.34Zm-2.03,.38c-.12-.12-.24-.25-.36-.39-.6-.78-1.43-3.38-2.29-4.18,0,.94-.03,3.49,0,4.57h2.64Z"/><path class="cls-1" d="M54.08,32.17c1.31,.65,2.54,1.05,3.85,.91,2.77-.3,5-2.38,5.44-5.01,.46-2.73-.94-5.41-3.52-6.6-.51-.23-.66-.43-.57-.99,.13-.86,.05-1.74-.23-2.58-.94-2.87-3.86-4.69-6.68-4.17-3.11,.57-5.22,3.16-5.07,6.3,.04,.8-.08,1.23-.91,1.65-3,1.51-4.08,5.17-2.54,8.15,1.6,3.08,5,4.04,8.67,2.33,0,2.04,.02,3.99-.01,5.94,0,.52,.1,.7,.67,.72,.73,.02,.95-.18,.93-.92-.06-1.86-.02-3.73-.02-5.73Zm-1.38-2.27c-1.19,1.48-2.81,1.92-4.6,1.46-1.77-.46-2.83-1.7-3.24-3.47-.57-2.44,1-4.86,3.58-5.34,.94-.17,.98-.43,.69-1.23-.93-2.52,.4-5.2,2.88-5.92,2.47-.72,5.01,.75,5.65,3.29,.25,.97,.17,1.96-.23,2.87-.3,.68-.15,.83,.57,.95,2.28,.36,3.79,2.05,3.93,4.23,.13,2.1-1.18,3.98-3.2,4.61-.45,.14-.89,.14-1.65,.16-1.08,.02-2.23-.54-3.06-1.6-.53-.68-.79-.66-1.32,0Z"/><path class="cls-1" d="M3.03,46.62c-.58,0-.87,.03-.89,.8-.02,.9,.48,.73,.96,.73,7.23,0,20.24-.03,27.47,.03,1.11,0,1.76-.32,2.11-1.55h-.66c-7.73,0-21.25,0-28.98,0Z"/><path class="cls-1" d="M8.37,57.61c-.5,0-.92-.08-.9,.71,.01,.72,.25,.83,.89,.83,4.84-.02,9.67-.06,14.51,.02,1.19,.02,1.66-.51,2.03-1.55h-.77c-5.25,0-10.51,0-15.76,0Z"/><path class="cls-1" d="M70.89,46.62c.36,0,.54,.03,.55,.8,.01,.9-.29,.73-.59,.73-4.48,0-12.55-.03-17.03,.03-.69,0-1.09-.32-1.31-1.55h.41c4.79,0,13.18,0,17.97,0Z"/><path class="cls-1" d="M65.94,57.61c.4,0,.74-.08,.73,.71,0,.72-.2,.83-.72,.83-3.93-.02-7.86-.06-11.79,.02-.97,.02-1.35-.51-1.65-1.55h.62c4.27,0,8.54,0,12.81,0Z"/><path class="cls-1" d="M57.61,28.27c.73-.02,1.2-.48,1.23-1.3-.08-.74-.5-1.2-1.27-1.19-.79,0-1.24,.53-1.23,1.26,0,.75,.53,1.25,1.27,1.23Z"/><path class="cls-1" d="M53.23,19.25c-.74-.02-1.13,.44-1.2,1.16,.06,.76,.49,1.17,1.21,1.17,.68,0,1.12-.44,1.14-1.12,.02-.73-.41-1.2-1.15-1.21Z"/><path class="cls-1" d="M19.33,27.47h1.89c.5,0,.92-.41,.92-.92s-.41-.92-.92-.92h-1.89c-.5,0-.92,.41-.92,.92s.41,.92,.92,.92Z"/><path class="cls-2" d="M73,37C73,17.12,56.88,1,37,1S1,17.12,1,37s16.12,36,36,36,36-16.12,36-36Z"/></g></g></svg>