<?xml version="1.0" encoding="utf-8"?>
<!-- Generator: Adobe Illustrator 26.3.1, SVG Export Plug-In . SVG Version: 6.00 Build 0)  -->
<svg version="1.1" id="Layer_2_00000104680002589078700570000010678280577020597949_"
	 xmlns="http://www.w3.org/2000/svg" xmlns:xlink="http://www.w3.org/1999/xlink" x="0px" y="0px" viewBox="0 0 23 16.3"
	 style="enable-background:new 0 0 23 16.3;" xml:space="preserve">
<g id="main">
	<g id="Icons-2">
		<g id="Black-2">
			<g id="Line-3-2">
				<path id="Youtube-2" d="M9.1,11.2V4.7l6.2,3.3L9.1,11.2L9.1,11.2z M22.8,3.5c-0.1-0.8-0.4-1.6-0.9-2.3c-0.6-0.6-1.4-1-2.3-1
					c-3.2-0.2-8-0.2-8-0.2l0,0c0,0-4.8,0-8.1,0.2c-0.9,0-1.7,0.4-2.3,1C0.7,1.9,0.3,2.7,0.2,3.5C0.1,4.8,0,6,0,7.3v1.8
					c0,1.2,0.1,2.5,0.2,3.8c0.1,0.8,0.4,1.6,0.9,2.3c0.7,0.6,1.6,1,2.6,1c1.8,0.2,7.8,0.2,7.8,0.2s4.8,0,8-0.2c0.9,0,1.7-0.4,2.3-1
					c0.5-0.7,0.8-1.5,0.9-2.3c0.1-1.2,0.2-2.5,0.2-3.7V7.3C23,6.1,22.9,4.8,22.8,3.5L22.8,3.5L22.8,3.5z"/>
			</g>
		</g>
	</g>
</g>
</svg>
