<?xml version="1.0" encoding="UTF-8"?><svg id="Layer_2" xmlns="http://www.w3.org/2000/svg" viewBox="0 0 74 74"><defs><style>.cls-1{fill:#bce9d5;}.cls-2{fill:#1a1a1a;}.cls-3{fill:none;stroke:#1a1a1a;stroke-miterlimit:10;stroke-width:2px;}</style></defs><g id="main"><g><path class="cls-2" d="M52.35,13.65c.67,2.44,.9,4.89,.38,7.39-.97,4.66-3.58,8.11-7.76,10.36-1.53,.83-3.18,1.34-4.9,1.56-.42,.05-.51,.22-.51,.6,.01,.62,.13,1.22,.26,1.83,.1,.49,.2,.98,.31,1.48,.98,4.07,.49,4.04,.2,4.14-.32,.11-1.09,.97-1.84-3.46-.57-3.09-1.76-6.03-3.68-8.77-.31-.46-.63-.54-1.14-.46-3.35,.47-6.36-.37-8.89-2.61-2.84-2.5-4.04-5.71-3.77-9.48,.02-.36,.13-.51,.48-.6,7.15-1.9,14.08,3.37,14.08,10.75,0,.51,.17,.87,.62,1.21,.05-1.13,.14-2.18,.38-3.21,1.57-6.76,7.64-11.56,14.61-11.59,.69,0,.99,.2,1.17,.86Zm-5.4,14.23c3.72-3.56,4.99-7.88,3.9-12.92-.09-.41-.3-.37-.59-.35-5.49,.34-10.23,4.17-11.77,9.46-.63,2.18-.7,4.36-.17,6.66,1.61-3.53,4.24-6.26,6.41-9.3,.37-.51,.91-.61,1.32-.3,.42,.32,.46,.84,.07,1.36-1.45,1.94-2.93,3.87-4.39,5.81-.53,.72-1.02,1.47-1.39,2.29-.07,.15-.24,.31-.11,.46,.12,.15,.33,.05,.49,0,2.36-.49,4.48-1.5,6.23-3.18Zm-14.14-3.9c.26,.25,.49,.54,.83,.71-.81-4.84-5.43-8.26-10.29-7.65-.48,.06-.66,.19-.64,.74,.25,4.66,3.89,8.47,8.53,8.86,.55,.05,1.1,.13,1.75-.05-1.37-1.43-2.83-2.61-4.4-3.68-.34-.22-.68-.44-1.01-.67-.44-.32-.55-.82-.29-1.22,.27-.43,.78-.52,1.29-.21,1.51,.92,2.95,1.95,4.23,3.17Z"/><g><rect class="cls-2" x="1.84" y="37" width="71.16" height="2"/><g><line class="cls-1" x1="3.23" y1="49.51" x2="73" y2="38"/><rect class="cls-2" x="2.76" y="42.75" width="70.71" height="2" transform="translate(-6.62 6.79) rotate(-9.37)"/></g><g><line class="cls-1" x1="10.51" y1="61.37" x2="73" y2="38"/><rect class="cls-2" x="8.39" y="48.69" width="66.72" height="2" transform="translate(-14.76 17.78) rotate(-20.51)"/></g><g><line class="cls-1" x1="21.44" y1="69.47" x2="73" y2="38"/><rect class="cls-2" x="17.02" y="52.74" width="60.41" height="2" transform="translate(-21.08 32.47) rotate(-31.4)"/></g><g><line class="cls-1" x1="39.09" y1="73" x2="73" y2="38"/><rect class="cls-2" x="31.68" y="54.5" width="48.73" height="2" transform="translate(-22.81 57.14) rotate(-45.91)"/></g></g><path class="cls-3" d="M73,37C73,17.12,56.88,1,37,1S1,17.12,1,37s16.12,36,36,36,36-16.12,36-36Z"/></g></g></svg>