<?xml version="1.0" encoding="UTF-8"?><svg id="Layer_2" xmlns="http://www.w3.org/2000/svg" xmlns:xlink="http://www.w3.org/1999/xlink" viewBox="0 0 84.89 68.6"><defs><style>.cls-1{stroke:#1a1a1a;stroke-linecap:round;stroke-linejoin:round;}.cls-1,.cls-2{fill:none;stroke-width:2px;}.cls-2{stroke:url(#linear-gradient);stroke-miterlimit:10;}.cls-3{opacity:.8;}</style><linearGradient id="linear-gradient" x1="0" y1="47.37" x2="84.89" y2="47.37" gradientTransform="matrix(1, 0, 0, 1, 0, 0)" gradientUnits="userSpaceOnUse"><stop offset="0" stop-color="#21b575"/><stop offset="1" stop-color="#27aae1"/></linearGradient></defs><g id="main"><g><g class="cls-3"><path class="cls-1" d="M24.56,48.72l3.92-2.09s8.8,4.18,19.12,2.09c10.32-2.09,18.02-4.72,18.98-5.68s3.5-9.57-2.1-17.91c-5.6-8.33-4.55-9.07-14.72-19.24-2.54-2.54-4.26-4.7-8.39-4.7-5.7,0-5.03-.29-9.83-.16,0,0-2.23-.3-3.07,2.81-.83,3.11-1.32,7.1-1.32,7.1,0,0-.52,2.07,1.32,2.36,2.27,.35,2.57,1.2,3.37,2,.37,.37,7.89-3.57,9.92-4.33,.28-.11,.6-.07,.84,.12,1.12,.83,4.25,4.25,3.67,14.04"/><path class="cls-1" d="M18.9,22.29s7.29-.59,11.78,4.59c0,0,13.61-9.18,22,5.38"/><path class="cls-1" d="M29.13,37.11s9.58,9.9,21.91,0"/><path class="cls-1" d="M42.01,10.92c1.49-.77,2.36-2.25,2.36-2.25"/></g><path class="cls-2" d="M83.89,26.15c0,22.89-18.56,41.44-41.44,41.44S1,49.04,1,26.15"/></g></g></svg>