<?xml version="1.0" encoding="UTF-8"?><svg id="Layer_2" xmlns="http://www.w3.org/2000/svg" xmlns:xlink="http://www.w3.org/1999/xlink" viewBox="0 0 101.34 100.95"><defs><style>.cls-1,.cls-2{stroke-linejoin:round;}.cls-1,.cls-2,.cls-3{fill:none;stroke-linecap:round;stroke-width:2px;}.cls-1,.cls-3{stroke:#1a1a1a;}.cls-2{stroke:url(#linear-gradient);}.cls-3{stroke-miterlimit:10;}</style><linearGradient id="linear-gradient" x1="13.88" y1="29.2" x2="76.95" y2="29.2" gradientTransform="matrix(1, 0, 0, 1, 0, 0)" gradientUnits="userSpaceOnUse"><stop offset="0" stop-color="#21b575"/><stop offset="1" stop-color="#27aae1"/></linearGradient></defs><g id="main"><g><g><path class="cls-3" d="M76.86,69.6s-11.02-4.26-17.19-3.1c-6.16,1.15-9.22,7.13-12.35,8.63-3.12,1.5-10.89,2.61-13.58,2.94-2.7,.33-7.87,4.92-1.64,8.75,6.23,3.83,23.11,1.02,27.05-2.82"/><path class="cls-3" d="M81.16,89.19s-7.08-2.81-9.54-2.18-10.8,10.03-13.56,11.33c-4.26,2-23.45,2.33-27.25-.07-2.15-1.36-26.9-12.95-28-13.82-1.52-1.2-2.7-3.87-.89-6.7,1.6-2.5,4.95-2.41,8.15-.94s20.85,9.16,20.85,9.16"/><path class="cls-3" d="M34.59,77.96l-16.76-7.52s-5.44-2.48-7.43,1.04c-1.66,2.94,.13,5.36,1.11,6"/><path class="cls-3" d="M46.29,75.54l-15.51-7.61s-4.66-2.98-6.83,.19c-2.41,3.52,1.52,5.74,1.52,5.74"/><polyline class="cls-1" points="95.17 62.87 76.85 66.3 82.02 93.95 100.34 90.52"/></g><path class="cls-2" d="M45.42,14.39S43.72,1.08,31.22,1c-9.92-.06-16.33,6.54-16.33,19.26,0,20.01,30.53,37.14,30.53,37.14,0,0,30.53-17.13,30.53-37.14,0-12.72-6.41-19.32-16.33-19.26-12.51,.08-14.2,13.39-14.2,13.39Z"/></g></g></svg>