<?xml version="1.0" encoding="UTF-8"?><svg xmlns="http://www.w3.org/2000/svg" xmlns:xlink="http://www.w3.org/1999/xlink" viewBox="0 0 84.89 70.61"><defs><style>.cls-1{stroke:#1a1a1a;stroke-linecap:round;stroke-linejoin:round;}.cls-1,.cls-2{fill:none;stroke-width:2px;}.cls-2{stroke:url(#linear-gradient);stroke-miterlimit:10;}.cls-3{isolation:isolate;}.cls-4{mix-blend-mode:multiply;opacity:.8;}</style><linearGradient id="linear-gradient" x1="0" y1="49.39" x2="84.89" y2="49.39" gradientTransform="matrix(1, 0, 0, 1, 0, 0)" gradientUnits="userSpaceOnUse"><stop offset="0" stop-color="#21b575"/><stop offset="1" stop-color="#27aae1"/></linearGradient></defs><g class="cls-3"><g id="Layer_2"><g id="main"><g><g class="cls-4"><path class="cls-1" d="M24.62,9.79v-1.73s.37-7.05,7.18-7.05,6.81,7.3,6.81,7.3V48.15s-.25,7.18-7.18,7.18-6.93-6.93-6.93-6.93v-1.67"/><path class="cls-1" d="M16.05,21.67s-1.16-6.28,2.88-9.9c3.59-3.22,8.55-2.04,11.26-.12"/><path class="cls-1" d="M30.25,44.83s-4.86,3.09-9.72,.67c-4.32-2.15-5.06-7.19-4.28-10.42"/><path class="cls-1" d="M26.17,20.09s-8.64-2.41-11.56,3.81c-2.68,5.7,.51,11.42,4.6,12.53,3.6,.98,7.52,.84,10.12-2.78"/><path class="cls-1" d="M29.32,16.79s4.69-.05,4.69,6.17"/><path class="cls-1" d="M34.35,36.95c-.54,.83-1.48,1.66-3.09,2.07"/><path class="cls-1" d="M22.31,31.37s-.05-4.69,6.17-4.69"/><path class="cls-1" d="M60.27,46.54v1.73s-.37,7.05-7.18,7.05-6.81-7.3-6.81-7.3V8.18s.25-7.18,7.18-7.18,6.93,6.93,6.93,6.93v1.67"/><path class="cls-1" d="M68.84,34.66s1.16,6.28-2.88,9.9c-3.59,3.22-8.55,2.04-11.26,.12"/><path class="cls-1" d="M54.64,11.5s4.86-3.09,9.72-.67c4.32,2.15,5.06,7.19,4.28,10.42"/><path class="cls-1" d="M58.72,36.24s8.64,2.41,11.56-3.81c2.68-5.7-.51-11.42-4.6-12.53-3.6-.98-7.52-.84-10.12,2.78"/><path class="cls-1" d="M55.57,39.53s-4.69,.05-4.69-6.17"/><path class="cls-1" d="M50.54,19.38c.54-.83,1.48-1.66,3.09-2.07"/><path class="cls-1" d="M62.58,24.96s.05,4.69-6.17,4.69"/></g><path class="cls-2" d="M83.89,28.16c0,22.89-18.56,41.44-41.44,41.44S1,51.05,1,28.16"/></g></g></g></g></svg>