<?xml version="1.0" encoding="utf-8"?>
<!-- Generator: Adobe Illustrator 26.3.1, SVG Export Plug-In . SVG Version: 6.00 Build 0)  -->
<svg version="1.1" id="Layer_1" xmlns="http://www.w3.org/2000/svg" xmlns:xlink="http://www.w3.org/1999/xlink" x="0px" y="0px"
	 viewBox="0 0 32 32" style="enable-background:new 0 0 32 32;" xml:space="preserve">
<style type="text/css">
	.st0{fill:#FFFFFF;}
</style>
<g id="Layer_2_00000054238203309889147220000014760745775638782872_">
	<g id="Main">
		<path class="st0" d="M29.1,0H2.9C1.3,0,0,1.3,0,2.9v26.2C0,30.7,1.3,32,2.9,32h26.2c1.6,0,2.9-1.3,2.9-2.9V2.9
			C32,1.3,30.7,0,29.1,0z M10.1,26.2H5.8V12.4h4.3L10.1,26.2z M7.9,10.4c-1.4,0-2.5-1.1-2.5-2.5s1.1-2.5,2.5-2.5s2.5,1.1,2.5,2.5
			S9.3,10.4,7.9,10.4L7.9,10.4z M26.2,26.2h-4.3v-6.7c0-1.6,0-3.7-2.2-3.7s-2.6,1.7-2.6,3.5v6.8h-4.3V12.4h4.1v1.9H17
			c0.8-1.4,2.4-2.3,4-2.3c4.3,0,5.1,2.9,5.1,6.6L26.2,26.2z"/>
	</g>
</g>
</svg>
