<?xml version="1.0" encoding="UTF-8"?><svg id="Layer_2" xmlns="http://www.w3.org/2000/svg" xmlns:xlink="http://www.w3.org/1999/xlink" viewBox="0 0 84.89 70.46"><defs><style>.cls-1{stroke:url(#linear-gradient);}.cls-1,.cls-2,.cls-3{fill:none;stroke-miterlimit:10;stroke-width:2px;}.cls-1,.cls-3{opacity:.8;}.cls-2,.cls-3{stroke:#1a1a1a;}</style><linearGradient id="linear-gradient" x1="0" y1="49.24" x2="84.89" y2="49.24" gradientTransform="matrix(1, 0, 0, 1, 0, 0)" gradientUnits="userSpaceOnUse"><stop offset="0" stop-color="#21b575"/><stop offset="1" stop-color="#27aae1"/></linearGradient></defs><g id="main"><g><path class="cls-1" d="M83.89,28.02c0,22.89-18.56,41.44-41.44,41.44S1,50.9,1,28.02"/><circle class="cls-3" cx="42.44" cy="28.02" r="27.02"/><g><path class="cls-2" d="M33.32,38.5c2.17,2.62,5.45,4.29,9.12,4.29s6.95-1.67,9.12-4.29"/><path class="cls-2" d="M25.66,21.54s3.67-3.15,11.67-2.08"/><path class="cls-2" d="M37.32,25.93c-.82,1.42-2.36,2.38-4.13,2.38s-3.3-.96-4.13-2.38"/><path class="cls-2" d="M59.23,21.54s-3.67-3.15-11.67-2.08"/><path class="cls-2" d="M47.57,25.93c.82,1.42,2.36,2.38,4.13,2.38s3.3-.96,4.13-2.38"/></g></g></g></svg>