<?xml version="1.0" encoding="UTF-8"?><svg id="Capa_2" xmlns="http://www.w3.org/2000/svg" viewBox="0 0 78.83 78.83"><defs><style>.cls-1{fill:#fff;}.cls-2{fill:#1a1a1a;}</style></defs><g id="main"><g><polygon class="cls-2" points="73.43 38.85 73.24 42.81 66.26 42.47 66.45 38.52 67.99 38.59 67.89 40.74 69.05 40.8 69.14 38.75 70.69 38.84 70.59 40.88 71.78 40.94 71.9 38.78 73.43 38.85"/><path class="cls-1" d="M75.25,39.42c0,4.88-.98,9.53-2.76,13.76l-1.66-.65,.78-2.41c.37-1.13,.18-2.17-.19-2.87-.44-.85-1.14-1.33-2.02-1.61-.71-.23-1.72-.39-2.72,.15-1.1,.58-1.55,1.67-1.77,2.34l-.25,.77-1.72-.56c.83-1.55,.32-2.87-.51-3.62-1.84-1.67-6.13-1.39-7.75,.05-.44,.39-1.14,1.1-2.03,1.99-.75,.75-2.03,2.03-3.2,3.14,.06-.36,.08-.72,.08-1.12,0-.66-.08-1.64-.55-2.5-.56-1.07-1.49-1.66-2.57-1.66-.64,0-1.48-.01-2.43-.04,1.6-1.44,3.71-2.31,6.04-2.31,6.83,0,12.4-5.56,12.4-12.41,0-.91-.74-1.65-1.65-1.65h-13.51c-3.31,0-6.24,1.67-7.99,4.24-1.73-2.56-4.66-4.24-7.97-4.24h-13.5c-.93,0-1.66,.74-1.66,1.65,0,6.85,5.56,12.41,12.4,12.41,2.22,0,4.26,.79,5.84,2.12-1.4-.02-2.66-.04-3.56-.04-.78,0-2.6,.01-19.19,17.68-5.04-6.18-8.07-14.06-8.07-22.63C3.57,19.65,19.64,3.56,39.41,3.56s35.84,16.09,35.84,35.86Zm-2.02,3.39l.19-3.96-1.53-.07-.12,2.16-1.19-.06,.09-2.04-1.54-.08-.09,2.04-1.16-.06,.11-2.15-1.54-.07-.19,3.95,6.98,.34Zm-27-22.14c0-2.9-3.35-8.01-4.78-10.07-.49-.71-1.29-1.14-2.17-1.14s-1.67,.43-2.16,1.14c-1.44,2.06-4.78,7.18-4.78,10.07,0,3.82,3.12,6.93,6.94,6.93s6.95-3.11,6.95-6.93Z"/><path class="cls-1" d="M70.83,52.53l1.66,.65c-3.6,8.65-10.51,15.59-19.14,19.24l-.15-1.89,1.57-.9-2.11-3.7,5.02,2.05,1.57-.9-3.45-6.06-1.57,.9,2.1,3.71-5.01-2.06h-.02l-1-1.72c3.96-2.22,7.75-7.11,10.48-10.64,.66-.87,1.26-1.63,1.82-2.3,.14-.19,.26-.38,.37-.57l1.72,.56-.47,1.48,6.63,2.15Zm-2.85,5.17l.94-1.54-5.97-3.63-.94,1.54,5.97,3.63Zm-3.84,5.1c.52-.55,.93-1.14,.9-1.99-.02-.71-.37-1.25-.83-1.67-.34-.34-.69-.53-1.21-.53-.55-.01-.97,.21-1.38,.45l-.5,.28c-.39,.23-.56,.23-.64,.23-.13-.01-.2-.06-.3-.15-.12-.09-.14-.24-.15-.38,0-.24,.14-.45,.26-.58,.15-.17,.47-.44,1.16-.55l-.53-1.48c-.71,.24-1.42,.68-1.9,1.17-.57,.62-.76,1.26-.74,1.76,.01,.43,.17,1.03,.78,1.61,.26,.25,.64,.56,1.17,.56,.42,.01,.83-.19,1.09-.33l.43-.25c.42-.24,.65-.38,.89-.4,.19-.02,.34,.05,.44,.14,.13,.12,.19,.28,.2,.43,.01,.17-.06,.42-.31,.68-.43,.46-1.08,.65-1.61,.68l.53,1.58c.59-.14,1.02-.34,1.13-.39,.49-.25,.81-.52,1.1-.84Z"/><path class="cls-2" d="M71.42,47.25c.37,.7,.56,1.74,.19,2.87l-.78,2.41-6.63-2.15,.47-1.48,.25-.77c.21-.66,.66-1.76,1.77-2.34,1-.55,2.01-.38,2.72-.15,.88,.28,1.58,.76,2.02,1.61Zm-1.39,2.74c.14-.42,.28-1.02,0-1.6-.14-.3-.46-.71-1.2-.96-.63-.19-1.21-.18-1.63,.06-.51,.27-.72,.81-.87,1.23l-.13,.42,3.71,1.2,.11-.34Z"/><path class="cls-1" d="M70.03,48.39c.28,.58,.14,1.19,0,1.6l-.11,.34-3.71-1.2,.13-.42c.14-.43,.36-.96,.87-1.23,.42-.24,1-.25,1.63-.06,.74,.25,1.06,.66,1.2,.96Z"/><rect class="cls-2" x="64.56" y="51.62" width="1.8" height="6.99" transform="translate(-15.63 82.44) rotate(-58.71)"/><path class="cls-2" d="M39.41,.25c21.59,0,39.17,17.56,39.17,39.17s-17.57,39.15-39.17,39.15c-11.45,0-21.77-4.94-28.93-12.79-.02-.01-.04-.01-.05-.02-.04-.04-.05-.07-.07-.11C4.08,58.7,.24,49.49,.24,39.42,.24,17.81,17.82,.25,39.41,.25Zm33.08,52.93c1.78-4.24,2.76-8.89,2.76-13.76C75.25,19.65,59.18,3.56,39.41,3.56S3.57,19.65,3.57,39.42c0,8.57,3.03,16.44,8.07,22.63,16.59-17.67,18.4-17.68,19.19-17.68,.9,0,2.16,.01,3.56,.04-1.58-1.33-3.62-2.12-5.84-2.12-6.83,0-12.4-5.56-12.4-12.41,0-.91,.74-1.65,1.66-1.65h13.5c3.31,0,6.24,1.67,7.97,4.24,1.74-2.56,4.67-4.24,7.99-4.24h13.51c.91,0,1.65,.74,1.65,1.65,0,6.85-5.56,12.41-12.4,12.41-2.33,0-4.44,.88-6.04,2.31,.95,.02,1.79,.04,2.43,.04,1.08,0,2.02,.59,2.57,1.66,.46,.87,.55,1.84,.55,2.5,0,.39-.02,.76-.08,1.12,1.17-1.12,2.46-2.4,3.2-3.14,.89-.89,1.59-1.6,2.03-1.99,1.61-1.44,5.91-1.72,7.75-.05,.83,.75,1.34,2.06,.51,3.62-.11,.19-.23,.38-.37,.57-.56,.68-1.15,1.44-1.82,2.3-2.73,3.54-6.51,8.42-10.48,10.64-1.31,.74-2.65,1.19-3.96,1.19h-15.13c-.91,0-1.66-.74-1.66-1.66s.75-1.66,1.66-1.66h15.13c3.65,0,8.96-6.85,11.82-10.54,.64-.83,1.21-1.57,1.7-2.16-.82-.23-2.47-.13-2.94,.24-.37,.31-1.07,1.02-1.89,1.84-5.03,5.04-6.48,6.21-7.78,6.21-.56,0-1.71-.01-2.98-.01-1.58-.01-3.35-.02-4.41-.02-2.03,0-3.12-1.36-3.12-2.65,0-.68,.3-1.36,.88-1.86,.56-.46,3.46-.77,3.46-.77,.64-.01,1.31-.02,1.98-.04,1.03-.04,2.06-.06,3-.07,.21-.45,.25-1.47,.07-1.95-1.14,0-2.71-.04-4.47-.07l-4.76-.09c-2.24-.05-4.39-.08-5.81-.08-1.84,1.01-9.9,9.05-17.22,16.84,4.35,4.43,9.85,7.72,15.99,9.42,3.05,.85,6.25,1.31,9.56,1.31,4.95,0,9.65-1.01,13.94-2.82,8.63-3.65,15.54-10.6,19.14-19.24Zm-13.53-21.65h-11.7c-3.48,0-6.32,2.84-6.32,6.32v5.08c2.27-2.44,5.51-3.97,9.09-3.97,4.45,0,8.15-3.2,8.93-7.43Zm-21.33,11.4v-5.08c0-3.49-2.84-6.32-6.32-6.32h-11.7c.78,4.22,4.5,7.43,8.93,7.43,3.58,0,6.82,1.53,9.09,3.97Z"/><path class="cls-2" d="M65.04,60.81c.02,.85-.38,1.45-.9,1.99-.3,.32-.62,.59-1.1,.84-.11,.05-.53,.25-1.13,.39l-.53-1.58c.53-.02,1.19-.21,1.61-.68,.25-.26,.32-.51,.31-.68-.01-.14-.07-.31-.2-.43-.09-.09-.25-.17-.44-.14-.24,.02-.47,.17-.89,.4l-.43,.25c-.26,.14-.68,.34-1.09,.33-.53,0-.91-.31-1.17-.56-.62-.58-.77-1.19-.78-1.61-.02-.5,.17-1.14,.74-1.76,.47-.5,1.19-.94,1.9-1.17l.53,1.48c-.69,.11-1.01,.38-1.16,.55-.12,.13-.26,.34-.26,.58,.01,.14,.04,.28,.15,.38,.09,.09,.17,.14,.3,.15,.08,0,.25,0,.64-.23l.5-.28c.4-.24,.83-.46,1.38-.45,.52,0,.87,.19,1.21,.53,.46,.43,.81,.96,.83,1.67Z"/><polygon class="cls-2" points="55.78 61.02 59.24 67.09 57.67 67.99 52.65 65.94 54.76 69.64 53.2 70.54 49.73 64.48 51.29 63.59 51.31 63.58 56.32 65.64 54.22 61.93 55.78 61.02"/><path class="cls-1" d="M56.9,47.26c.47-.37,2.12-.46,2.94-.24-.49,.59-1.06,1.33-1.7,2.16-2.86,3.69-8.16,10.54-11.82,10.54h-15.13c-.91,0-1.66,.75-1.66,1.66s.75,1.66,1.66,1.66h.24v1.98c-.37,0-.74,.08-1.09,.28-.39,.23-.85,.68-1.09,1.36l1.63,.45c.06-.21,.21-.43,.4-.53,.13-.07,.32-.09,.52-.04,.19,.06,.37,.18,.45,.32,.07,.13,.09,.36,.05,.53-.05,.15-.15,.32-.36,.42-.18,.08-.43,.12-.76-.04l-.33,1.19c.11-.01,.2,.01,.31,.04,.21,.06,.46,.19,.58,.37,.11,.14,.19,.38,.11,.68-.06,.2-.15,.37-.36,.5-.18,.11-.43,.2-.77,.09-.28-.07-.51-.24-.61-.45-.12-.2-.15-.49-.08-.75l-1.79-.49c-.15,.88,.09,1.57,.36,1.98,.43,.7,1.09,1.04,1.73,1.22l-.49,1.78c-6.15-1.7-11.64-5-15.99-9.42,7.32-7.78,15.38-15.83,17.22-16.84,1.42,0,3.57,.04,5.81,.08l4.76,.09c1.77,.04,3.33,.07,4.47,.07,.18,.47,.14,1.49-.07,1.95-.94,.01-1.97,.04-3,.07-.68,.01-1.34,.02-1.98,.04,0,0-2.91,.31-3.46,.77-.58,.5-.88,1.19-.88,1.86,0,1.28,1.09,2.65,3.12,2.65,1.07,0,2.84,.01,4.41,.02,1.27,0,2.42,.01,2.98,.01,1.31,0,2.75-1.16,7.78-6.21,.82-.82,1.52-1.53,1.89-1.84Zm-30.16,18.66l1.1-1.86c-.49-.64-.94-.97-1.21-1.14-.94-.56-1.98-.64-2.82-.42-.87,.23-1.72,.82-2.23,1.67-.46,.78-.63,1.79-.39,2.73,.2,.77,.74,1.65,1.79,2.28,.38,.23,.76,.36,1.52,.5l1.1-1.84c-.91,.27-1.51-.04-1.73-.18-.45-.26-.76-.69-.88-1.08-.14-.49-.04-1.04,.21-1.46,.25-.43,.69-.79,1.26-.91,.44-.09,.85-.02,1.31,.24,.26,.17,.84,.55,.97,1.47Z"/><path class="cls-1" d="M47.26,31.53h11.7c-.78,4.22-4.48,7.43-8.93,7.43-3.58,0-6.82,1.53-9.09,3.97v-5.08c0-3.49,2.85-6.32,6.32-6.32Z"/><path class="cls-1" d="M53.2,70.54l.15,1.89c-4.3,1.82-8.99,2.82-13.94,2.82-3.31,0-6.51-.45-9.56-1.31l.49-1.78c1,.28,1.73,.11,2.21-.15,.36-.2,.79-.59,1-1.31,.11-.38,.11-.74-.01-1.07-.08-.24-.25-.57-.63-.83,.28-.06,.47-.19,.66-.38,.23-.23,.36-.47,.44-.77,.13-.51,.05-1.02-.2-1.45-.36-.63-1-.91-1.49-1.06-.28-.08-.58-.13-.87-.13v-1.98h14.89c1.32,0,2.66-.45,3.96-1.19l1,1.73-1.55,.89,3.46,6.06Zm-4,1.29l-1.83-6.74-1.74,.47,1.83,6.74,1.74-.47Zm-8.6-2.97l-.26-2.23-.59-.02-.5,1.13-.38-1.16h-.61l-.44,2.2,.59,.02,.23-1.2,.43,1.22h.27l.53-1.19,.12,1.22h.61Zm-2.84-1.79l.02-.52-1.55-.05v.52h.45l-.06,1.72,.61,.02,.06-1.71h.47Z"/><rect class="cls-2" x="46.51" y="65.21" width="1.81" height="6.98" transform="translate(-16.33 14.8) rotate(-15.17)"/><path class="cls-2" d="M41.45,10.6c1.44,2.06,4.78,7.18,4.78,10.07,0,3.82-3.12,6.93-6.95,6.93s-6.94-3.11-6.94-6.93c0-2.9,3.35-8.01,4.78-10.07,.49-.71,1.31-1.14,2.16-1.14s1.68,.43,2.17,1.14Zm1.46,10.07c0-1.16-1.49-4.18-3.63-7.37-2.12,3.19-3.62,6.21-3.62,7.37,0,1.99,1.63,3.61,3.62,3.61s3.63-1.61,3.63-3.61Z"/><path class="cls-1" d="M39.28,13.3c2.14,3.19,3.63,6.21,3.63,7.37,0,1.99-1.63,3.61-3.63,3.61s-3.62-1.61-3.62-3.61c0-1.16,1.49-4.18,3.62-7.37Z"/><polygon class="cls-2" points="40.34 66.64 40.6 68.87 39.99 68.86 39.87 67.63 39.34 68.82 39.07 68.82 38.64 67.6 38.41 68.8 37.82 68.77 38.26 66.57 38.86 66.58 39.24 67.74 39.74 66.61 40.34 66.64"/><polygon class="cls-2" points="37.78 66.54 37.76 67.06 37.29 67.05 37.23 68.76 36.62 68.74 36.68 67.03 36.22 67.02 36.23 66.49 37.78 66.54"/><path class="cls-1" d="M37.63,37.85v5.08c-2.27-2.44-5.51-3.97-9.09-3.97-4.44,0-8.15-3.2-8.93-7.43h11.7c3.49,0,6.32,2.84,6.32,6.32Z"/><path class="cls-2" d="M33.8,66.21c.25,.43,.33,.94,.2,1.45-.08,.3-.21,.55-.44,.77-.19,.19-.38,.32-.66,.38,.38,.26,.55,.59,.63,.83,.12,.33,.12,.69,.01,1.07-.2,.71-.64,1.1-1,1.31-.47,.26-1.21,.44-2.21,.15-.64-.18-1.31-.52-1.73-1.22-.26-.42-.51-1.1-.36-1.98l1.79,.49c-.07,.26-.04,.55,.08,.75,.09,.21,.32,.38,.61,.45,.34,.11,.59,.01,.77-.09,.2-.13,.3-.3,.36-.5,.08-.3,0-.53-.11-.68-.12-.18-.37-.31-.58-.37-.11-.02-.2-.05-.31-.04l.33-1.19c.33,.15,.58,.12,.76,.04,.2-.09,.31-.26,.36-.42,.05-.18,.02-.4-.05-.53-.08-.14-.26-.26-.45-.32-.2-.06-.39-.04-.52,.04-.19,.11-.34,.32-.4,.53l-1.63-.45c.24-.69,.7-1.14,1.09-1.36,.36-.2,.72-.28,1.09-.28,.28,0,.58,.05,.87,.13,.5,.14,1.14,.43,1.49,1.06Z"/><path class="cls-2" d="M27.84,64.06l-1.1,1.86c-.13-.93-.71-1.31-.97-1.47-.45-.26-.87-.33-1.31-.24-.57,.12-1.01,.49-1.26,.91-.25,.42-.36,.97-.21,1.46,.12,.39,.43,.82,.88,1.08,.23,.14,.82,.45,1.73,.18l-1.1,1.84c-.76-.14-1.14-.27-1.52-.5-1.06-.63-1.59-1.51-1.79-2.28-.24-.94-.07-1.95,.39-2.73,.51-.85,1.36-1.45,2.23-1.67,.84-.23,1.89-.14,2.82,.42,.27,.17,.72,.5,1.21,1.14Z"/></g></g></svg>