<?xml version="1.0" encoding="utf-8"?>
<!-- Generator: Adobe Illustrator 26.3.1, SVG Export Plug-In . SVG Version: 6.00 Build 0)  -->
<svg version="1.1" id="Layer_2_00000041979072385762452180000000816880516152037802_"
	 xmlns="http://www.w3.org/2000/svg" xmlns:xlink="http://www.w3.org/1999/xlink" x="0px" y="0px" viewBox="0 0 74.8 32.3"
	 style="enable-background:new 0 0 74.8 32.3;" xml:space="preserve">
<style type="text/css">
	.st0{fill:#1A1A1A;}
</style>
<g id="main">
	<g transform="translate(492.25239 -497.58081)">
		<g>
			<path class="st0" d="M9.2,9v3.9H18v8.8H9.2v10.4H0V0.1h19.3l0.5,9H9.2z"/>
			<path class="st0" d="M45.8,5.1c3,3,4.5,6.7,4.5,11.1s-1.5,8-4.5,11.1c-3,3-6.6,4.6-10.9,4.6S27,30.3,24,27.2s-4.5-6.8-4.5-11.1
				S21,8.1,24,5.1c3-3.1,6.6-4.6,10.9-4.6S42.8,2,45.8,5.1z M32.5,22.4c0,0.7,0.3,1.3,0.8,1.9c0.5,0.5,1,0.6,1.7,0.6s1-0.1,1.6-0.6
				c0.5-0.5,0.8-1.1,0.8-1.9V9.7c0-0.7-0.3-1.4-0.8-1.9c-0.5-0.5-0.8-0.6-1.6-0.6s-1.2,0.1-1.7,0.6c-0.5,0.5-0.8,1.2-0.8,1.9V22.4z"
				/>
			<path class="st0" d="M64.4,32.3l-4.6-8l-4.6,8H45.1l9.6-16.7L45.7,0h10.3L60,6.7L63.7,0h10.2L65,15.5l9.8,16.8L64.4,32.3
				L64.4,32.3z"/>
		</g>
	</g>
</g>
<g transform="translate(492.25239 -497.58081)">
	<g>
		<path class="st0" d="M-483,506.6v3.9h8.8v8.8h-8.8v10.4h-9.2v-32.1h19.3l0.5,9H-483z"/>
		<path class="st0" d="M-446.5,502.6c3,3.1,4.5,6.7,4.5,11.1c0,4.3-1.5,8-4.5,11.1c-3,3.1-6.6,4.6-10.9,4.6c-4.3,0-7.9-1.5-10.9-4.6
			c-3-3.1-4.5-6.8-4.5-11.1c0-4.3,1.5-8,4.5-11.1c3-3.1,6.6-4.6,10.9-4.6C-453.1,498-449.5,499.6-446.5,502.6z M-459.8,520
			c0,0.7,0.3,1.3,0.8,1.9c0.5,0.5,1,0.6,1.7,0.6c0.7,0,1.1-0.1,1.6-0.6c0.5-0.5,0.8-1.1,0.8-1.9v-12.7c0-0.7-0.3-1.4-0.8-1.9
			c-0.5-0.5-0.8-0.6-1.6-0.6c-0.7,0-1.2,0.1-1.7,0.6c-0.5,0.5-0.8,1.2-0.8,1.9V520z"/>
		<path class="st0" d="M-427.8,529.8l-4.6-8l-4.6,8h-10.1l9.6-16.7l-9-15.6h10.3l3.9,6.7l3.8-6.7h10.2l-8.9,15.5l9.8,16.8
			L-427.8,529.8L-427.8,529.8z"/>
	</g>
</g>
</svg>
