<?xml version="1.0" encoding="UTF-8"?><svg id="Layer_2" xmlns="http://www.w3.org/2000/svg" viewBox="0 0 179.45 29.32"><defs><style>.cls-1{fill:#1a1a1a;}</style></defs><g id="main"><path class="cls-1" d="M10.84,13.51c-2.6,1.75-8.46,1.04-8.46,4.73,0,2.01,1.17,2.95,3.37,2.95s5.09-1.36,5.09-5.05v-2.62h0ZM1.57,5.83c.29,.26,.73,.45,1.24,.45,.62,0,3.04-.65,4.47-.65,3.84,0,5.75,1.59,5.75,5.77v9.2c0,.78,.29,1.46,1.02,2.01h-2.2c-.81,0-.99-.84-1.02-1.49-1.39,1.2-3.26,1.85-4.98,1.85-3.7,0-5.86-1.46-5.86-4.57,0-7.23,10.84-3.79,10.84-8.52,0-1.81-1.94-2.46-3.52-2.46-2.56,0-4.5,1.39-5.75,3.21V5.83m15.32,4.44c0-1.36-.44-2.2-1.24-3.05l3.22-1.23v1.78c1.87-1.65,3.11-2.14,4.98-2.14,2.2,0,3.77,.87,4.83,2.62,1.21-1.81,3.07-2.62,5.6-2.62,3.41,0,5.67,1.56,5.67,6.22v7.13c0,1.13,.22,2.56,1.24,3.63h-4.69c1.02-1.07,1.24-2.5,1.24-3.63v-7.55c0-2.17-.88-4.02-3.88-4.02-2.38,0-4.36,1.69-4.36,4.5v7.06c0,1.13,.22,2.56,1.24,3.63h-4.69c1.02-1.07,1.24-2.5,1.24-3.63v-7.55c0-2.17-.88-4.02-3.88-4.02-2.38,0-4.36,1.69-4.36,4.5v7.06c0,1.13,.22,2.56,1.24,3.63h-4.69c1.02-1.07,1.24-2.5,1.24-3.63V10.27m36.93,2.79v-1.39c0-2.36-1.28-4.24-4.1-4.24-3.7,0-4.83,2.95-4.94,5.64h9.04Zm-9.04,1.78v1.07c0,2.27,1.24,4.96,5.16,4.96,2.53,0,4.8-1.39,6.52-2.91-.51,3.53-3.73,5.02-6.85,5.02s-7.21-1.3-7.21-8.26,3.51-9.07,7.36-9.07c2.45,0,6.44,.97,6.44,7.03v2.33c-.4-.06-.95-.16-1.57-.16h-9.85m14.6-3.98c0-1.59-.44-2.62-1.57-3.63l3.19-1.23v1.78c1.76-1.65,3.33-2.14,5.2-2.14,.66,0,1.1,.1,1.46,.16,.37,.1,.69,.2,1.1,.2,.51,0,.81-.1,.99-.16v4.34l-.07-.06c-.66-1.26-2.05-2.53-3.96-2.53-1.79,0-4.14,1-4.14,5.05v6.35c0,1.13,.22,2.56,1.24,3.63h-4.69c1.02-1.07,1.24-2.5,1.24-3.63V10.85M73.99,0c.95,0,1.72,.68,1.72,1.52s-.77,1.52-1.72,1.52-1.72-.68-1.72-1.52S73.03,0,73.99,0Zm-1.17,9.91c0-1.36-.44-2.2-1.24-3.05l3.62-1.23v13.35c0,1.13,.22,2.56,1.24,3.63h-4.87c1.02-1.07,1.24-2.5,1.24-3.63V9.91m12.38-4.28c1.68,0,2.45,.49,3.15,.49,.73,0,1.1-.13,1.58-.49v5.02l-.07-.06c-.84-1.46-2.13-3.17-4.39-3.17s-4.98,1.36-4.98,7.32c0,4.83,2.67,6.13,5.09,6.13,2.16,0,3.81-1.26,4.94-2.76-.18,2.85-2.34,4.86-5.46,4.86-2.78,0-6.96-1.36-6.96-8.26,0-7,3.7-9.08,7.11-9.08m17.58,7.88c-2.6,1.75-8.46,1.04-8.46,4.73,0,2.01,1.17,2.95,3.37,2.95s5.09-1.36,5.09-5.05v-2.62Zm-9.26-7.68c.29,.26,.73,.45,1.24,.45,.62,0,3.04-.65,4.47-.65,3.84,0,5.75,1.59,5.75,5.77v9.2c0,.78,.29,1.46,1.02,2.01h-2.2c-.81,0-.99-.84-1.02-1.49-1.39,1.2-3.26,1.85-4.98,1.85-3.7,0-5.86-1.46-5.86-4.57,0-7.23,10.84-3.79,10.84-8.52,0-1.81-1.94-2.46-3.52-2.46-2.56,0-4.5,1.39-5.75,3.21V5.83m15.16,4.44c0-1.36-.44-2.2-1.24-3.05l3.22-1.23v1.78c1.87-1.65,3.11-2.14,5.24-2.14,2.89,0,5.67,1.42,5.67,5.7v7.65c0,1.13,.22,2.56,1.24,3.63h-4.69c1.02-1.07,1.24-2.5,1.24-3.63v-7.26c0-2.46-.95-4.31-3.88-4.31-2.64,0-4.61,1.69-4.61,4.5v7.07c0,1.13,.22,2.56,1.24,3.63h-4.69c1.02-1.07,1.24-2.5,1.24-3.63V10.27m25.75,7.62c1.39,1.85,3.48,3.31,5.75,3.31,2.89,0,4.43-1.43,4.43-3.4,0-4.96-9.92-1.59-9.92-7.87,0-1.91,1.76-4.27,5.89-4.27,2.2,0,3.77,.87,4.39,.87,.33,0,.62-.13,.92-.52v4.37l-.07-.06c-1.28-1.65-3.04-2.88-5.57-2.88-1.9,0-3.37,1.07-3.37,2.43,0,4.21,9.92,1.1,9.92,7.58,0,3.86-2.82,5.54-6.59,5.54-2.01,0-3.92-.78-4.8-.78-.29,0-.59,0-.99,.2v-4.5m17.24-2.56c0,4.86,2.64,5.87,4.58,5.87,2.89,0,5.49-1.94,5.49-6.87,0-5.96-2.82-6.9-4.98-6.9s-5.09,1.04-5.09,5.99v1.91h0Zm-2.2-5.06c0-1.36-.33-2.53-1.24-3.4l3.08-.87v2.04h.07c1.58-1.72,3.22-2.4,5.49-2.4,4.18,0,7.25,2.27,7.25,8.1,0,6.28-3.04,9.23-7.69,9.23-2.05,0-3.44-.52-4.76-1.69v4.4c0,1.13,.22,2.56,1.24,3.63h-4.68c1.02-1.07,1.24-2.5,1.24-3.63V10.27m26.76,3.24c-2.6,1.75-8.46,1.04-8.46,4.73,0,2.01,1.17,2.95,3.37,2.95s5.09-1.36,5.09-5.05v-2.62Zm-9.26-7.68c.29,.26,.73,.45,1.24,.45,.62,0,3.04-.65,4.47-.65,3.84,0,5.75,1.59,5.75,5.77v9.2c0,.78,.29,1.46,1.02,2.01h-2.2c-.81,0-.99-.84-1.02-1.49-1.39,1.2-3.26,1.85-4.98,1.85-3.7,0-5.86-1.46-5.86-4.57,0-7.23,10.84-3.79,10.84-8.52,0-1.81-1.94-2.46-3.51-2.46-2.56,0-4.5,1.39-5.75,3.21V5.83"/></g></svg>