<?xml version="1.0" encoding="UTF-8"?><svg id="Layer_2" xmlns="http://www.w3.org/2000/svg" viewBox="0 0 65.47 65.47"><defs><style>.cls-1{fill:#1a1a1a;stroke:#000;stroke-miterlimit:2.61;stroke-width:.22px;}</style></defs><g id="main"><path class="cls-1" d="M32.72,65.36c-5.85,0-11.29-1.47-16.3-4.39-5.03-2.93-8.99-6.9-11.92-11.92C1.57,44.04,.11,38.6,.11,32.75s1.46-11.32,4.39-16.33c2.93-5.03,6.9-8.99,11.92-11.92C21.43,1.57,26.87,.11,32.72,.11c4.45,0,8.65,.84,12.6,2.52,3.95,1.69,7.43,4.04,10.45,7.06,3.01,3.01,5.36,6.5,7.06,10.45,1.69,3.96,2.53,8.16,2.53,12.61,0,5.85-1.46,11.29-4.39,16.3-2.93,5.03-6.9,8.99-11.92,11.92-5.01,2.92-10.45,4.39-16.33,4.39h0Zm28.56-29.78h-4.51c-.84,1.34-2.08,2.02-3.71,2.02-1.4,0-2.58-.47-3.52-1.41-.94-.94-1.41-2.14-1.41-3.61,0-1.37,.44-2.52,1.34-3.46,.88-.94,2.03-1.41,3.43-1.41,1.69,0,2.99,.71,3.88,2.14h4.51c-.32-1.18-.91-2.23-1.74-3.12-.83-.9-1.81-1.61-2.99-2.12-1.16-.53-2.36-.78-3.58-.78-2.42,0-4.49,.84-6.22,2.52-1.74,1.69-2.61,3.77-2.61,6.25s.91,4.72,2.74,6.45c1.69,1.69,3.73,2.55,6.09,2.55,1.86,0,3.57-.56,5.14-1.69,1.56-1.13,2.62-2.56,3.17-4.3h0Zm-36.94-3.11c.09,2.58,.94,4.73,2.56,6.45,1.68,1.77,3.95,2.65,6.81,2.65,2.48,0,4.51-.94,6.12-2.83,1.41-1.71,2.12-3.74,2.12-6.09s-.85-4.36-2.55-6.03c-1.71-1.65-3.77-2.49-6.2-2.49-1.22,0-2.23,.25-3.02,.72-.81,.49-1.36,.9-1.68,1.22l-.09,.12v-7.44h-4.07v13.7h0Zm4.16,.28c0-1.36,.49-2.49,1.46-3.4,.97-.91,2.17-1.37,3.58-1.37s2.52,.47,3.39,1.43c.87,.94,1.3,2.15,1.3,3.6s-.44,2.56-1.33,3.48c-.88,.93-2,1.39-3.36,1.39-1.47,0-2.68-.5-3.63-1.49-.94-1-1.41-2.21-1.41-3.63Zm-24.51,0c0,1.92,.68,3.76,2.03,5.48,1.56,1.83,3.91,2.74,7,2.74,1.81,0,3.46-.62,4.95-1.86v1.86h3.63v-8.31c0-3.26-.94-5.54-2.84-6.82-1.89-1.3-3.77-1.95-5.64-1.95-3.05,0-5.35,.94-6.9,2.83-1.49,1.65-2.23,3.65-2.23,6.03h0Zm8.96-5.23c1.41,0,2.58,.47,3.49,1.4,.9,.94,1.36,2.12,1.36,3.55s-.46,2.61-1.37,3.55c-.91,.94-2.08,1.41-3.48,1.41s-2.53-.47-3.51-1.39c-.97-.93-1.46-2.08-1.46-3.48s.46-2.64,1.39-3.61c.93-.96,2.12-1.44,3.58-1.44h0Z"/></g></svg>