<?xml version="1.0" encoding="UTF-8"?><svg id="Layer_2" xmlns="http://www.w3.org/2000/svg" viewBox="0 0 199.29 28.2"><defs><style>.cls-1{fill:#1a1a1a;}</style></defs><g id="main"><path class="cls-1" d="M82.45,11.46v.3l2.19,.7v14.15l-2.62,.8v.23c2.69-.1,5.41-.1,8.11,0v-.23l-2.43-.8c-.13-3.99-.17-8.14-.03-12.13,.83-1.16,2.89-2.33,4.25-2.33,3.06,0,3.09,3.69,3.09,6.08,0,2.76-.03,5.55-.03,8.31l-2.43,.86v.23c2.59-.1,5.22-.1,7.81,0v-.23l-2.36-.8c0-2.76,0-5.55-.03-8.31-.03-4.48-.96-7.38-5.75-7.34-1.73,0-3.32,.83-4.55,2.13-.03-.6,0-1.2,.03-1.76l-.6-.4c-1.59,.37-2.99,.33-4.65,.53Zm25.98,.33l2.43,.8c.1,3.99,.03,8.04,.03,12.03-.83,1.16-2.89,2.33-4.25,2.33-3.06-.03-3.09-3.65-3.09-6.08,0-3.12,.03-6.18,.03-9.27-1.79,.1-3.65,.1-5.41,0v.2l2.36,.8c-.03,2.76,0,5.45,0,8.21,0,4.52,1.03,7.38,5.78,7.34,1.73,0,3.32-.83,4.55-2.13,0,.56,0,1.2-.03,1.76l.56,.4c1.63-.33,3.06-.33,4.68-.5v-.3l-2.16-.7c0-5.02-.03-10.03-.03-15.05-1.83,.1-3.65,.03-5.45-.03v.2h0Zm11.26-4.45c-.66,2.92-1.66,4.32-4.39,5.25v.27h2.23c0,3.16-.03,6.25-.03,9.4s.23,5.85,3.75,5.85c1.59,.07,3.16-.53,4.35-1.59v-.43c-1.4,1.1-3.52,1.86-4.52-.23-.53-1.1-.5-2.56-.5-3.82,0-3.06-.03-6.11,0-9.2h4.32v-1.4l-4.25,.1V7.31l-.96,.03h0Zm11.93,6.74c-.03-.93-.03-1.83,.03-2.76l-.56-.4c-1.53,.33-3.12,.5-4.68,.5v.3l2.19,.7v14.15l-2.62,.8v.23c2.69-.1,5.41-.1,8.11,0v-.23l-2.43-.8c-.03-2.19,0-4.32,0-6.48,0-2.36-.2-5.55,1.73-7.18,.5-.43,1.56-.96,2.13-.33,.37,.4-.13,1.43-.13,1.96,0,1.73,3.42,1.86,3.39-.83-.03-1.99-1.26-2.86-2.69-2.86-1.99,.07-3.75,1.36-4.45,3.22Zm10.3-10.33c-.07,1.13,.8,2.09,1.89,2.16,1.13,.07,2.09-.8,2.16-1.89v-.23c0-1.43-1.03-2.16-2.03-2.16s-2.03,.7-2.03,2.13Zm-2.62,8.14v.23l2.89,.5c.2,4.65,.1,9.37,0,14.02l-2.62,.8v.23c2.69-.1,5.45-.1,8.14,0v-.23l-2.39-.8c0-5.32-.3-10.8,.03-16.11l-.6-.4c-2.26,1.33-2.96,1.33-5.45,1.76Zm12.13-4.55c-.66,2.92-1.66,4.32-4.39,5.25v.27h2.23c0,3.16-.03,6.25-.03,9.4s.27,5.85,3.75,5.85c1.59,.07,3.16-.53,4.35-1.59v-.43c-1.4,1.1-3.52,1.86-4.52-.23-.53-1.1-.5-2.56-.5-3.82,0-3.06-.03-6.11,0-9.2h4.32v-1.4l-4.25,.1V7.31l-.96,.03h0Zm9.07-3.59c-.07,1.13,.8,2.09,1.89,2.16,1.13,.07,2.09-.8,2.16-1.89v-.23c0-1.43-1.03-2.16-2.03-2.16s-2.03,.7-2.03,2.13Zm-2.59,8.14v.23l2.89,.5c.2,4.65,.1,9.37,0,14.02l-2.62,.8v.23c2.69-.1,5.45-.1,8.14,0v-.23l-2.39-.8c0-5.32-.3-10.8,.03-16.11l-.56-.4c-2.33,1.33-3.02,1.33-5.48,1.76Zm11.26,7.67c-.03-10.4,9.34-10.27,9.43-.13,.03,5.18-2.39,7.91-4.82,7.91s-4.62-2.52-4.62-7.77Zm-3.45-.1c.13,11.59,16.11,11.49,16.11-.03,0-5.68-3.99-8.44-7.97-8.44-4.09-.03-8.21,2.86-8.14,8.47h0Zm15.68-8.01v.3l2.19,.7v14.15l-2.62,.8v.23c2.69-.1,5.41-.1,8.11,0v-.23l-2.43-.8c-.13-3.99-.17-8.14-.03-12.13,.83-1.16,2.89-2.33,4.25-2.33,3.06,0,3.09,3.69,3.09,6.08,0,2.76-.03,5.55-.03,8.31l-2.43,.86v.23c2.59-.1,5.22-.1,7.81,0v-.23l-2.36-.8c0-2.76,0-5.55-.03-8.31-.03-4.48-.96-7.38-5.75-7.34-1.73,0-3.32,.83-4.55,2.13-.03-.6,0-1.2,.03-1.76l-.56-.4c-1.63,.37-3.02,.33-4.68,.53ZM5.85,25.05l.03-10.43c.9-1.23,2.56-2.43,4.09-2.43,6.21,0,5.95,14.78,0,14.78-1.63,0-2.92-.76-4.12-1.93ZM0,1.56l.03,.23,2.89,.5c.03,.63,0,1.23,0,1.86,0,2.52,.03,10.9,.03,10.9-.83,1.59-1.53,3.22-2.13,4.92l.17,.1,1.79-2.89c-.03,3.12,.03,6.31-.1,9.4l-2.36,.6v.23c1.73,.17,3.42,.27,5.12,.76l.37-.4v-1.59c1.36,1.26,3.12,1.96,4.95,1.96,9.37-.17,9.73-17.18,0-17.14-1.96,0-3.49,.83-4.92,2.19,0-4.25-.13-8.5,.13-12.79l-.56-.4C3.52,1.03,2.13,1.33,0,1.56ZM25.55,17.97c-.8,0-1.56-.07-2.36-.17,.66-7.64,7.81-7.14,7.81-3.19,0,3.19-2.33,3.39-4.52,3.39h-.93v-.03Zm-4.68-2.89c-.33,.6-.6,1.26-.73,1.96l-1.83-.53-.1,.27,1.79,.96c-1.43,9.7,8.84,13.99,13.45,7.04l-.3-.17c-1.4,1.59-2.52,2.33-4.58,2.33-4.22,.03-5.75-4.45-5.55-8.31,1.59,.3,3.19,.47,4.82,.47,2.16,0,6.28-.43,6.28-3.59,0-3.75-3.72-4.52-6.54-4.52s-5.22,1.43-6.71,4.09Zm18.11-7.74c-.66,2.92-1.66,4.32-4.39,5.25v.27h2.23c0,3.16-.03,6.25-.03,9.4s.27,5.85,3.75,5.85c1.59,.07,3.16-.53,4.35-1.59v-.43c-1.4,1.1-3.52,1.86-4.52-.23-.53-1.1-.5-2.56-.5-3.82,0-3.06-.03-6.11,0-9.2h4.32v-1.4l-4.25,.1V7.31l-.96,.03h0Zm10.5,0c-.66,2.92-1.66,4.32-4.39,5.25v.27h2.23c0,3.16-.03,6.25-.03,9.4s.23,5.85,3.79,5.85c1.59,.07,3.16-.53,4.35-1.59v-.43c-1.4,1.1-3.52,1.86-4.52-.23-.53-1.1-.5-2.56-.5-3.82,0-3.06-.03-6.11,0-9.2h4.29v-1.4l-4.25,.1V7.31l-.96,.03h0Zm10.96,10.63c-.8,0-1.56-.07-2.36-.17,.66-7.64,7.81-7.14,7.81-3.19,0,3.19-2.33,3.39-4.52,3.39h-.93v-.03Zm-4.68-2.89c-.37,.6-.6,1.26-.73,1.96l-1.83-.53-.1,.27,1.79,.96c-1.4,9.7,8.87,13.99,13.49,7.04l-.3-.17c-1.4,1.59-2.52,2.33-4.58,2.33-4.22,.03-5.75-4.45-5.55-8.31,1.59,.33,3.19,.5,4.82,.5,2.16,0,6.28-.43,6.28-3.59,0-3.79-3.72-4.52-6.54-4.52-2.82-.03-5.25,1.4-6.74,4.05h0Zm18.7-1c-.03-.93-.03-1.83,.03-2.76l-.56-.4c-1.56,.33-3.12,.5-4.72,.5v.3l2.19,.7v14.15l-2.62,.8v.23c2.69-.1,5.41-.1,8.11,0v-.23l-2.43-.8c-.03-2.19,0-4.32,0-6.48,0-2.36-.2-5.55,1.73-7.18,.5-.43,1.56-.96,2.13-.33,.37,.4-.13,1.43-.13,1.96,0,1.73,3.42,1.86,3.39-.83,0-1.99-1.23-2.86-2.69-2.86-1.99,.07-3.75,1.36-4.42,3.22Z"/></g></svg>