<svg xmlns="http://www.w3.org/2000/svg" viewBox="0 0 189.67 38.92"><defs><style>.cls-1{fill:#fff;}</style></defs><title>logo-white</title><g id="Layer_2" data-name="Layer 2"><g id="Layer_1-2" data-name="Layer 1"><path class="cls-1" d="M35.39,1.06V28.67a1.07,1.07,0,0,1-1.06,1.06H31.54a1.06,1.06,0,0,1-1.06-1.06V1.06A1.06,1.06,0,0,1,31.54,0h2.78a1.07,1.07,0,0,1,1.06,1.06"/><path class="cls-1" d="M58.64,13.58V28.67a1.07,1.07,0,0,1-1.06,1.07H53.8V28.16h-.07a5.55,5.55,0,0,1-4.66,2.14,6.94,6.94,0,0,1-5.77-2.77A10.25,10.25,0,0,1,41.14,21a9.93,9.93,0,0,1,2.16-6.36A6.92,6.92,0,0,1,49,12a6,6,0,0,1,4.8,2.17V12.52h3.77a1.07,1.07,0,0,1,1.06,1.07M47.26,24.46a3.53,3.53,0,0,0,2.93,1.49,3.58,3.58,0,0,0,2.95-1.49,5.32,5.32,0,0,0,1.16-3.35,5.25,5.25,0,0,0-1.16-3.33,3.59,3.59,0,0,0-2.95-1.47,3.54,3.54,0,0,0-2.93,1.47,5.3,5.3,0,0,0-1.14,3.33,5.37,5.37,0,0,0,1.14,3.35"/><path class="cls-1" d="M70.59,12.52V14.1h.07A5,5,0,0,1,75.15,12q6,0,6,7.26v9.45A1.06,1.06,0,0,1,80,29.73H77.27a1.06,1.06,0,0,1-1.06-1.06V19.29a8.21,8.21,0,0,0-.14-1.17,3.22,3.22,0,0,0-.39-1.19,2.52,2.52,0,0,0-.79-.7,2.56,2.56,0,0,0-1.35-.33,2.69,2.69,0,0,0-1.67.49A2.54,2.54,0,0,0,71,17.83a12,12,0,0,0-.32,1.63q-.07.67-.07,1.75v7.46a1.06,1.06,0,0,1-1.06,1.06H66.75a1.06,1.06,0,0,1-1.06-1.06V13.58a1.07,1.07,0,0,1,1.06-1.06Z"/><path class="cls-1" d="M103.41,21.91H92.09a6.2,6.2,0,0,0,.82,3.26,2.79,2.79,0,0,0,2.58,1.37,3.37,3.37,0,0,0,2.93-1.7,1.1,1.1,0,0,1,1.09-.53l2.43.4a1.08,1.08,0,0,1,.77,1.58,7.31,7.31,0,0,1-2.38,2.6,8.52,8.52,0,0,1-4.84,1.4,8.13,8.13,0,0,1-6.26-2.51,9.17,9.17,0,0,1-2.33-6.5,10.2,10.2,0,0,1,2.16-6.71A7.57,7.57,0,0,1,95.24,12a7.31,7.31,0,0,1,6.1,2.61,10.54,10.54,0,0,1,2.07,6.75Zm-11.19-3h6.56a4.81,4.81,0,0,0-1.07-2.46,2.75,2.75,0,0,0-2.19-1,2.78,2.78,0,0,0-2.24,1,4.8,4.8,0,0,0-1.05,2.47"/><path class="cls-1" d="M114.7,16.66v12a1.07,1.07,0,0,1-1.06,1.06h-2.78a1.06,1.06,0,0,1-1.06-1.06v-12h-1.68V12.52h1.68V7.76a1.06,1.06,0,0,1,1.06-1.06h2.78a1.06,1.06,0,0,1,1.06,1.06v4.75h2a1.07,1.07,0,0,1,1.06,1.07v2a1.06,1.06,0,0,1-1.06,1.06Z"/><path class="cls-1" d="M138.58,13.58V28.67a1.07,1.07,0,0,1-1.06,1.07h-3.77V28.16h-.07A5.55,5.55,0,0,1,129,30.3a6.94,6.94,0,0,1-5.77-2.77A10.26,10.26,0,0,1,121.08,21a9.94,9.94,0,0,1,2.15-6.36,6.92,6.92,0,0,1,5.7-2.72,6,6,0,0,1,4.81,2.17V12.52h3.77a1.06,1.06,0,0,1,1.06,1.07M127.2,24.46a3.53,3.53,0,0,0,2.93,1.49,3.58,3.58,0,0,0,2.95-1.49,5.32,5.32,0,0,0,1.16-3.35,5.25,5.25,0,0,0-1.16-3.33,3.59,3.59,0,0,0-2.95-1.47,3.54,3.54,0,0,0-2.93,1.47,5.3,5.3,0,0,0-1.14,3.33,5.37,5.37,0,0,0,1.14,3.35"/><path class="cls-1" d="M150.54,12.52v1.79h.07A4.85,4.85,0,0,1,154.88,12a5.65,5.65,0,0,1,2,.42l-.6,4.56a3.39,3.39,0,0,0-2-.63,3.85,3.85,0,0,0-1.7.35,2.91,2.91,0,0,0-1.1.88,4.12,4.12,0,0,0-.61,1.33,7.56,7.56,0,0,0-.28,1.51c0,.47-.05,1-.05,1.61v6.68a1.06,1.06,0,0,1-1.06,1.06h-2.78a1.06,1.06,0,0,1-1.06-1.06V13.58a1.07,1.07,0,0,1,1.06-1.06Z"/><path class="cls-1" d="M162.65,3.24a2.88,2.88,0,0,1,4.1,0,2.8,2.8,0,0,1,.86,2.05,2.91,2.91,0,1,1-5.82,0,2.79,2.79,0,0,1,.86-2.05m4.51,10.34V28.67a1.07,1.07,0,0,1-1.06,1.06h-2.78a1.06,1.06,0,0,1-1.06-1.06V13.58a1.06,1.06,0,0,1,1.06-1.06h2.78a1.07,1.07,0,0,1,1.06,1.06"/><path class="cls-1" d="M189.67,21.91H178.34a6.18,6.18,0,0,0,.82,3.26,2.79,2.79,0,0,0,2.58,1.37,3.37,3.37,0,0,0,2.93-1.7,1.1,1.1,0,0,1,1.09-.53l2.43.4a1.08,1.08,0,0,1,.77,1.58,7.31,7.31,0,0,1-2.38,2.6,8.52,8.52,0,0,1-4.84,1.4,8.14,8.14,0,0,1-6.26-2.51,9.17,9.17,0,0,1-2.33-6.5,10.2,10.2,0,0,1,2.15-6.71A7.57,7.57,0,0,1,181.5,12a7.32,7.32,0,0,1,6.1,2.61,10.55,10.55,0,0,1,2.07,6.75Zm-11.19-3H185A4.82,4.82,0,0,0,184,16.41a2.75,2.75,0,0,0-2.19-1,2.78,2.78,0,0,0-2.24,1,4.83,4.83,0,0,0-1.05,2.47"/><path class="cls-1" d="M22.83,15.12A7.47,7.47,0,0,0,17,12a5.92,5.92,0,0,0-4.89,2.14L10.9,12.33l-.11-.17L10.71,12h0a4.28,4.28,0,0,0-3.41-1.71H0a5.79,5.79,0,0,0,5.79,5.79,5.79,5.79,0,0,1,1.37.18V34.66a4.26,4.26,0,0,0,4.26,4.26h.65V28.12h.07a4.68,4.68,0,0,0,2,1.6,6.23,6.23,0,0,0,2.63.58,7,7,0,0,0,5.8-2.75A10.23,10.23,0,0,0,24.69,21a9.93,9.93,0,0,0-1.86-5.91m-4.26,9.33a3.62,3.62,0,0,1-5.86,0,5.38,5.38,0,0,1-1.14-3.35,5.31,5.31,0,0,1,1.14-3.33,3.65,3.65,0,0,1,5.86,0,5.3,5.3,0,0,1,1.14,3.33,5.37,5.37,0,0,1-1.14,3.35"/></g></g></svg>