<?xml version="1.0" encoding="UTF-8"?><svg id="Layer_2" xmlns="http://www.w3.org/2000/svg" viewBox="0 0 137.57 43.62"><defs><style>.cls-1{fill:#1a1a1a;}</style></defs><g id="main"><path class="cls-1" d="M29.34,.31c.99,0,1.99,0,2.98,0-.01,3.56,.04,7.13-.02,10.69-.03,2.3-1,4.75-3.1,5.89-2.38,1.21-5.4,1.21-7.74-.11-1.99-1.16-2.96-3.56-2.9-5.79,.01-3.56,0-7.12,0-10.68h2.9c0,3.08,0,6.16,0,9.24,.05,1.42,.05,2.96,.91,4.17,1.14,1.58,3.55,1.72,5.16,.84,1.46-.88,1.77-2.72,1.8-4.28,.02-3.32,0-6.64,.01-9.96m12.93,.07c2.51-.75,5.31-.29,7.54,1.04-.01,1.04-.01,2.08-.01,3.12-1.88-1.4-4.37-2.43-6.7-1.61-1.01,.3-1.67,1.51-1.18,2.49,.4,.93,1.48,1.21,2.34,1.55,1.85,.74,3.98,1.13,5.35,2.69,1.76,2.13,1.31,5.91-1.26,7.2-2.9,1.5-6.53,1.02-9.31-.54,0-1.07,0-2.14-.01-3.21,2.09,1.61,5,2.57,7.56,1.59,1.4-.51,1.58-2.68,.31-3.43-1.97-1.19-4.38-1.43-6.27-2.79-1.66-1.19-2.15-3.56-1.46-5.42,.51-1.35,1.76-2.29,3.11-2.69M69.2,.05c3.95,3.62,7.79,7.37,11.66,11.07V.31h2.9V17.8c-3.95-3.75-7.79-7.62-11.77-11.35v10.97c-.94,0-1.87,0-2.81,.01,0-5.79-.02-11.58,.01-17.37m22.17,.25c3.5,0,6.99,.02,10.48-.01,.02,.88,.02,1.76,.02,2.64-2.51,0-5.01,0-7.52,0V7c2.23,0,4.47,0,6.7,0v2.62c-2.24,0-4.47,0-6.7,0,0,1.72,0,3.44,0,5.17,2.5-.01,5,0,7.5,0,0,.91,0,1.81,0,2.72h-10.5c0-5.73,0-11.47,0-17.21m18.99,.67c2.72-1.57,6.19-1.09,8.85,.36,.05,1.06,.05,2.13,.05,3.2-1.93-1.45-4.54-2.48-6.91-1.54-1.35,.48-1.5,2.51-.28,3.22,1.99,1.14,4.43,1.38,6.3,2.78,2.51,1.87,2.32,6.39-.54,7.84-2.9,1.52-6.56,1.07-9.34-.54,0-1.06,0-2.12-.02-3.17,2.02,1.44,4.59,2.43,7.09,1.75,.92-.23,1.76-1.06,1.63-2.07,.02-.78-.52-1.46-1.21-1.77-1.96-1.01-4.26-1.3-6.04-2.67-2.31-1.79-2.16-5.9,.42-7.39m17.39,.06c2.69-1.63,6.22-1.19,8.88,.3,.01,1.05,.01,2.1,.02,3.16-1.92-1.45-4.53-2.43-6.87-1.47-1.31,.51-1.46,2.48-.26,3.2,2.04,1.19,4.59,1.38,6.46,2.89,1.61,1.27,1.93,3.62,1.31,5.47-.58,1.65-2.25,2.61-3.88,2.97-2.51,.52-5.18,.05-7.41-1.2-.04-1.08-.04-2.15-.04-3.23,2.11,1.56,4.98,2.57,7.54,1.58,1.39-.51,1.61-2.64,.35-3.42-2.02-1.26-4.57-1.44-6.47-2.94-2.23-1.79-2.13-5.8,.37-7.3M0,.31C3.04,.49,6.19-.14,9.13,.82c3.26,1.05,3.73,6.15,.75,7.81,2.71,1.12,3.34,4.97,1.47,7.1-1.14,1.36-3.01,1.72-4.71,1.77-2.22,.04-4.43,0-6.65,.01V.31M2.9,2.94c0,1.51,0,3.01,0,4.52,1.56-.08,3.17,.22,4.69-.22,1.84-.53,1.85-3.56,.03-4.11-1.54-.39-3.15-.12-4.72-.19m0,7.06c0,1.63,0,3.26,0,4.88,1.79-.13,3.71,.35,5.4-.4,1.68-.82,1.53-3.61-.23-4.23-1.67-.52-3.45-.14-5.17-.25M58.05,.31h2.9V17.51h-2.9V.31Zm-11.87,26.71c2.71-1.71,6.31-1.24,8.99,.31-.01,1.04-.01,2.07-.01,3.11-1.96-1.43-4.64-2.53-7-1.44-1.16,.55-1.31,2.28-.27,3.03,2.14,1.36,5,1.43,6.85,3.29,1.24,1.17,1.44,3.03,1.13,4.63-.37,1.59-1.76,2.78-3.29,3.23-2.68,.83-5.69,.38-8.11-1.02,0-1.06,.01-2.12,0-3.18,2.04,1.53,4.81,2.54,7.32,1.64,1.51-.41,1.81-2.73,.45-3.49-2.02-1.26-4.6-1.42-6.46-2.99-2.11-1.78-1.97-5.62,.42-7.12m-34.67-.72h2.89c0,5.67,0,11.35,0,17.02h-2.9V26.3Zm11.13-.4c3.85,3.68,7.7,7.37,11.59,11.02,.01-3.57,0-7.14,0-10.71,.96,0,1.93,0,2.9,0,0,5.81,0,11.61,0,17.41-3.93-3.72-7.78-7.53-11.68-11.29-.02,3.66,0,7.33,0,10.99h-2.81c0-5.81,0-11.62,0-17.42h0Zm40.75,.4h2.9v17.02h-2.9V26.3Zm11.23,0c2.33,0,4.67,0,7.01,0,2.65-.03,5.4,1.33,6.69,3.7,1.39,2.49,1.48,5.59,.62,8.27-.93,2.82-3.69,4.82-6.63,5.01-2.56,.13-5.13,.02-7.69,.05V26.3Zm2.98,2.63v11.77c2.08-.08,4.31,.32,6.24-.65,1.86-.96,2.71-3.13,2.65-5.13,.08-2.02-.64-4.29-2.5-5.32-1.95-1.09-4.27-.52-6.39-.66m17.84-2.63c3.47,0,6.94,0,10.41,0,0,.88,0,1.75,0,2.63-2.51,0-5.01,0-7.51,0v3.98c2.23,0,4.47,0,6.7,0v2.54c-2.23,0-4.47,0-6.7,0v5.24c2.5,0,5.01,0,7.52,0v2.63h-10.41V26.3Zm18.93,0c2.35,.02,4.7-.02,7.05,.01,1.99,.05,4.1,1.2,4.68,3.21,.51,1.75,.39,3.83-.73,5.32-.69,.89-1.8,1.23-2.85,1.52,2.04,2.3,4.06,4.62,6.06,6.95-1.15,.02-2.29,.02-3.43,0-1.94-2.31-3.92-4.58-5.87-6.87-.64,0-1.29,0-1.93,0,0,2.29,0,4.59,0,6.88-1,0-1.99,0-2.99,0V26.29m2.99,2.55c0,1.69,0,3.38,0,5.06,1.55-.09,3.16,.24,4.66-.24,1.85-.74,1.89-3.71,.07-4.51-1.5-.57-3.15-.24-4.72-.32"/></g></svg>