<?xml version="1.0" encoding="UTF-8"?><svg id="Layer_2" xmlns="http://www.w3.org/2000/svg" viewBox="0 0 107.85 27.02"><defs><style>.cls-1{fill:#1a1a1a;}</style></defs><g id="main"><g><path class="cls-1" d="M65.7,7.68c-1.74,0-3.1,.37-4.46,1.12,0-3.97,0-7.56,.12-8.8l-8.31,1.49v.74l.87,.12c1.11,.25,1.49,.87,1.73,2.36,.25,2.97,.12,18.84,0,21.44,2.23,.5,4.59,.87,6.94,.87,6.57,0,10.54-4.09,10.54-10.54,0-5.08-3.22-8.8-7.44-8.8h0Zm-2.85,17.97c-.5,0-1.12,0-1.49-.12-.12-1.74-.25-9.05-.12-15.49,.74-.25,1.24-.37,1.86-.37,2.73,0,4.22,3.22,4.22,7.19,0,4.96-1.86,8.8-4.46,8.8h0ZM21.82,.5H0V1.61l1.24,.12c1.61,.25,2.23,1.24,2.48,3.59,.37,4.46,.25,12.52,0,16.36-.25,2.36-.87,3.47-2.48,3.59l-1.24,.25v.99H14.01v-.99l-1.49-.25c-1.61-.12-2.23-1.24-2.48-3.59-.12-1.61-.25-4.22-.25-7.44l2.97,.12c1.86,0,2.73,1.49,3.1,3.59h1.12V9.17h-1.12c-.37,2.11-1.24,3.59-3.1,3.59l-2.97,.12c0-4.21,.12-8.18,.25-10.54h4.34c3.35,0,5.08,2.11,6.32,5.83l1.24-.37-.12-7.31h0Z"/><path class="cls-1" d="M28.88,7.44c6.2,0,9.3,4.21,9.3,9.79s-3.47,9.79-9.67,9.79-9.3-4.22-9.3-9.79,3.47-9.79,9.67-9.79h0Zm-.37,1.24c-2.73,0-3.47,3.72-3.47,8.55s1.24,8.55,3.72,8.55c2.85,0,3.59-3.72,3.59-8.55s-1.24-8.55-3.84-8.55Zm46.24,8.68c0-5.08,3.22-9.92,9.54-9.92,5.2,0,7.69,3.84,7.69,8.92h-11.53c-.12,4.59,2.11,7.93,6.57,7.93,1.98,0,2.97-.49,4.22-1.36l.49,.62c-1.24,1.74-3.97,3.47-7.44,3.47-5.58,0-9.54-3.97-9.54-9.67h0Zm5.7-2.36l5.83-.12c0-2.48-.37-6.2-2.48-6.2s-3.22,3.47-3.35,6.32Zm26.28-6.57c-1.49-.62-3.47-.99-5.7-.99-4.59,0-7.44,2.73-7.44,5.95s2.11,4.59,5.08,5.58c3.1,1.11,3.97,1.98,3.97,3.47s-1.12,2.85-3.1,2.85c-2.35,0-4.09-1.36-5.45-5.08l-.87,.25,.12,5.45c1.49,.62,4.21,1.12,6.57,1.12,4.83,0,7.93-2.48,7.93-6.32,0-2.6-1.36-4.09-4.59-5.33-3.47-1.36-4.71-2.23-4.71-3.84s1.12-2.73,2.6-2.73c2.23,0,3.72,1.36,4.83,4.71l.87-.25-.13-4.83h0Zm-52.44-.5c-2.11-1.24-5.83-.62-7.81,3.84l.12-4.34-8.3,1.61v.74l.87,.12c1.12,.12,1.61,.74,1.74,2.36,.25,2.97,.12,8.18,0,10.78-.12,1.49-.62,2.23-1.74,2.35l-.87,.12v.99h11.53v-.99l-1.49-.12c-1.24-.12-1.61-.87-1.74-2.35-.25-2.36-.25-7.07-.12-10.04,.62-.87,3.35-1.61,5.83,0l1.98-5.08h0Z"/></g></g></svg>