<?xml version="1.0" encoding="UTF-8"?><svg id="Layer_2" xmlns="http://www.w3.org/2000/svg" viewBox="0 0 67.04 66.02"><defs><style>.cls-1{fill:#1a1a1a;}</style></defs><g id="main"><path class="cls-1" d="M7.06,37.87c-3.9,0-7.06-3.16-7.06-7.05s3.16-7.05,7.06-7.05c1.42,0,2.75,.42,3.86,1.15l19.22,12.95H7.06Zm1.95-15.86c-3.26-2.12-4.19-6.48-2.07-9.74,2.12-3.26,6.49-4.19,9.75-2.07,1.15,.74,2.05,1.81,2.61,3.06l9.82,22.39L9.01,22.01h0Zm50.96,15.87c3.91,0,7.07-3.16,7.07-7.06s-3.17-7.06-7.07-7.06c-1.43,0-2.75,.42-3.87,1.15l-19.27,12.96h23.13Zm-1.95-15.87c3.27-2.12,4.2-6.49,2.08-9.75-2.12-3.27-6.5-4.19-9.77-2.07-1.15,.74-2.06,1.81-2.61,3.06l-9.85,22.41,20.15-13.65h0Zm-21.7-13.26c-.5,.39-1.88,.6-1.59,3.06l2.98,20.86,9.95-22.74c1.59-3.56-.02-7.73-3.59-9.32-3.57-1.59-7.76,.02-9.35,3.58-.52,1.15-.71,2.42-.57,3.67h1.87c1.06,.05,1.62,.33,.28,.89h0Zm-16.96,1.19c-1.59-3.56,.02-7.73,3.58-9.31,3.56-1.58,7.74,.02,9.33,3.57,.56,1.25,.74,2.64,.52,3.99l-3.5,24.47L19.36,9.94h0Zm43.19,55.15c-1.14,.47-2.84,.94-4.42,.94-7.2,0-13.03-5.52-13.03-12.34s5.83-12.34,13.03-12.34c1.55,0,3.25,.38,4.42,.91v4.72c-1.31-.86-2.85-1.32-4.42-1.32-4.44,0-8.04,3.59-8.04,8.03s3.6,8.03,8.04,8.03c1.62,0,3.15-.48,4.42-1.3v4.68h0ZM19.25,42.15h4.78v23.58l-14.73-13.45v12.93H4.52v-23.57l14.73,13.45v-12.94h0Zm20.81,10.74c1.46-1.08,2.73-2.11,2.72-4.84-.02-3.58-2.92-5.92-6.51-5.92h-9.49v23.11h10.65c3.77,0,6.64-2.86,6.64-6.62s-3.11-5.4-4-5.73h0Zm-8.48-7.27h3.56c1.66,0,3.01,1.35,3.01,3s-1.35,3-3.01,3h-3.56v-6.01Zm4.33,16.14h-4.33v-6.68l4.33-.02c1.86,0,3.36,1.5,3.36,3.35s-1.5,3.35-3.36,3.35Z"/></g></svg>