<?xml version="1.0" encoding="UTF-8"?><svg id="Capa_2" xmlns="http://www.w3.org/2000/svg" viewBox="0 0 78.28 78.29"><defs><style>.cls-1{fill:#fff;}.cls-2{fill:#1a1a1a;}</style></defs><g id="main"><g><path class="cls-2" d="M39.14,0C17.56,0,0,17.56,0,39.14c0,10.08,3.83,19.28,10.12,26.23,.02,.03,.03,.07,.07,.1,.01,.01,.03,.02,.04,.03,7.17,7.86,17.47,12.79,28.92,12.79,21.58,0,39.14-17.56,39.14-39.15S60.73,0,39.14,0"/><path class="cls-1" d="M39.14,2.93c19.97,0,36.21,16.25,36.21,36.21s-16.25,36.21-36.21,36.21c-5.17,0-10.17-1.07-14.86-3.19-4.53-2.04-8.53-4.95-11.89-8.64l-.05-.06s-.04-.04-.05-.07c-6.03-6.67-9.35-15.28-9.35-24.26C2.93,19.17,19.17,2.93,39.14,2.93"/><path class="cls-2" d="M16.06,15.52c-.11,.11-.22,.23-.34,.34l.59,.43-.25-.77Z"/><path class="cls-2" d="M9.49,24.95c-.05,.1-.1,.2-.14,.31l.42-.31h-.28Z"/><path class="cls-2" d="M16.72,15.01h-.14l-.43,.41,.46-.33,.11-.08Z"/><path class="cls-2" d="M10.59,23.65l-.19,.57,.67-.49,.67,.49-.19-.57-.07-.21,.67-.49h-.83l-.26-.79-.26,.79h-.33c-.04,.09-.09,.17-.14,.26l.31,.23-.07,.21Z"/><path class="cls-2" d="M20.99,12.28v-.04l-.21-.63c-.13,.09-.24,.17-.36,.25l.51,.38,.06,.04Z"/><path class="cls-2" d="M18.65,14.28l-.26-.79,.67-.49h-.19c-.42,.34-.84,.68-1.25,1.04l.34-.25,.67,.49Z"/><path class="cls-2" d="M13.91,17.94v-.04c-.07,.06-.11,.13-.16,.19l.28,.2-.11-.36Z"/><polygon class="cls-2" points="9.17 25.66 9.03 25.99 9.35 26.23 9.17 25.66"/><polygon class="cls-2" points="25.32 19.01 25.07 18.21 24.81 19.01 23.98 19.01 24.65 19.49 24.4 20.28 25.07 19.8 25.74 20.28 25.48 19.49 26.15 19.01 25.32 19.01"/><polygon class="cls-2" points="22.97 17.02 22.71 16.23 22.46 17.02 21.63 17.02 22.3 17.5 22.16 17.94 22.04 18.3 22.53 17.94 22.71 17.81 22.89 17.94 23.39 18.3 23.27 17.94 23.13 17.5 23.8 17.02 22.97 17.02"/><polygon class="cls-2" points="24.34 12.23 24.32 12.27 24.39 12.23 24.99 11.79 25.6 12.23 25.66 12.27 25.65 12.23 25.41 11.49 26.08 11 25.25 11 24.99 10.2 24.74 11 23.91 11 24.58 11.49 24.34 12.23"/><polygon class="cls-2" points="11.28 26.95 11.14 26.51 11.02 26.15 10.91 26.51 10.76 26.95 9.93 26.95 10.61 27.43 10.34 28.22 11.02 27.74 11.69 28.22 11.43 27.43 12.1 26.95 11.28 26.95"/><polygon class="cls-2" points="30 19.01 29.75 18.21 29.49 19.01 28.66 19.01 29.33 19.49 29.07 20.28 29.75 19.8 30.42 20.28 30.16 19.49 30.83 19.01 30 19.01"/><polygon class="cls-2" points="29.02 12.23 29 12.27 29.07 12.23 29.67 11.79 30.28 12.23 30.34 12.27 30.33 12.23 30.09 11.49 30.76 11 29.93 11 29.67 10.2 29.42 11 28.58 11 29.26 11.49 29.02 12.23"/><polygon class="cls-2" points="20.65 19.01 20.39 18.21 20.13 19.01 19.3 19.01 19.97 19.49 19.72 20.28 20.39 19.8 21.06 20.28 20.8 19.49 21.48 19.01 20.65 19.01"/><polygon class="cls-2" points="27.65 24.95 27.39 24.15 27.14 24.95 26.31 24.95 26.98 25.43 26.72 26.22 27.39 25.74 28.07 26.22 27.81 25.43 28.48 24.95 27.65 24.95"/><polygon class="cls-2" points="27.61 20.8 27.41 20.17 27.2 20.8 27.15 20.96 26.32 20.96 26.99 21.45 26.73 22.24 27.41 21.75 28.08 22.24 27.82 21.45 28.49 20.96 27.66 20.96 27.61 20.8"/><polygon class="cls-2" points="29.26 15.49 29 16.29 29.67 15.8 30.34 16.29 30.09 15.49 30.65 15.09 30.76 15.01 29.93 15.01 29.67 14.22 29.41 15.01 28.58 15.01 28.69 15.09 29.26 15.49"/><polygon class="cls-2" points="29.99 26.95 29.85 26.51 29.73 26.15 29.62 26.51 29.47 26.95 28.64 26.95 29.32 27.43 29.06 28.22 29.73 27.74 30.4 28.22 30.15 27.43 30.82 26.95 29.99 26.95"/><polygon class="cls-2" points="25.11 22.16 24.85 22.96 24.02 22.96 24.7 23.44 24.62 23.65 24.44 24.23 25.11 23.74 25.78 24.23 25.6 23.65 25.53 23.44 26.2 22.96 25.37 22.96 25.11 22.16"/><polygon class="cls-2" points="26.83 17.94 26.72 18.3 27.21 17.94 27.4 17.81 27.58 17.94 28.07 18.3 27.95 17.94 27.81 17.5 28.48 17.02 27.65 17.02 27.4 16.23 27.14 17.02 26.3 17.02 26.98 17.5 26.83 17.94"/><polygon class="cls-2" points="26.66 14.28 27.34 13.79 28.01 14.28 27.75 13.49 28.42 13 27.59 13 27.34 12.23 27.34 12.21 27.33 12.23 27.08 13 26.25 13 26.92 13.49 26.66 14.28"/><polygon class="cls-2" points="17.48 17.94 17.36 18.3 17.85 17.94 18.04 17.81 18.22 17.94 18.71 18.3 18.59 17.94 18.45 17.5 19.13 17.02 18.29 17.02 18.04 16.23 17.78 17.02 16.95 17.02 17.62 17.5 17.48 17.94"/><polygon class="cls-2" points="25.31 26.95 25.17 26.51 25.05 26.15 24.94 26.51 24.8 26.95 23.96 26.95 24.64 27.43 24.38 28.22 25.05 27.74 25.72 28.22 25.47 27.43 26.14 26.95 25.31 26.95"/><polygon class="cls-2" points="29.79 22.16 29.53 22.96 28.7 22.96 29.37 23.44 29.3 23.65 29.12 24.23 29.79 23.74 30.46 24.23 30.28 23.65 30.2 23.44 30.88 22.96 30.05 22.96 29.79 22.16"/><polygon class="cls-2" points="19.9 15.49 19.64 16.29 20.31 15.8 20.99 16.29 20.73 15.49 21.3 15.09 21.4 15.01 20.58 15.01 20.31 14.22 20.06 15.01 19.23 15.01 19.34 15.09 19.9 15.49"/><polygon class="cls-2" points="18.29 24.95 18.04 24.15 17.78 24.95 16.95 24.95 17.62 25.43 17.36 26.22 18.04 25.74 18.71 26.22 18.45 25.43 19.12 24.95 18.29 24.95"/><polygon class="cls-2" points="15.75 22.16 15.5 22.96 14.67 22.96 15.34 23.44 15.27 23.65 15.08 24.23 15.75 23.74 16.43 24.23 16.24 23.65 16.17 23.44 16.84 22.96 16.01 22.96 15.75 22.16"/><polygon class="cls-2" points="15.95 26.95 15.81 26.51 15.69 26.15 15.59 26.51 15.44 26.95 14.61 26.95 15.28 27.43 15.02 28.22 15.69 27.74 16.37 28.22 16.11 27.43 16.78 26.95 15.95 26.95"/><polygon class="cls-2" points="20.63 26.95 20.49 26.51 20.37 26.15 20.26 26.51 20.12 26.95 19.29 26.95 19.96 27.43 19.7 28.22 20.37 27.74 21.04 28.22 20.79 27.43 21.46 26.95 20.63 26.95"/><polygon class="cls-2" points="24.58 15.49 24.32 16.29 24.99 15.8 25.66 16.29 25.41 15.49 25.98 15.09 26.08 15.01 25.25 15.01 24.99 14.22 24.74 15.01 23.91 15.01 24.01 15.09 24.58 15.49"/><polygon class="cls-2" points="15.04 20.29 15.71 19.8 16.38 20.29 16.13 19.49 16.8 19.01 15.97 19.01 15.71 18.22 15.45 19.01 14.62 19.01 15.3 19.49 15.04 20.29"/><polygon class="cls-2" points="13.58 20.8 13.37 20.17 13.17 20.8 13.11 20.96 12.29 20.96 12.96 21.45 12.7 22.24 13.37 21.75 14.04 22.24 13.78 21.45 14.46 20.96 13.63 20.96 13.58 20.8"/><polygon class="cls-2" points="13.61 24.95 13.36 24.15 13.1 24.95 12.27 24.95 12.94 25.43 12.69 26.22 13.36 25.74 14.03 26.22 13.77 25.43 14.44 24.95 13.61 24.95"/><polygon class="cls-2" points="18.26 20.8 18.05 20.17 17.85 20.8 17.79 20.96 16.97 20.96 17.64 21.45 17.38 22.24 18.05 21.75 18.72 22.24 18.46 21.45 19.14 20.96 18.31 20.96 18.26 20.8"/><polygon class="cls-2" points="22.97 24.95 22.71 24.15 22.46 24.95 21.63 24.95 22.3 25.43 22.04 26.22 22.71 25.74 23.39 26.22 23.13 25.43 23.8 24.95 22.97 24.95"/><polygon class="cls-2" points="22.93 20.8 22.73 20.17 22.52 20.8 22.47 20.96 21.64 20.96 22.31 21.45 22.05 22.24 22.73 21.75 23.4 22.24 23.14 21.45 23.81 20.96 22.98 20.96 22.93 20.8"/><polygon class="cls-2" points="20.43 22.16 20.18 22.96 19.35 22.96 20.02 23.44 19.95 23.65 19.76 24.23 20.43 23.74 21.1 24.23 20.92 23.65 20.85 23.44 21.52 22.96 20.69 22.96 20.43 22.16"/><polygon class="cls-2" points="21.98 14.28 22.66 13.79 23.33 14.28 23.07 13.49 23.74 13 22.91 13 22.66 12.23 22.66 12.21 22.65 12.23 22.4 13 21.57 13 22.24 13.49 21.98 14.28"/><path class="cls-2" d="M71.16,32.22H7.13c-.19,.94-.33,1.89-.43,2.86H71.59c-.1-.97-.25-1.92-.43-2.86"/><path class="cls-2" d="M71.77,38.57c0-.21,0-.42,0-.63H6.52c0,.21,0,.42,0,.63,0,.74,.03,1.49,.07,2.22H71.7c.05-.74,.08-1.48,.08-2.22"/><path class="cls-2" d="M7.49,46.5h63.31c.23-.93,.43-1.89,.58-2.86H6.91c.15,.96,.34,1.92,.58,2.86"/><path class="cls-2" d="M70.46,29.36c-.29-.97-.62-1.92-.99-2.85H32.09v-2.86h36.08c-.51-.98-1.07-1.93-1.66-2.86H32.09v-2.86h32.32c-.82-1-1.7-1.96-2.63-2.86h-29.69v-2.85h26.3c-1.46-1.08-3.03-2.04-4.67-2.86H24.56c-1.31,.66-2.58,1.4-3.79,2.23l.21,.63v.04l-.05-.04-.52-.38c-.52,.37-1.03,.75-1.53,1.15h.19l-.67,.49,.26,.79-.67-.49-.34,.25c-.36,.31-.71,.64-1.05,.97h.14l-.1,.08-.46,.33s-.07,.07-.1,.1l.25,.77-.58-.43c-.64,.66-1.25,1.33-1.82,2.04v.04l.13,.36-.28-.2c-1.22,1.51-2.32,3.14-3.26,4.86h.33l.26-.79,.26,.79h.83l-.67,.49,.07,.21,.19,.58-.67-.49-.67,.49,.19-.58,.07-.21-.31-.23c-.3,.57-.59,1.15-.86,1.73h.28l-.42,.31c-.07,.14-.13,.27-.19,.42l.19,.56-.33-.23c-.46,1.09-.86,2.22-1.2,3.37h62.63Zm-58.77-1.14l-.67-.49-.67,.49,.26-.79-.67-.49h.82l.15-.44,.11-.36,.12,.36,.14,.44h.83l-.68,.49,.26,.79Zm18.73-7.94l-.67-.49-.67,.49,.26-.79-.67-.49h.83l.26-.79,.26,.79h.83l-.67,.49,.26,.79Zm-1.01-9.29l.26-.79,.26,.79h.84l-.67,.49,.24,.74v.04l-.04-.04-.62-.44-.61,.44-.07,.04,.02-.04,.24-.74-.67-.49h.83Zm-3.67,9.29l-.67-.49-.67,.49,.25-.79-.67-.49h.84l.26-.79,.25,.79h.84l-.67,.49,.26,.79Zm-1.01-9.29l.26-.79,.26,.79h.82l-.67,.49,.25,.74v.04l-.05-.04-.61-.44-.61,.44-.07,.04,.02-.04,.25-.74-.67-.49h.82Zm-1.47,6.94l.12,.36-.49-.36-.18-.13-.19,.13-.49,.36,.11-.36,.15-.43-.67-.49h.83l.26-.79,.26,.79h.83l-.67,.49,.14,.43Zm-2.21,2.34l-.67-.49-.67,.49,.26-.79-.67-.49h.83l.26-.79,.26,.79h.83l-.67,.49,.26,.79Zm-3.28-3.27l.25-.79,.26,.79h.84l-.67,.49,.14,.43,.12,.36-.49-.36-.19-.13-.19,.13-.49,.36,.11-.36,.14-.43-.67-.49h.84Zm-2.33,1.99l.26-.79,.26,.79h.83l-.67,.49,.26,.79-.67-.49-.67,.49,.26-.79-.68-.49h.84Zm-1.43,7.22l-.67-.49-.67,.49,.26-.79-.67-.49h.83l.26-.79,.26,.79h.83l-.67,.49,.26,.79Zm-.25-4.78l.26,.79-.67-.49-.67,.49,.26-.79-.67-.49h.82l.05-.16,.2-.63,.21,.63,.05,.16h.82l-.67,.49Zm2.58,6.77l-.67-.49-.67,.49,.26-.79-.67-.49h.83l.14-.44,.11-.36,.11,.36,.14,.44h.83l-.67,.49,.26,.79Zm-.2-4.78l.07,.21,.19,.58-.68-.49-.67,.49,.19-.58,.07-.21-.67-.49h.84l.25-.79,.26,.79h.84l-.67,.49Zm2.54,2.79l-.68-.49-.67,.49,.26-.79-.67-.49h.84l.25-.79,.26,.79h.84l-.67,.49,.26,.79Zm-.25-4.78l.25,.79-.67-.49-.67,.49,.26-.79-.67-.49h.83l.05-.16,.2-.63,.21,.63,.05,.16h.83l-.67,.49Zm1.6-6.44l.25-.79,.26,.79h.83l-.11,.08-.56,.41,.26,.79-.68-.49-.67,.49,.26-.79-.56-.41-.11-.08h.83Zm.98,13.21l-.67-.49-.67,.49,.26-.79-.67-.49h.83l.15-.44,.11-.36,.12,.36,.14,.44h.83l-.67,.49,.26,.79Zm-.2-4.78l.07,.21,.19,.58-.67-.49-.67,.49,.19-.58,.07-.21-.67-.49h.83l.26-.79,.26,.79h.83l-.67,.49Zm1.55-10.44l.25-.77v0l.26,.77h.83l-.67,.49,.26,.79-.67-.49-.67,.49,.26-.79-.67-.49h.83Zm.99,13.23l-.67-.49-.67,.49,.26-.79-.67-.49h.83l.26-.79,.26,.79h.83l-.67,.49,.26,.79Zm-.25-4.78l.26,.79-.67-.49-.67,.49,.26-.79-.67-.49h.83l.05-.16,.2-.63,.21,.63,.05,.16h.83l-.67,.49Zm1.6-6.44l.26-.79,.26,.79h.82l-.1,.08-.57,.41,.26,.79-.67-.49-.67,.49,.26-.79-.57-.41-.1-.08h.82Zm.99,13.21l-.67-.49-.67,.49,.25-.79-.67-.49h.84l.14-.44,.11-.36,.11,.36,.14,.44h.83l-.67,.49,.26,.79Zm-.2-4.78l.07,.21,.19,.58-.67-.49-.67,.49,.19-.58,.07-.21-.67-.49h.84l.25-.79,.26,.79h.84l-.67,.49Zm1.55-10.44l.25-.77v0l.26,.77h.84l-.67,.49,.26,.79-.67-.49-.67,.49,.25-.79-.67-.49h.84Zm.05,4.02l.26-.79,.26,.79h.84l-.67,.49,.14,.43,.11,.36-.49-.36-.19-.13-.19,.13-.49,.36,.11-.36,.14-.43-.67-.49h.83Zm.93,9.21l-.67-.49-.67,.49,.26-.79-.67-.49h.83l.26-.79,.26,.79h.84l-.67,.49,.25,.79Zm-.25-4.78l.26,.79-.67-.49-.67,.49,.26-.79-.67-.49h.83l.05-.16,.2-.63,.21,.63,.05,.16h.84l-.68,.49Zm1.6-6.44l.26-.79,.26,.79h.84l-.11,.08-.56,.41,.25,.79-.67-.49-.67,.49,.26-.79-.56-.41-.11-.08h.83Zm.99,13.21l-.67-.49-.67,.49,.26-.79-.67-.49h.83l.15-.44,.11-.36,.12,.36,.14,.44h.83l-.67,.49,.26,.79Zm-.2-4.78l.07,.21,.19,.58-.67-.49-.67,.49,.19-.58,.07-.21-.67-.49h.83l.26-.79,.26,.79h.83l-.67,.49Z"/><polygon class="cls-2" points="19.45 55.38 20.47 48.78 22 48.78 23.21 52.31 24.5 48.78 26.06 48.78 26.96 55.38 25.4 55.38 24.96 51.59 23.51 55.38 22.89 55.38 21.5 51.59 20.99 55.38 19.45 55.38"/><path class="cls-2" d="M32.06,54.28h-2.17l-.4,1.11h-1.65l2.31-6.6h1.7l2.26,6.6h-1.66l-.37-1.11Zm-.42-1.31l-.67-2.14-.66,2.14h1.33Z"/><path class="cls-2" d="M35.23,55.38v-6.6h2.04c.6,0,1.61,.09,2.38,.91,.7,.74,.84,1.69,.84,2.4,0,.87-.2,1.64-.79,2.28-.48,.52-1.27,1-2.3,1h-2.17Zm1.55-1.45h.32c.38,0,.91-.04,1.32-.48,.2-.21,.46-.62,.46-1.35,0-.61-.17-1.14-.47-1.45-.37-.37-.85-.42-1.25-.42h-.38v3.69Z"/><polygon class="cls-2" points="45.34 50.24 43.48 50.24 43.48 51.34 45.24 51.34 45.24 52.79 43.48 52.79 43.48 53.93 45.34 53.93 45.34 55.38 41.93 55.38 41.93 48.79 45.34 48.79 45.34 50.24"/><rect class="cls-2" x="49.32" y="48.79" width="1.56" height="6.6"/><polygon class="cls-2" points="52.59 55.38 52.59 48.78 54.14 48.78 57.02 52.82 57.02 48.78 58.57 48.78 58.57 55.38 57.02 55.38 54.14 51.35 54.14 55.38 52.59 55.38"/><polygon class="cls-2" points="23.01 61.03 23.01 66.18 21.45 66.18 21.45 61.03 20.17 61.03 20.17 59.58 24.28 59.58 24.28 61.03 23.01 61.03"/><polygon class="cls-2" points="26.98 62.04 29.23 62.04 29.23 59.58 30.8 59.58 30.8 66.18 29.23 66.18 29.23 63.51 26.98 63.51 26.98 66.18 25.43 66.18 25.43 59.58 26.98 59.58 26.98 62.04"/><polygon class="cls-2" points="35.91 61.03 34.06 61.03 34.06 62.13 35.81 62.13 35.81 63.58 34.06 63.58 34.06 64.72 35.91 64.72 35.91 66.18 32.51 66.18 32.51 59.58 35.91 59.58 35.91 61.03"/><path class="cls-2" d="M41.45,59.58v3.91c0,.28,.01,.7,.31,1.02,.17,.19,.46,.32,.73,.32s.55-.12,.72-.29c.36-.34,.36-.83,.36-1.2v-3.76h1.55v3.79c0,.69-.03,1.41-.67,2.14-.51,.56-1.14,.82-1.98,.82-.95,0-1.62-.36-1.99-.79-.51-.62-.58-1.46-.58-2.16v-3.79h1.55Z"/><path class="cls-2" d="M47.23,64.2c.33,.34,.84,.67,1.38,.67,.32,0,.5-.1,.6-.22,.09-.1,.15-.25,.15-.42,0-.13-.04-.27-.17-.39-.15-.15-.38-.22-.77-.34l-.4-.14c-.25-.09-.62-.23-.86-.53-.31-.37-.34-.84-.34-1.17,0-.81,.28-1.31,.54-1.6,.31-.33,.81-.62,1.55-.62,.59,0,1.28,.21,1.85,.54l-.62,1.33c-.47-.4-.82-.44-1.03-.44-.15,0-.36,.04-.51,.2-.09,.1-.15,.21-.15,.36,0,.12,.02,.21,.08,.3,.04,.07,.16,.18,.52,.3l.48,.16c.38,.13,.78,.28,1.09,.66,.31,.36,.38,.72,.38,1.17,0,.61-.13,1.19-.56,1.66-.51,.57-1.13,.68-1.77,.68-.38,0-.74-.04-1.18-.22-.1-.04-.48-.2-.91-.53l.67-1.38Z"/><path class="cls-2" d="M56.08,65.07h-2.17l-.4,1.11h-1.65l2.31-6.6h1.69l2.26,6.6h-1.66l-.37-1.11Zm-.42-1.31l-.67-2.14-.66,2.14h1.33Z"/></g></g></svg>