<?xml version="1.0" encoding="UTF-8"?><svg id="Capa_2" xmlns="http://www.w3.org/2000/svg" viewBox="0 0 75.5 77.39"><defs><style>.cls-1{fill:#27a8e0;}.cls-2,.cls-3{fill:none;stroke:#27a8e0;stroke-miterlimit:10;stroke-width:2px;}.cls-3{stroke-linecap:round;}</style></defs><g id="main"><g><path class="cls-2" d="M74.5,37.75C74.5,17.45,58.04,1,37.75,1S1,17.45,1,37.75s16.45,36.75,36.75,36.75,36.75-16.45,36.75-36.75Z"/><path class="cls-1" d="M44.33,44.29c-1.24-1.24-1.94-2.72-1.96-4.48-.03-3.12-.01-6.25-.04-9.37,0-.5,.18-.64,.64-.77,1.39-.38,1.87-1.39,1.61-3.22-.18-1.28-.88-1.84-2.33-1.84-2.79,0-5.59,0-8.39,0-1.36,0-2.17,.62-2.33,1.76-.26,1.84,.19,2.84,1.58,3.25,.56,.17,.69,.43,.69,.96-.03,2.73-.08,5.46,0,8.19,.09,2.63-.93,4.66-2.82,6.43-2.47,2.32-4.85,4.73-7.23,7.13-1.3,1.31-1.92,2.95-2.01,4.79-.11,2.2,.78,3.16,2.98,3.16,4.44,0,8.88,0,13.32,0h5.03c2.86,0,5.72,.02,8.58,0,1.7-.02,2.53-.91,2.61-2.54,.11-2.35-.74-4.28-2.4-5.91-2.52-2.5-5.02-5.02-7.54-7.53m-11.42,1.35c1.87-1.78,2.67-4,2.66-6.56-.01-2.86,0-5.72,0-8.59,0-1.54-.36-2.06-1.84-2.49-.74-.22-.34-.73-.42-1.12-.1-.44,.19-.57,.57-.57,2.8,0,5.59,0,8.39,0,.42,0,.73,.13,.67,.62-.05,.41,.21,.89-.51,1.08-1.36,.36-1.79,1-1.79,2.43,0,2.93,0,5.86,0,8.78,0,2.52,.84,4.69,2.64,6.47,1.35,1.34,2.71,2.68,4.19,4.15H28.95c-.09-.09-.18-.17-.28-.26,1.41-1.32,2.83-2.62,4.23-3.95m19.77,11.7c.05,.92-.34,1.28-1.28,1.27-4.44-.03-8.87-.01-13.31-.01s-8.81,0-13.21,0c-1.27,0-1.29-.03-1.3-1.25,0-1.68,.76-2.97,1.85-4.2,1-1.12,2.06-1.52,3.57-1.5,6.47,.09,12.95,.05,19.42,.03,.64,0,1.09,.18,1.54,.64,1.04,1.09,2.19,2.08,2.54,3.66,.1,.45,.15,.9,.17,1.36"/><path class="cls-1" d="M38.39,20.73c.02,1.6,1.29,2.85,2.89,2.86,1.63,0,2.9-1.3,2.9-2.96,0-1.64-1.31-2.93-2.95-2.9-1.63,.03-2.87,1.33-2.84,3m2.78-1.24c.76,.05,1.2,.39,1.25,1.09,.05,.75-.38,1.21-1.09,1.24-.66,.03-1.13-.37-1.17-1.07-.05-.75,.39-1.13,1.02-1.26"/><path class="cls-1" d="M36.91,14.2c1.64,0,2.92-1.3,2.9-2.94-.02-1.62-1.26-2.86-2.87-2.87-1.68-.01-2.95,1.22-2.96,2.88,0,1.62,1.31,2.94,2.93,2.93m.02-4.06c.68,.02,1.06,.44,1.13,1.16-.09,.69-.44,1.12-1.2,1.12-.73,0-1.11-.49-1.12-1.12,0-.7,.45-1.18,1.19-1.16"/><path class="cls-1" d="M34.87,21.06c1.6-.02,2.96-1.4,2.91-2.98-.04-1.57-1.36-2.87-2.92-2.89-1.59-.02-2.95,1.34-2.95,2.94,0,1.59,1.37,2.94,2.96,2.93m.08-4.08c.67,.06,1.08,.53,1.04,1.19-.04,.7-.48,1.16-1.22,1.11-.73-.05-1.08-.52-1.11-1.24,.14-.7,.56-1.12,1.28-1.06"/><path class="cls-1" d="M34.52,54.54c.59,0,1.09-.26,1.08-.89,0-.62-.48-.89-1.09-.89-2.24,0-4.47,0-6.71,0-.59,0-1.06,.2-1.06,.89,0,.68,.48,.88,1.06,.89,1.08,.01,2.17,0,3.25,0,1.15,0,2.3,0,3.45,0"/><path class="cls-1" d="M38.74,55.43c-.92,.01-1.84,0-2.76,0s-1.78,.02-2.66,0c-.66-.02-1.16,.21-1.15,.89,.02,.61,.5,.86,1.11,.86,1.81,0,3.62,0,5.43,0,.63,0,1.14-.17,1.12-.92-.01-.69-.49-.84-1.09-.83"/><path class="cls-1" d="M47.79,52.78c-.52-.02-1.05,0-1.58,0h0c-.56,0-1.12-.03-1.67,0-.52,.03-.88,.31-.9,.86-.01,.54,.33,.87,.86,.89,1.11,.03,2.23,.03,3.35,0,.51-.01,.89-.28,.89-.85,0-.62-.39-.87-.95-.9"/><line class="cls-3" x1="1.33" y1="76.39" x2="74.33" y2="3.39"/></g></g></svg>