<?xml version="1.0" encoding="UTF-8"?><svg id="Capa_2" xmlns="http://www.w3.org/2000/svg" viewBox="0 0 75.5 75.49"><defs><style>.cls-1{fill:#27a8e0;}.cls-2,.cls-3{fill:none;stroke:#27a8e0;stroke-miterlimit:10;stroke-width:2px;}.cls-3{stroke-linecap:round;}</style></defs><g id="main"><g><path class="cls-2" d="M74.5,37.75C74.5,17.45,58.04,1,37.75,1S1,17.45,1,37.75s16.45,36.75,36.75,36.75,36.75-16.45,36.75-36.75Z"/><path class="cls-1" d="M38.64,38.06c-.94,0-1.71-.2-2.46-.78-1.49-1.15-3.01-2.27-4.6-3.27-2.72-1.7-5.62-2.01-8.67-.89-1.71,.63-3.06,1.81-4.54,2.79-1.11,.73-1.99,1.87-3.34,2.14-1.33,.26-1.67,1.04-1.55,2.24,.47,4.72,2.59,8.49,6.55,11.14,6.59,4.41,15.58,1.71,19.01-5.73,.44-.95,.93-1.29,1.98-1.27,3.92,.07,7.84,.03,11.76,.03s7.94,0,11.91,0c.76,0,1.61,.06,2.03-.65,.88-1.51,.71-3.18,.23-4.74-.39-1.26-1.68-1.01-2.69-1.01-8.53-.01-17.07-.02-25.6,0m-4.46-.05h-15.55c4.86-5.09,9.85-5.11,15.55,0m29.89,1.64c1.37-.01,1.46,.51,1.49,1.63,.03,1.18-.32,1.47-1.49,1.46-7.94-.05-15.89,0-23.83-.05-1.29,0-1.95,.39-2.43,1.61-2.07,5.27-7.18,8.24-12.54,7.41-5.09-.78-9.57-5.68-10.08-10.93-.09-.96,.16-1.12,1.06-1.12,8.04,.04,16.08,.02,24.13,.02s15.79,.04,23.68-.04"/><path class="cls-1" d="M22.01,31.66c1.62,.06,2.99-1.18,3.07-2.79,.08-1.66-1.23-3.12-2.86-3.18-1.59-.06-3.09,1.38-3.11,2.98-.02,1.57,1.31,2.94,2.9,2.99m.1-4.3c.79,.1,1.33,.54,1.34,1.32,0,.78-.54,1.33-1.3,1.34-.76,.01-1.31-.49-1.34-1.3-.03-.85,.57-1.19,1.31-1.36"/><path class="cls-1" d="M31.54,20.74c1.3-.05,2.29-1.12,2.27-2.45-.02-1.39-1.1-2.46-2.46-2.42-1.33,.04-2.48,1.24-2.41,2.52,.08,1.3,1.3,2.41,2.6,2.35m-.18-3.14c.44,0,.73,.19,.83,.56-.05,.5-.23,.86-.67,.92-.52,.07-.83-.24-.87-.76-.04-.48,.22-.72,.7-.73"/><path class="cls-1" d="M32.18,24.45c.03,1.11,1.06,2.14,2.11,2.1,1.18-.04,2.21-1.06,2.2-2.18,0-1.18-.99-2.2-2.15-2.24-1.22-.04-2.2,1.01-2.16,2.32m2.15-.58c.35,0,.53,.16,.54,.51-.05,.26-.19,.43-.47,.43-.34,0-.54-.2-.54-.52,0-.27,.19-.41,.47-.42"/><line class="cls-3" x1="1.33" y1="74.39" x2="74.33" y2="1.39"/></g></g></svg>