<?xml version="1.0" encoding="UTF-8"?><svg id="Capa_2" xmlns="http://www.w3.org/2000/svg" viewBox="0 0 75.5 75.49"><defs><style>.cls-1{fill:#27a8e0;}.cls-2{fill:none;stroke:#27a8e0;stroke-miterlimit:10;stroke-width:2px;}</style></defs><g id="main"><g><path class="cls-2" d="M74.5,37.75C74.5,17.45,58.04,1,37.75,1S1,17.45,1,37.75s16.45,36.75,36.75,36.75,36.75-16.45,36.75-36.75Z"/><path class="cls-1" d="M35.27,44.27c-.68-1.03-.79-1.67,.25-2.41,.4-.28,.85-.75,.38-1.25-.51-.54-1.05-.15-1.36,.31-.75,1.11-1.42,.85-2.4,.21-3.44-2.26-8.34-1.81-11.31,.94-.39,.35-1.03,.83-.47,1.33,1.41,1.24,.74,1.93-.5,2.58-.1,.05-.18,.14-.27,.22-2.12,1.95-2.13,2.19,.04,4.09,.57,.5,.89,.91,.59,1.75-.35,.98-.28,2.06-.21,3.1,.05,.73,.34,1.11,1.13,1.16,.93,.05,1.89,.15,2.77-.12,1.07-.33,1.85-.21,2.26,.7,.37,.37,.63,.61,.86,.87,.71,.82,1.38,.92,2.24,.12,.66-.61,1.32-1.26,1.71-2.03,.51-1,.92-.75,1.48-.16,.74,.79,1.3,.59,1.98-.17,2.64-2.98,3.09-7.82,.83-11.22m-2.56,9.82c-.05-.06-.11-.11-.16-.16q-1.46-1.41-2.27,.4c-.03,.07-.07,.14-.11,.21-1.95,2.95-1.84,2.93-3.78,.27-.39-.54-.76-.67-1.36-.4-1.15,.5-2.71,1.1-3.5,.3-.69-.7-.14-2.29,.35-3.41,.28-.62,.13-.97-.42-1.34-2.27-1.54-2.21-2.26,.21-3.58,.14-.07,.26-.17,.4-.23,1.81-.81,1.84-.84,.37-2.29-.64-.64-.6-.97,.19-1.44,3.01-1.8,5.99-1.85,8.97,0,.28,.18,1.04,.32,.51,.82-.45,.43-.68,1.54-1.66,.99-1.12-.63-2.28-.94-3.55-.83-.52,.04-1.11,.14-1.06,.8,.05,.66,.61,.69,1.15,.6,.19-.03,.39-.05,.58-.03,.76,.08,1.75,.03,2.05,.78,.2,.48-.72,.87-1.09,1.34-.19,.24-.46,.42-.65,.66-.48,.59-.94,.91-1.73,.42-.56-.34-1.27-.32-1.93-.2-.38,.07-.67,.27-.65,.68,.02,.47,.31,.7,.77,.66,.54-.04,1.06-.03,1.69,.28-.61,.61-1.16,1.15-1.69,1.69-.35,.36-.57,.79-.11,1.21,.42,.38,.78,.1,1.1-.23,.54-.54,1.08-1.08,1.67-1.68,.37,.57,.41,1.08,.36,1.62-.04,.48,.11,.88,.65,.9,.56,.02,.67-.42,.71-.88,.06-.55,.09-1.14-.19-1.59-.57-.93-.24-1.53,.51-2.12,.42-.33,.81-.73,1.15-1.15,.66-.81,.96-.41,1.23,.3,.27,.71,.32,1.43,.23,2.17-.06,.48,.04,.9,.56,.98,.63,.1,.75-.38,.83-.88,.18-1.24-.09-2.38-.65-3.48-.35-.69,.18-1.98,.9-2.15,.31-.07,.39,.18,.52,.34,1.98,2.49,1.99,6.96,.06,9.49-.4,.52-.73,.65-1.18,.11"/><path class="cls-1" d="M39.44,33.03c.7,1.3,1.32,2.27-.27,3.23-.03,.02-.05,.06-.07,.09-.22,.33-.25,.65,.07,.93,.32,.28,.63,.25,.92-.04,.28-.27,.57-.53,.82-.82,.4-.47,.67-.61,1.3-.14,3.16,2.39,7.36,2.5,10.79,.38,2.15-1.33,2.2-1.59,.62-3.51-.02-.03-.03-.07-.05-.12,.7-.53,1.48-.98,2.1-1.6,1.86-1.88,1.75-1.82,.16-3.48-.24-.25-.49-.52-.79-.68-.48-.26-.49-.57-.33-1.05,.36-1.16,.36-2.36,.28-3.57-.05-.72-.4-1.05-1.09-1.09-.35-.02-.7-.02-1.05-.04-1.06-.05-2.18,.57-3.06,.35-.85-.21-1.45-1.38-2.19-2.09-.52-.5-1.04-.51-1.62,.03-.99,.93-1.9,1.91-2.58,3.14-.23-.2-.4-.36-.57-.51-1.27-1.13-1.57-1.12-2.54,.23-2.35,3.28-2.77,6.8-.85,10.37m2.76-9.3c1.63,1.53,1.65,1.51,2.61-.41,.07-.14,.14-.28,.23-.4,1.91-2.46,1.77-2.42,3.44-.08,.49,.7,.91,.95,1.7,.5,.35-.2,.8-.29,1.22-.33,2.45-.23,2.7-.47,2.02,2.17-.46,1.8-.19,2.76,1.31,3.63,.77,.44,.81,1.03,.03,1.62-.77,.58-1.51,1.18-2.46,1.49-1.06,.34-1.14,.75-.4,1.55,1.42,1.54,1.4,1.61-.59,2.54-2.97,1.37-6.39,.91-8.7-1.21,.21-.23,.45-.43,.61-.68,.51-.78,1.04-.74,1.79-.28,1.05,.64,2.25,.76,3.48,.55,.44-.08,.74-.3,.68-.77-.06-.45-.38-.65-.84-.59-1.15,.15-2.22-.02-3.26-.75,.83-.83,1.64-1.61,2.4-2.42,.33-.35,.59-.35,1-.12,.65,.37,1.39,.43,2.14,.35,.49-.05,.84-.25,.8-.78-.04-.46-.38-.63-.83-.59-.15,.02-.31,.03-.46,.02-.35-.02-.8,.03-.96-.27-.21-.4,.3-.54,.51-.78,.3-.36,.64-.67,.98-.99,.35-.33,.57-.71,.2-1.1-.42-.45-.83-.2-1.19,.17-.4,.42-.83,.81-1.23,1.24-.4,.43-.65,.35-.74-.21-.05-.3-.07-.61-.06-.92,.02-.47-.04-.9-.6-.94-.62-.04-.74,.42-.78,.93-.06,.67-.01,1.35,.32,1.92,.33,.55,.25,.88-.2,1.29-.77,.7-1.48,1.47-2.25,2.24-.72-.94-.92-1.93-.81-3,.06-.54,.06-1.07-.65-1.11-.66-.04-.67,.52-.73,.97-.17,1.28,.1,2.47,.77,3.55,.71,1.14-.44,1.42-.93,1.83-.5,.43-.72-.36-.91-.69-1.74-3.03-1.63-6.03,.23-8.99,.35-.55,.57-.64,1.1-.14"/><path class="cls-1" d="M20.74,35.68c3.22,2.95,8.17,3.32,11.88,.73,.64-.45,.96-.48,1.51,.08,.43,.44,.88,1.58,1.7,.72,.7-.73-.29-1.21-.74-1.64-.52-.51-.63-.81-.13-1.49,2.32-3.16,2.35-7.58,.17-10.78-1.44-2.12-1.52-2.13-3.55-.37-.35-.52-.61-1.06-1-1.48-2.46-2.61-2.26-2.84-4.77-.05-.35,.38-.58,.48-1.05,.33-1.16-.36-2.36-.37-3.57-.28-.71,.05-1.03,.39-1.07,1.09-.08,1.2-.08,2.4,.29,3.56,.12,.37,.2,.65-.21,.99-2.95,2.38-3.04,2.65,.22,5.24,.03,.02,.06,.06,.09,.07,1.15,.41,.87,.94,.17,1.57-.63,.57-.65,1.07,.05,1.71m-.71-5.44c-.48-.43-.6-.87,0-1.19,1.91-1.04,2.13-2.41,1.58-4.49-.51-1.93-.3-2.12,1.57-1.65,2.04,.51,3.48,.43,4.53-1.54,.24-.46,.61-.31,.94,.02,.8,.8,1.51,1.64,1.84,2.77,.3,1.03,.76,1.11,1.55,.37,1.58-1.47,1.6-1.48,2.52,.54,1.23,2.7,1.05,5.34-.47,7.87-.17,.29-.36,1.14-.94,.58-.45-.43-1.57-.7-.91-1.77,.66-1.06,.87-2.22,.76-3.45-.05-.53-.14-1.09-.82-1.03-.62,.05-.62,.58-.57,1.07,.11,1.03-.07,1.99-.77,2.95-.53-.53-.94-.98-1.4-1.4-.88-.79-1.76-1.55-.85-2.86,.1-.14,.1-.38,.08-.57-.04-.58,.17-1.42-.71-1.45-.89-.03-.63,.76-.66,1.31-.02,.34,0,.7-.4,1.03-.54-.54-1.07-1.08-1.61-1.61-.37-.36-.82-.55-1.21-.1-.36,.41-.07,.78,.25,1.1,.39,.38,.78,.76,1.15,1.16,.14,.16,.44,.26,.34,.54-.09,.25-.34,.28-.57,.31-.19,.02-.39,.05-.58,.04-.55-.03-1.2-.11-1.17,.7,.03,.8,.75,.64,1.25,.68,.34,.03,.76,.02,1.02-.15,1.1-.72,1.81-.21,2.51,.65,.46,.57,1.02,1.04,1.58,1.6-.91,.72-1.9,.93-2.97,.83-.53-.05-1.1-.07-1.12,.64-.03,.7,.58,.71,1.08,.76,1.23,.11,2.41-.12,3.44-.8,1.08-.71,1.36,.39,1.76,.84,.54,.6-.29,.8-.64,1-2.9,1.69-5.8,1.63-8.7-.04-.73-.42-1.08-.86-.19-1.49,.22-.15,.39-.37,.58-.57,.69-.75,.62-1.16-.35-1.5-1.05-.36-1.92-.97-2.73-1.7"/><path class="cls-1" d="M52.4,56.36c2.35,.36,2.83-.12,2.44-2.43-.36-2.11-.03-3.65,1.74-4.89,.68-.48,.55-1.09-.01-1.68-.89-.93-1.77-1.84-3.05-2.46,.24-.32,.39-.54,.56-.75,1.01-1.26,1.01-1.46-.26-2.39-3.25-2.39-6.76-2.82-10.36-.95-1.29,.67-2.33,1.45-3.34-.25-.03-.06-.12-.11-.19-.13-.31-.1-.63-.15-.85,.15-.19,.26-.24,.57,0,.85,.16,.17,.3,.37,.49,.49,.99,.66,.83,1.29,.22,2.2-2.25,3.33-2.03,8,.43,10.95,1.12,1.34,1.22,1.63,2.61,.3,.47-.45,.68-.35,1,.21,.57,.96,1.31,1.81,2.21,2.51,.57,.44,1.1,.51,1.51-.06,1.23-1.73,2.77-1.98,4.82-1.67m-2.42-1.79c-.72-.31-1.06-.1-1.53,.49-1.81,2.27-1.58,2.29-3.31,0-.33-.44-.49-.96-.67-1.47-.32-.88-.77-.96-1.42-.3-1.52,1.54-1.68,1.53-2.6-.48-1.25-2.73-1.1-5.41,.52-7.96,.18-.29,.29-1.17,.89-.58,.44,.44,1.61,.69,.93,1.77-.7,1.09-.91,2.29-.79,3.56,.04,.46,.06,1.01,.71,.99,.72-.02,.71-.57,.67-1.1-.02-.23-.05-.46-.03-.69,.06-.78,.11-1.74,.8-2.06,.44-.21,.85,.73,1.32,1.1,.18,.14,.32,.34,.5,.49,.72,.57,1.14,1.15,.53,2.09-.29,.44-.24,1.04-.18,1.59,.05,.46,.19,.89,.73,.86,.51-.03,.7-.4,.64-.91-.05-.5-.03-.99,.33-1.57,.64,.64,1.22,1.21,1.79,1.79,.32,.33,.66,.41,1.01,.07,.34-.34,.27-.7-.04-1.02-.57-.58-1.15-1.15-1.76-1.76,.46-.47,.99-.45,1.51-.4,.5,.05,.91-.09,.96-.59,.06-.6-.41-.75-.92-.8-.72-.07-1.43,0-2.02,.37-.53,.33-.82,.16-1.17-.22-.58-.62-1.17-1.24-1.81-1.8-.52-.46-.28-.69,.18-.9,.75-.34,1.54-.5,2.37-.39,.53,.07,1.08,.04,1.1-.66,.02-.64-.53-.67-.99-.71-1.27-.12-2.48,.08-3.55,.79-1.09,.72-1.34-.44-1.78-.89-.61-.61,.28-.71,.57-.88,3-1.83,5.99-1.73,8.97,.08,.65,.39,.8,.68,.21,1.29-1.46,1.52-1.44,1.54,.46,2.5,.03,.02,.06,.05,.1,.06,2.54,1.34,2.61,2.15,.26,3.69-.59,.39-.79,.75-.47,1.43,.53,1.11,1.03,2.68,.36,3.41-.69,.76-2.27,.22-3.37-.26"/></g></g></svg>