<?xml version="1.0" encoding="UTF-8"?><svg id="Capa_2" xmlns="http://www.w3.org/2000/svg" viewBox="0 0 87.73 69.1"><defs><style>.cls-1{fill:#21b575;}</style></defs><g id="main"><path class="cls-1" d="M85.52,5.29h-26.18c-5.75,0-10.86,2.76-14.09,7.01C42.98,5.18,36.29,0,28.39,0H2.21C.99,0,0,.98,0,2.19,0,14.83,10.33,25.12,23.04,25.12c10.27,0,18.62,8.31,18.62,18.53v23.26c0,1.21,.99,2.19,2.21,2.19s2.21-.98,2.21-2.19v-17.97c0-10.22,8.35-18.53,18.62-18.53,12.7,0,23.03-10.28,23.03-22.92,0-1.21-.99-2.19-2.21-2.19M23.04,20.73C13.51,20.73,5.64,13.58,4.54,4.39H28.39c7.31,0,13.27,5.92,13.27,13.2v12.58c-4.19-5.72-10.98-9.45-18.62-9.45m41.66,5.29c-7.64,0-14.43,3.72-18.62,9.44v-12.58c0-7.28,5.95-13.2,13.27-13.2h23.85c-1.1,9.19-8.97,16.34-18.49,16.34"/></g></svg>