<?xml version="1.0" encoding="UTF-8"?><svg id="Capa_2" xmlns="http://www.w3.org/2000/svg" viewBox="0 0 78.28 78.28"><defs><style>.cls-1{fill:#fff;}.cls-2{fill:#1a1a1a;}</style></defs><g id="main"><g><path class="cls-2" d="M39.14,0C17.56,0,0,17.56,0,39.14c0,10.08,3.83,19.28,10.11,26.23,.03,.03,.04,.07,.07,.1,.01,.01,.03,.02,.04,.03,7.16,7.86,17.47,12.79,28.92,12.79,21.58,0,39.14-17.56,39.14-39.14S60.73,0,39.14,0"/><path class="cls-1" d="M39.14,2.93c19.97,0,36.21,16.25,36.21,36.21s-16.25,36.21-36.21,36.21c-5.17,0-10.17-1.07-14.86-3.19-4.53-2.04-8.53-4.95-11.89-8.64l-.06-.07s-.03-.04-.05-.06c-6.03-6.67-9.35-15.28-9.35-24.26C2.93,19.17,19.17,2.93,39.14,2.93"/><polygon class="cls-2" points="21.33 62.65 23.3 64.03 24.67 62.06 26.04 63.01 22.38 68.28 21.01 67.33 22.49 65.2 20.52 63.83 19.03 65.96 17.67 65.01 21.32 59.74 22.69 60.69 21.33 62.65"/><path class="cls-2" d="M31.54,70.67l-2.25-.62-.7,.92-1.7-.48,4.1-5.52,1.75,.49,.61,6.83-1.72-.48-.09-1.14Zm-.09-1.34l-.14-2.19-1.23,1.81,1.37,.38Z"/><path class="cls-2" d="M39.83,70.49l.08,2.13-1.66,.06-.25-6.41,2.65-.1c.56-.02,1.14,.07,1.65,.52,.52,.46,.63,.99,.66,1.53,.02,.51-.03,1.11-.51,1.62-.48,.51-1.07,.6-1.57,.62l-1.04,.04Zm-.05-1.34l.56-.02c.17,0,.5-.04,.69-.23,.2-.18,.2-.44,.19-.59,0-.18-.04-.41-.21-.57-.21-.2-.51-.21-.72-.2l-.57,.02,.07,1.6Z"/><path class="cls-2" d="M48.88,68.96l.69,2.02-1.57,.54-2.09-6.06,2.51-.87c.53-.19,1.11-.27,1.73,.02,.63,.29,.9,.77,1.07,1.28,.16,.48,.3,1.07-.02,1.7-.32,.62-.86,.88-1.33,1.04l-.99,.34Zm-.44-1.27l.52-.18c.16-.06,.47-.18,.6-.42,.13-.23,.06-.48,0-.63-.05-.16-.15-.38-.37-.48-.25-.13-.55-.05-.75,.01l-.54,.19,.52,1.51Z"/><polygon class="cls-2" points="56.24 64.31 52.41 62.96 54.03 61.8 56.03 62.51 55.95 60.41 57.59 59.23 57.6 63.33 59.4 65.83 58.04 66.81 56.24 64.31"/><path class="cls-2" d="M18.89,18.53l1.46,1.54-1.2,1.15-4.42-4.65,1.93-1.83c.4-.38,.9-.7,1.58-.7,.69,0,1.13,.33,1.5,.72,.36,.37,.72,.85,.69,1.55-.03,.7-.41,1.16-.77,1.5l-.76,.73Zm-.93-.98l.4-.38c.13-.12,.36-.36,.38-.63,.02-.26-.15-.46-.25-.57-.13-.12-.3-.27-.54-.28-.28-.01-.52,.18-.67,.32l-.42,.39,1.1,1.16Z"/><polygon class="cls-2" points="24.02 9.58 26.32 14.02 28.1 13.1 28.74 14.36 25.49 16.04 22.54 10.35 24.02 9.58"/><path class="cls-2" d="M35.5,11.48l-2.29,.4-.24,1.13-1.73,.31,1.32-6.75,1.79-.31,3.48,5.91-1.75,.31-.58-.99Zm-.65-1.17l-1.07-1.92-.34,2.17,1.4-.25Z"/><polygon class="cls-2" points="40.94 12.22 42.12 5.91 43.76 6.22 46.05 10.64 46.77 6.78 48.41 7.09 47.23 13.4 45.59 13.09 43.3 8.67 42.58 12.53 40.94 12.22"/><polygon class="cls-2" points="56.28 12.3 54.56 11.34 54.03 12.27 55.67 13.19 54.98 14.42 53.34 13.51 52.8 14.47 54.54 15.44 53.85 16.67 50.67 14.9 53.79 9.29 56.97 11.07 56.28 12.3"/><polygon class="cls-2" points="62.07 17.14 58.54 20.69 57.36 19.52 60.89 15.97 59.91 15 60.91 14 64.03 17.1 63.04 18.1 62.07 17.14"/><path class="cls-2" d="M39.13,15.6c-13.27-.04-24.02,10.4-24.09,23.9-.07,13.69,11.12,24.17,24,24.03,13.03,.13,23.76-10.55,23.97-23.5,.21-13.49-10.52-24.39-23.88-24.43m-8.68,4.06c1.91-.81,3.89-1.38,5.83-1.57,.51-.09,.54,.15,.46,.42-.27,.95-.07,1.87,.18,2.78,.17,.62-.05,1-.6,1.21-.64,.25-1.27,.43-2,.13-1.11-.46-2.28-.78-3.44-1.14-.27-.08-.49-.2-.69-.39-.74-.73-.68-1.03,.25-1.43m-11.83,25.86c.13,.4,.16,.8-.05,1.22-.2-.23-.13-.47-.16-.68-.67-1.49-.86-3.09-1-4.69-.32-3.51,.24-6.91,1.61-10.17,.37-.88,2.27-1.25,2.98-.59,.39,.37,.43,.79,.21,1.24-.71,1.45-1.32,2.93-2.19,4.3-1.06,1.67-1.34,3.62-1.44,5.56-.06,1.26,.03,2.53,.04,3.8m42.06-4.72c-.1-.03-.19-.07-.28-.1,.11,.82-.06,1.65-.6,2.35,.79,.38,.58,.45,.11,2.32-.42,1.68-1.09,3.24-2.12,4.68,0-.11-.88-1.14-.88-1.25-.19,.22,.45,1.3,.12,1.37-.54,1.11-.97,2.14-1.82,2.94-.01,.2-.03,.41-.04,.61-.02,.37-.22,.6-.45,.83-2.44,2.55-5.33,4.41-8.67,5.57-.97,.34-1.17,.41-1.21-.23-.74,.32-1.51,.54-2.29,.64-.02,.41-.25,.52-.67,.57-5.92,.7-11.28-.7-16.04-4.28-1.93-1.45-3.56-3.2-4.88-5.23-.17-.26-.32-.5-.26-.82,.62-2.92-.01-5.86,.15-8.78,.11-1.96,.5-3.79,1.65-5.48,.89-1.3,1.5-2.81,1.99-4.31,.63-1.94-.93-4.05-3.01-4.18-.21-.02-.48,.1-.6-.11-.15-.26,.13-.44,.26-.62,1.56-2.26,3.49-4.15,5.75-5.71,.45-.31,.74-.36,.99,.18,.54,1.15,1.52,1.69,2.66,2.06,1.11,.34,2.21,.71,3.31,1.05,1.86,.59,4.2-.21,5.05-1.73,.51-.92,.34-1.87,.15-2.83-.07-.34-.22-.67-.16-1.03,.19-1.11,.57-1.45,1.69-1.34,2.04,.19,4.05,.57,5.97,1.32,.44,.17,.55,.33,.43,.82-.05,.22-.09,.41-.14,.6,.75,.06,1.53,.49,2.13,.92,.26-1.17,.44-1.12,1.69-.31,4.27,2.74,7.24,6.52,8.9,11.32,.92,2.64,1.29,5.37,1.12,8.21"/><path class="cls-2" d="M18.57,46.74c.22-.43,.19-.82,.06-1.22-.08,.18-.15,.36-.22,.54,.03,.21-.04,.45,.16,.68"/><path class="cls-2" d="M46.18,41.69c-2.4,0-4.8,0-7.2,0s-5.02,0-7.53,0c-.84,0-1.61,.25-1.64,1.15-.08,2.12-.36,4.29,.42,6.35,1.37,3.6,4.17,5.43,7.87,5.76,3.71,.33,6.71-1.14,8.78-4.33,1.35-2.09,1.43-4.44,1.39-6.82-.03-1.79-.33-2.1-2.08-2.11m-5.76,10.37c-3.41,.81-6.89-1.17-7.71-4.33-.22-.84-.19-1.7-.23-2.57-.03-.68,.25-.8,.85-.79,1.91,.03,9.55,.04,11.46,.05,.3,0,.68-.15,.71,.42,.19,3.31-1.49,6.35-5.09,7.21"/><path class="cls-2" d="M34.77,36.43c.42,.62,.98,.9,1.67,.4,.66-.48,.62-1.07,.2-1.72-1.14-1.76-2.77-2.62-4.83-2.71-2.15,.09-3.82,1.02-4.93,2.87-.37,.6-.26,1.15,.3,1.56,.6,.43,1.11,.26,1.56-.26,.16-.19,.3-.39,.46-.59,.63-.8,1.43-1.23,2.47-1.27,1.4-.05,2.36,.59,3.1,1.7"/><path class="cls-2" d="M46.13,32.41c-1.97,.09-3.61,.95-4.74,2.7-.4,.63-.45,1.24,.2,1.72,.68,.5,1.21,.19,1.68-.39,1.98-2.41,3.99-2.42,5.91-.02,.46,.58,.98,.9,1.67,.42,.67-.48,.63-1.1,.22-1.73-1.14-1.74-2.75-2.64-4.93-2.71"/><path class="cls-2" d="M60.89,43.56c-.44,0-3.57-.09-5.46-2.34-1.29-1.55-1.69-3.65-1.16-6.27,.44-2.22-1.04-4.3-1.6-4.86-1.13-1.13-2.04-1.54-2.85-1.9-.7-.32-1.43-.64-2.01-1.34-2.51-3.03-.89-7.63-.81-7.82l2.56,.93c-.33,.92-.9,3.64,.35,5.16,.17,.2,.48,.35,1.03,.59,.92,.42,2.18,.98,3.67,2.46,1.1,1.09,3,4.03,2.34,7.31-.34,1.76-.15,3.1,.58,3.98,1.13,1.37,3.29,1.38,3.39,1.38l.05,2.72h-.05Z"/><path class="cls-2" d="M42.41,61.96c-.11-.21-1.06-2.15,.22-4.44,1.17-2.09,5.6-4.4,7.29-4.65,.51-.34,1.41-2.03,1.52-2.87,.19-1.39,1.7-2.45,3.32-2.31,.85,.07,3.62,.72,3.4,5.88l-2.92-.13c.08-1.95-.38-2.69-.64-2.81-.1-.05-.22-.02-.3,.01-.31,1.44-1.77,4.89-3.97,5.12-.92,.13-4.53,2.08-5.15,3.18-.5,.9-.2,1.6-.16,1.67l-.02-.03-2.59,1.37Z"/></g></g></svg>