<?xml version="1.0" encoding="UTF-8"?><svg id="Capa_2" xmlns="http://www.w3.org/2000/svg" viewBox="0 0 118.2 19"><defs><style>.cls-1{fill:#ebb75a;}</style></defs><g id="main"><g><polygon class="cls-1" points="10 0 13.09 6.25 20 7.26 15 12.13 16.18 19 10 15.75 3.82 19 5 12.13 0 7.26 6.91 6.25 10 0"/><polygon class="cls-1" points="34.55 0 37.64 6.25 44.55 7.26 39.55 12.13 40.73 19 34.55 15.75 28.37 19 29.55 12.13 24.55 7.26 31.46 6.25 34.55 0"/><polygon class="cls-1" points="59.1 0 62.19 6.25 69.1 7.26 64.1 12.13 65.28 19 59.1 15.75 52.92 19 54.1 12.13 49.1 7.26 56.01 6.25 59.1 0"/><polygon class="cls-1" points="83.65 0 86.74 6.25 93.65 7.26 88.65 12.13 89.83 19 83.65 15.75 77.47 19 78.65 12.13 73.65 7.26 80.56 6.25 83.65 0"/><polygon class="cls-1" points="108.2 0 111.29 6.25 118.2 7.26 113.2 12.13 114.38 19 108.2 15.75 102.02 19 103.2 12.13 98.2 7.26 105.11 6.25 108.2 0"/></g></g></svg>