<?xml version="1.0" encoding="UTF-8"?><svg id="Layer_2" xmlns="http://www.w3.org/2000/svg" viewBox="0 0 34.23 37.74"><defs><style>.cls-1{fill:#1a1a1a;}</style></defs><g id="main"><g><path class="cls-1" d="M12.5,8.3c0-2.22,3.26-7,3.91-7.93,.16-.23,.42-.37,.71-.37s.55,.14,.71,.37c.65,.94,3.91,5.71,3.91,7.93,0,2.53-2.07,4.59-4.62,4.59s-4.62-2.06-4.62-4.59m1.72,0c0,1.59,1.3,2.88,2.89,2.88s2.89-1.29,2.89-2.88c0-1.1-1.57-3.87-2.89-5.9-1.33,2.04-2.89,4.8-2.89,5.9"/><path class="cls-1" d="M33.37,15.19h-10.22c-2.24,0-4.24,1.08-5.5,2.73-.88-2.78-3.5-4.8-6.58-4.8H.86c-.48,0-.86,.38-.86,.86,0,4.93,4.03,8.94,8.99,8.94,4.01,0,7.27,3.24,7.27,7.23v6.73c0,.47,.39,.86,.86,.86s.86-.38,.86-.86v-4.67c0-3.99,3.26-7.23,7.27-7.23,4.96,0,8.99-4.01,8.99-8.94,0-.47-.39-.86-.86-.86m-24.38,6.02c-3.72,0-6.79-2.79-7.22-6.37H11.08c2.85,0,5.18,2.31,5.18,5.15v4.91c-1.64-2.23-4.28-3.69-7.27-3.69m16.25,2.06c-2.98,0-5.63,1.45-7.27,3.68v-4.91c0-2.84,2.32-5.15,5.18-5.15h9.31c-.43,3.58-3.5,6.37-7.22,6.37"/></g></g></svg>