<?xml version="1.0" encoding="UTF-8"?><svg id="Layer_2" xmlns="http://www.w3.org/2000/svg" viewBox="0 0 143.06 157.75"><defs><style>.cls-1{fill:#21b575;}.cls-2{fill:#27aae1;}.cls-3{opacity:.6;}</style></defs><g id="main"><g class="cls-3"><g><path class="cls-2" d="M52.24,34.68c0-9.28,13.61-29.24,16.34-33.15,.67-.96,1.78-1.54,2.95-1.54s2.28,.57,2.95,1.54c2.73,3.91,16.33,23.87,16.33,33.15,0,10.59-8.65,19.19-19.29,19.19s-19.29-8.61-19.29-19.19m7.19,0c0,6.64,5.43,12.04,12.1,12.04s12.1-5.4,12.1-12.04c0-4.6-6.55-16.16-12.1-24.67-5.54,8.51-12.1,20.07-12.1,24.67"/><path class="cls-1" d="M139.46,63.47h-42.7c-9.38,0-17.71,4.5-22.97,11.43-3.69-11.61-14.62-20.05-27.49-20.05H3.6c-1.99,0-3.6,1.6-3.6,3.58,0,20.61,16.85,37.38,37.56,37.38,16.74,0,30.37,13.56,30.37,30.22v28.14c0,1.98,1.61,3.58,3.6,3.58s3.6-1.6,3.6-3.58v-19.52c0-16.66,13.62-30.22,30.37-30.22,20.71,0,37.56-16.77,37.56-37.38,0-1.98-1.61-3.58-3.6-3.58m-101.89,25.18c-15.53,0-28.37-11.66-30.16-26.64H46.3c11.93,0,21.63,9.66,21.63,21.53v20.52c-6.84-9.33-17.9-15.4-30.37-15.4m67.93,8.63c-12.47,0-23.53,6.07-30.37,15.4v-20.52c0-11.87,9.71-21.53,21.63-21.53h38.89c-1.79,14.98-14.63,26.64-30.16,26.64"/></g></g></g></svg>