<?xml version="1.0" encoding="UTF-8"?><svg id="Capa_2" xmlns="http://www.w3.org/2000/svg" viewBox="0 0 252.07 252.07"><defs><style>.cls-1{fill:#fff;}.cls-2{fill:#1a1a1a;}</style></defs><g id="Capa_1-2"><rect class="cls-1" width="252.07" height="252.07" rx="30.62" ry="30.62"/><path class="cls-2" d="M198.97,93.2v18.93c-8.93,0-17.6-1.74-25.78-5.19-5.26-2.22-10.16-5.08-14.64-8.53l.13,58.26c-.05,13.12-5.25,25.45-14.64,34.73-7.65,7.55-17.33,12.36-27.83,13.92-2.47,.36-4.97,.55-7.52,.55-11.24,0-21.91-3.64-30.64-10.35-1.64-1.26-3.22-2.64-4.71-4.11-10.18-10.06-15.43-23.7-14.54-38.05,.67-10.92,5.04-21.34,12.33-29.5,9.64-10.8,23.13-16.8,37.56-16.8,2.53,0,5.05,.19,7.52,.56v26.47c-2.34-.77-4.84-1.19-7.44-1.19-13.18,0-23.84,10.75-23.64,23.94,.13,8.44,4.73,15.81,11.53,19.88,3.19,1.91,6.87,3.1,10.79,3.31,3.08,.16,6.02-.26,8.75-1.16,9.41-3.11,16.21-11.95,16.21-22.38l.03-39.02V46.21h26.07c.02,2.58,.29,5.11,.78,7.55,1.97,9.88,7.54,18.46,15.29,24.3,6.76,5.1,15.18,8.12,24.3,8.12,0,0,.08,0,.08,0v7.03h0Z"/></g></svg>