<?xml version="1.0" encoding="UTF-8"?><svg id="Capa_2" xmlns="http://www.w3.org/2000/svg" viewBox="0 0 36.99 26.53"><defs><style>.cls-1{fill:#161616;}</style></defs><g id="main"><path class="cls-1" d="M17.14,4.45c-2.52,.65-4.44,1.6-5.76,2.86-1.32,1.26-1.92,2.76-1.79,4.5,.84,1.03,1.89,1.86,3.15,2.47,1.26,.61,2.6,1.15,4.02,1.6,.32,1.16,.37,2.34,.15,3.53-.23,1.2-.66,2.29-1.31,3.29-.65,1-1.4,1.86-2.28,2.57-.87,.71-1.76,1.13-2.66,1.26-1.36-.06-2.68-.34-3.97-.82-1.29-.48-2.42-1.18-3.39-2.08-.97-.9-1.76-1.98-2.37-3.24-.61-1.26-.92-2.69-.92-4.31,0-1.94,.39-3.79,1.16-5.57,.77-1.77,1.85-3.37,3.24-4.79,1.39-1.42,3.05-2.63,4.99-3.63,1.94-1,4.07-1.69,6.39-2.08l1.36,4.45Zm19.85,0c-2.52,.65-4.44,1.6-5.76,2.86-1.32,1.26-1.92,2.76-1.79,4.5,.84,1.03,1.89,1.86,3.15,2.47,1.26,.61,2.6,1.15,4.02,1.6,.32,1.16,.37,2.34,.15,3.53-.23,1.2-.66,2.29-1.31,3.29-.65,1-1.4,1.86-2.28,2.57-.87,.71-1.76,1.13-2.66,1.26-1.36-.06-2.68-.34-3.97-.82-1.29-.48-2.42-1.18-3.39-2.08-.97-.9-1.76-1.98-2.37-3.24-.61-1.26-.92-2.69-.92-4.31,0-1.94,.39-3.79,1.16-5.57,.77-1.77,1.85-3.37,3.24-4.79,1.39-1.42,3.05-2.63,4.99-3.63,1.94-1,4.07-1.69,6.39-2.08l1.36,4.45Z"/></g></svg>