<?xml version="1.0" encoding="UTF-8"?><svg id="Capa_2" xmlns="http://www.w3.org/2000/svg" viewBox="0 0 78.28 78.29"><defs><style>.cls-1{fill:#fff;}.cls-2{fill:#1a1a1a;}</style></defs><g id="main"><g><path class="cls-2" d="M39.14,0C17.56,0,0,17.56,0,39.14c0,10.08,3.83,19.28,10.11,26.23,.03,.03,.04,.07,.07,.1,.01,.01,.03,.02,.04,.03,7.17,7.86,17.48,12.79,28.92,12.79,21.58,0,39.14-17.56,39.14-39.15S60.73,0,39.14,0"/><path class="cls-1" d="M39.14,2.93c19.97,0,36.21,16.25,36.21,36.21s-16.25,36.21-36.21,36.21c-5.17,0-10.17-1.07-14.86-3.19-4.53-2.04-8.53-4.95-11.89-8.64l-.06-.06s-.03-.04-.05-.07c-6.03-6.67-9.35-15.28-9.35-24.26C2.93,19.17,19.17,2.93,39.14,2.93"/><polygon class="cls-2" points="22.95 58.4 21.79 62.82 25.67 60.39 27.25 61.55 20.74 65.43 19.6 64.59 21.36 57.23 22.95 58.4"/><polygon class="cls-2" points="32.01 64.9 29.99 64.16 29.59 65.25 31.51 65.94 30.99 67.39 29.07 66.69 28.65 67.82 30.68 68.56 30.15 70 26.43 68.65 28.81 62.09 32.54 63.45 32.01 64.9"/><path class="cls-2" d="M37.66,67.21l3.59,.19c-.07,1.38-.4,2.34-1.28,3.07-.76,.64-1.61,.8-2.5,.75-1.26-.07-2.09-.57-2.62-1.17-.49-.55-.93-1.42-.87-2.57,.06-1.11,.55-1.99,1.18-2.56,.61-.55,1.52-.95,2.76-.88,.65,.03,1.34,.21,1.86,.57,.52,.36,.95,.94,1.17,1.5l-1.76,.62c-.1-.33-.29-.57-.46-.73-.28-.27-.61-.38-.95-.39-.43-.02-.88,.11-1.22,.42-.43,.39-.66,1.02-.69,1.57-.03,.64,.17,1.17,.48,1.54,.31,.37,.72,.57,1.24,.6,.32,.02,.68-.02,1.03-.27,.17-.13,.38-.37,.46-.75l-1.49-.08,.08-1.41Z"/><path class="cls-2" d="M48.61,68.58l-2.44,.67-.14,1.26-1.85,.51,.73-7.44,1.9-.52,4.38,6.03-1.86,.51-.73-1.02Zm-.83-1.2l-1.35-1.97-.13,2.38,1.49-.41Z"/><polygon class="cls-2" points="54.78 67.36 50.77 61.66 52.25 60.62 57.43 62.18 54.97 58.7 56.46 57.65 60.47 63.36 59 64.4 53.81 62.83 56.26 66.32 54.78 67.36"/><path class="cls-2" d="M58.11,23.6l-12.79,31.67h-12.6l-12.58-31.67h7.31l8.95,21.06,2.68,6.29,2.7-6.28,9.07-21.07h7.24Zm4.34-2.93h-13.5l-9.83,22.84-9.72-22.84H15.83l14.91,37.52h16.57l15.14-37.52Z"/><rect class="cls-2" x="38.59" y="42.85" width="2.93" height="13.59" transform="translate(-15.89 18.99) rotate(-22.38)"/></g></g></svg>