<?xml version="1.0" encoding="UTF-8"?><svg id="Capa_2" xmlns="http://www.w3.org/2000/svg" viewBox="0 0 75.5 75.49"><defs><style>.cls-1{fill:none;stroke:#1a1a1a;stroke-miterlimit:10;stroke-width:2px;}.cls-2{fill:#1a1a1a;}</style></defs><g id="main"><g><path class="cls-1" d="M74.5,37.75C74.5,17.45,58.04,1,37.75,1S1,17.45,1,37.75s16.45,36.75,36.75,36.75,36.75-16.45,36.75-36.75Z"/><path class="cls-2" d="M51.97,24.6c-1.79,.02-3.57,0-5.36,.01-.29,0-.38-.05-.38-.36,.02-.92,0-1.85,.01-2.77,0-.24-.06-.29-.29-.29-2.09,0-14.19,.01-16.28,0-.25,0-.29,.08-.29,.3,.01,.9-.01,1.8,.01,2.7,0,.33-.06,.43-.41,.42-1.79-.02-3.58,0-5.36-.02-.25,0-.33,.06-.31,.31,.02,.44,.02,.88,0,1.31-.01,.23,.07,.28,.28,.27,.34-.02,.69,.02,1.03-.01,.31-.03,.36,.09,.36,.37-.01,4.65,0,22.3-.01,26.95,0,.29,.04,.39,.37,.39,2.5-.02,4.99,0,7.49,0s14.99,0,17.49,0c.29,0,.37-.06,.37-.36-.01-3.41,0-19.82,0-23.22,0-1.28,0-2.56,0-3.83,0-.23,.05-.31,.29-.29,.37,.02,.73,0,1.1,.01,.23,.01,.28-.07,.27-.28-.02-.41-.02-.83,0-1.24,.02-.29-.06-.38-.36-.38m-20.64-1.44c.21-.26,.77-.06,1.18-.08,.09,0,.19,0,.28,0,.44,0,10.88,0,11.31,0,.19,0,.25,.05,.24,.24-.01,.37-.01,.73,0,1.1,0,.17-.04,.22-.22,.22-.89,0-11.78,0-12.66,0-.15,0-.22-.04-.2-.2,0-.02,0-.05,0-.07,0-.41-.14-.95,.06-1.2m17.11,29.13H27.15l-.33-.33c.01-2.03,0-17.07,0-19.1s0-4.05,0-6.07c0-.25,.06-.31,.31-.31,3.77,0,17.55,0,21.32,0,.24,0,.31,.05,.31,.31,0,4.06,0,25.17,0,25.17l-.33,.33Z"/><path class="cls-2" d="M40.14,39.5c.98-.94,1.92-1.92,2.88-2.88,.1-.1,.19-.2,.31-.32-.1-.11-.18-.2-.26-.28-.47-.47-.96-.93-1.41-1.43-.24-.26-.36-.2-.58,.02-.98,1-1.98,1.96-2.95,2.97-.25,.26-.38,.29-.65,.02-.97-1-1.97-1.97-2.94-2.97-.26-.27-.41-.26-.65,.01-.44,.48-.9,.95-1.38,1.39-.25,.23-.22,.35,0,.58,.98,.96,1.93,1.97,2.93,2.91,.36,.34,.29,.51-.02,.81-.99,.95-1.95,1.94-2.93,2.91-.18,.17-.25,.28-.03,.49,.52,.48,1.02,.98,1.51,1.48,.19,.19,.29,.2,.49,0,1-1.02,2.03-2.02,3.02-3.04,.24-.25,.37-.26,.61,0,.98,1.01,2,2,2.98,3.01,.22,.22,.34,.27,.57,.01,.43-.47,.88-.92,1.35-1.34,.29-.26,.32-.4,.02-.69-.98-.94-1.91-1.93-2.9-2.86-.34-.32-.29-.47,.02-.77"/></g></g></svg>