<?xml version="1.0" encoding="UTF-8"?><svg id="Capa_2" xmlns="http://www.w3.org/2000/svg" viewBox="0 0 75.5 75.49"><defs><style>.cls-1{stroke-linecap:round;stroke-linejoin:round;}.cls-1,.cls-2{fill:none;stroke:#27aae1;stroke-width:2px;}.cls-2{stroke-miterlimit:10;}</style></defs><g id="main"><g><path class="cls-2" d="M74.5,37.75C74.5,17.45,58.04,1,37.75,1S1,17.45,1,37.75s16.45,36.75,36.75,36.75,36.75-16.45,36.75-36.75Z"/><g><path class="cls-1" d="M31.55,24.85c2.77,0,5.47,.97,7.59,2.74,.58,.48,1.16,1.1,1.92,2.05,3.08,3.85,6.73,8.28,11.15,12.12,2.19,1.9,4.51,3.69,6.94,5.35-5.61,2.52-10.99,3.99-16.32,4.5-1.11,.1-2.19,.16-3.22,.16-4.3,0-8-.9-11.32-2.74-2.2-1.23-4.1-2.81-5.49-4.58l-.06-.08-.06-.08c-3.07-3.55-3.74-8.73-1.65-12.88,.24-.48,.41-.96,.51-1.45,.4-.26,.81-.6,1.2-1.07,2.16-2.57,5.37-4.04,8.81-4.04"/><path class="cls-1" d="M39.91,42.65s-11.92-4.79-23.13-19.97"/></g></g></g></svg>