<?xml version="1.0" encoding="UTF-8"?><svg id="Capa_2" xmlns="http://www.w3.org/2000/svg" viewBox="0 0 69.31 76.19"><defs><style>.cls-1{fill:none;stroke:#27aae1;stroke-linecap:round;stroke-linejoin:round;stroke-width:4px;}</style></defs><g id="main"><g><path class="cls-1" d="M35.56,46.95s-10.58,10.8-10.58,16.65,4.69,10.53,10.49,10.58h.13c5.83-.02,10.55-4.75,10.55-10.58s-10.58-16.65-10.58-16.65Z"/><path class="cls-1" d="M35.56,2s-10.58,10.8-10.58,16.65,4.69,10.53,10.49,10.58h.13c5.83-.02,10.55-4.75,10.55-10.58S35.56,2,35.56,2Z"/><path class="cls-1" d="M12.58,24.98S2,35.78,2,41.63s4.69,10.53,10.49,10.58h.13c5.83-.02,10.55-4.75,10.55-10.58S12.58,24.98,12.58,24.98Z"/><path class="cls-1" d="M56.73,24.98s-10.58,10.8-10.58,16.65,4.69,10.53,10.49,10.58h.13c5.83-.02,10.55-4.75,10.55-10.58s-10.58-16.65-10.58-16.65Z"/></g></g></svg>