<?xml version="1.0" encoding="UTF-8"?><svg id="Layer_2" xmlns="http://www.w3.org/2000/svg" viewBox="0 0 74 74"><defs><style>.cls-1{fill:none;stroke:#1a1a1a;stroke-miterlimit:10;stroke-width:2px;}</style></defs><g id="main"><g><path class="cls-1" d="M73,37C73,17.12,56.88,1,37,1S1,17.12,1,37s16.12,36,36,36,36-16.12,36-36Z"/><path class="cls-1" d="M4.39,21.72s12.97-9.84,23.17-2.23c6.31,4.71,1.13,14.7-4.25,21.11-6,7.15-7.03,8.59-5.88,26.61"/><path class="cls-1" d="M24.28,70.69c6.31-14.45,3.97-15.28,11.17-14.16s6.19-5.94,5.94-8.89c-.17-2.03,1.97-3.57,2.79-4.08,.14-.09-.81-1.17-.94-1.28-4.09-3.35-4.72-4.98-4.72-4.98-.72-12.05-8.29-14.67-8.29-14.67"/><path class="cls-1" d="M14.07,24.32s-.15,3.23-4.44,7.16c-4.29,3.93-3.88,7.82-3.88,7.82"/><path class="cls-1" d="M22.22,24.32s-1,6.48-7.18,12.77-7.71,15.97-7.71,19.78"/><path class="cls-1" d="M33.58,47.88s2.11,4.01,8.3,2.31"/><line class="cls-1" x1="59.5" y1="46.6" x2="57.38" y2="35.8"/><line class="cls-1" x1="54.67" y1="41.94" x2="62.22" y2="40.46"/><circle class="cls-1" cx="55.95" cy="28.52" r="7.43"/><path class="cls-1" d="M36.53,37.51c-.53,.57-1.28,.93-2.12,.93-1.06,0-1.99-.58-2.49-1.44"/></g></g></svg>